<svg width="73" height="78" viewBox="0 0 73 78" fill="none" xmlns="http://www.w3.org/2000/svg">
<g clip-path="url(#clip0_309_555)">
<path fill-rule="evenodd" clip-rule="evenodd" d="M16.0712 36.1816H57.1558V23.7021H44.0667C42.6926 23.7021 40.7802 22.9595 39.8747 22.0518C38.9692 21.144 38.4182 19.5063 38.4182 18.1353V4.84961H5.16044C5.04646 4.84961 4.9578 4.90674 4.90081 4.96387C4.80582 5.02734 4.78049 5.10986 4.78049 5.23047V72.8013C4.78049 72.8901 4.83749 73.0044 4.89448 73.0615C4.95147 73.1504 5.07179 73.1758 5.15411 73.1758C19.5793 73.1758 41.9391 73.1758 56.7696 73.1758C56.8835 73.1758 56.8772 73.1187 56.9405 73.0615C57.0292 73.0044 57.1495 72.8838 57.1495 72.8013V65.7173H16.0712C13.4496 65.7173 11.2839 63.5591 11.2839 60.9185V40.9741C11.2839 38.3398 13.4369 36.1816 16.0712 36.1816ZM18.7435 43.2085H23.9677L26.6843 47.9375L29.3186 43.2085H34.4795L29.7175 50.6479L34.9291 58.5698H29.5972L26.5893 53.6377L23.5624 58.5698H18.2749L23.5561 50.5654L18.7435 43.2085ZM36.8415 43.2085H41.5718V54.793H48.9807V58.5698H36.8415V43.2085ZM50.6968 53.4854L55.1928 53.1997C55.2878 53.9297 55.4904 54.4883 55.788 54.8691C56.2756 55.4849 56.9722 55.7959 57.8777 55.7959C58.549 55.7959 59.0746 55.6372 59.4355 55.3198C59.8028 55.0024 59.9864 54.6343 59.9864 54.2153C59.9864 53.8154 59.8154 53.46 59.4672 53.1489C59.1189 52.8315 58.3147 52.5396 57.0482 52.2603C54.9712 51.7969 53.4957 51.1748 52.6092 50.4004C51.7163 49.626 51.273 48.6421 51.273 47.4424C51.273 46.6553 51.501 45.9126 51.9569 45.208C52.4129 44.5034 53.0968 43.9512 54.015 43.5513C54.9332 43.1514 56.187 42.9482 57.7827 42.9482C59.7395 42.9482 61.2339 43.3101 62.2598 44.0464C63.2856 44.7764 63.8999 45.938 64.0962 47.5312L59.6445 47.7979C59.5242 47.0996 59.2772 46.5918 58.8973 46.2808C58.5173 45.9634 57.9917 45.8047 57.3268 45.8047C56.7759 45.8047 56.358 45.9253 56.0793 46.1538C55.8007 46.3887 55.6614 46.6743 55.6614 47.0107C55.6614 47.252 55.7754 47.4741 56.0033 47.6709C56.2186 47.874 56.7506 48.0581 57.5864 48.2358C59.6571 48.6802 61.1389 49.1372 62.0255 49.5942C62.9183 50.0513 63.5706 50.6162 63.9822 51.2954C64.3874 51.9746 64.5901 52.73 64.5901 53.5679C64.5901 54.5518 64.3178 55.4595 63.7795 56.291C63.2349 57.1226 62.4751 57.751 61.4999 58.1826C60.5247 58.6143 59.2962 58.8237 57.8144 58.8237C55.2118 58.8237 53.4071 58.3223 52.4002 57.313C51.3997 56.3101 50.8298 55.0342 50.6968 53.4854ZM61.9241 36.1816H68.2122C70.8465 36.1816 72.9995 38.3462 72.9995 40.9805V60.9248C72.9995 63.5591 70.8402 65.7236 68.2122 65.7236H61.9241V74.3247C61.9241 75.3467 61.5125 76.2544 60.8476 76.9272C60.1764 77.6001 59.2709 78.0063 58.2513 78.0063C39.6087 78.0063 22.4163 78.0063 3.67866 78.0063C2.65914 78.0063 1.7536 77.6001 1.08237 76.9272C0.411134 76.2544 0.00585938 75.3467 0.00585938 74.3247V3.71338C0.00585938 2.69141 0.417466 1.78369 1.08237 1.11084C1.7536 0.437988 2.68447 0.0317383 3.67866 0.0317383H40.8626C40.9449 0 41.0335 0 41.1222 0C41.5275 0 41.9391 0.177734 42.2304 0.437988H42.2873C42.3443 0.469727 42.376 0.495117 42.433 0.552246L61.4239 19.8237C61.7468 20.1475 61.9811 20.5854 61.9811 21.0806C61.9811 21.2266 61.9495 21.3408 61.9241 21.4932V36.1816ZM42.7559 17.7544V5.6748L56.3263 19.4492H44.4467C43.9781 19.4492 43.5728 19.2461 43.2499 18.9541C42.9586 18.6621 42.7559 18.2241 42.7559 17.7544Z" fill="white"/>
</g>
<defs>
<clipPath id="clip0_309_555">
<rect width="73" height="78" fill="white"/>
</clipPath>
</defs>
</svg>
