<svg width="78" height="78" viewBox="0 0 78 78" fill="none" xmlns="http://www.w3.org/2000/svg">
<g clip-path="url(#clip0_309_563)">
<path fill-rule="evenodd" clip-rule="evenodd" d="M12.95 36.1787H57.2896V23.7012H44.1756C42.8009 23.7012 40.8809 22.9559 39.9741 22.0491C39.0674 21.1424 38.5116 19.5061 38.5116 18.1314V4.84893H5.17063C5.05422 4.84893 4.96647 4.90743 4.90796 4.96593C4.82021 5.02443 4.79096 5.11218 4.79096 5.22918V72.7992C4.79096 72.887 4.84946 73.004 4.90796 73.0625C4.96647 73.1496 5.08347 73.1789 5.17063 73.1789H56.9088C57.0258 73.1789 57.0193 73.121 57.0778 73.0625C57.1656 73.004 57.289 72.887 57.289 72.7992V65.7154H12.9494C10.3192 65.7154 8.15238 63.5568 8.15238 60.919V40.9757C8.15238 38.3373 10.311 36.1787 12.9494 36.1787H12.95ZM20.3508 43.0507H24.7524V51.6274C24.7524 53.4286 24.6096 54.7999 24.3236 55.7406C24.0358 56.6783 23.4578 57.4763 22.5891 58.1303C21.7197 58.7808 20.6053 59.1084 19.2516 59.1084C17.8166 59.1084 16.7063 58.8914 15.9206 58.4614C15.1309 58.0308 14.5231 57.4025 14.0937 56.5718C13.6637 55.7446 13.4098 54.7191 13.3337 53.4988L17.5165 52.8664C17.5229 53.5573 17.5791 54.0721 17.6809 54.4068C17.7838 54.7449 17.9588 55.0134 18.2074 55.2228C18.3753 55.3591 18.6134 55.4252 18.924 55.4252C19.4154 55.4252 19.7769 55.2228 20.008 54.8186C20.2362 54.4138 20.3514 53.7305 20.3514 52.7711V43.0513L20.3508 43.0507ZM26.9479 53.6199L31.1114 53.3292C31.2014 54.0786 31.3857 54.6525 31.6636 55.0421C32.1164 55.6785 32.7599 55.998 33.5994 55.998C34.2241 55.998 34.7068 55.8365 35.0432 55.5089C35.383 55.1825 35.5521 54.8028 35.5521 54.3734C35.5521 53.9657 35.3936 53.5977 35.0724 53.2742C34.7524 52.9507 34.0059 52.6494 32.833 52.3587C30.9089 51.8807 29.5412 51.2413 28.7228 50.4434C27.8968 49.6495 27.4838 48.6345 27.4838 47.3996C27.4838 46.5905 27.6949 45.8265 28.1185 45.1058C28.5409 44.3816 29.1756 43.8153 30.025 43.404C30.8744 42.9922 32.0374 42.7863 33.5145 42.7863C35.328 42.7863 36.7098 43.1613 37.661 43.9147C38.6134 44.6641 39.1774 45.8593 39.3599 47.4991L35.2356 47.7711C35.1262 47.0544 34.8957 46.5326 34.5447 46.2091C34.1908 45.8815 33.7053 45.7201 33.0881 45.7201C32.5785 45.7201 32.1924 45.8412 31.9339 46.0804C31.6765 46.3197 31.5484 46.6139 31.5484 46.9591C31.5484 47.2089 31.6542 47.4335 31.8625 47.6359C32.0643 47.846 32.5528 48.0367 33.3262 48.2168C35.2421 48.6767 36.6139 49.1435 37.4393 49.6132C38.2688 50.0842 38.8737 50.6651 39.2505 51.3636C39.6272 52.0586 39.8156 52.8378 39.8156 53.7012C39.8156 54.7127 39.564 55.6458 39.0621 56.5028C38.5573 57.3557 37.8564 58.0063 36.9514 58.4474C36.0499 58.8884 34.9127 59.109 33.5391 59.109C31.1266 59.109 29.4552 58.5907 28.5268 57.5576C27.5978 56.525 27.0731 55.2123 26.9497 53.6205L26.9479 53.6199ZM41.4992 50.9582C41.4992 48.3812 42.1439 46.3741 43.435 44.9403C44.7273 43.5029 46.525 42.7863 48.8311 42.7863C51.1933 42.7863 53.0138 43.4924 54.2915 44.8999C55.5703 46.3115 56.2085 48.2894 56.2085 50.8301C56.2085 52.6751 55.9306 54.1856 55.372 55.3662C54.8139 56.5467 54.0048 57.4657 52.95 58.1233C51.893 58.7808 50.5779 59.1084 49.0025 59.1084C47.4037 59.1084 46.078 58.8259 45.028 58.259C43.9796 57.6892 43.1273 56.7924 42.4762 55.5645C41.8251 54.3406 41.4981 52.8038 41.4981 50.9582H41.4992ZM45.8803 50.9693C45.8803 52.5611 46.1477 53.7077 46.6806 54.4021C47.2147 55.0971 47.9424 55.4463 48.8603 55.4463C49.8022 55.4463 50.5363 55.1047 51.0511 54.4243C51.57 53.741 51.828 52.5207 51.828 50.7522C51.828 49.2669 51.5572 48.1829 51.0184 47.4991C50.4767 46.8111 49.746 46.4694 48.8211 46.4694C47.936 46.4694 47.2217 46.8187 46.6864 47.5137C46.1477 48.2087 45.8803 49.3629 45.8803 50.9693ZM58.1115 43.0507H62.2059L67.5283 51.7701V43.0507H71.6719V58.8434H67.5283L62.2352 50.1713V58.8434H58.1115V43.0507V43.0507ZM62.0726 36.1787H72.5072C75.1456 36.1787 77.3042 38.3455 77.3042 40.9757V60.919C77.3042 63.5492 75.138 65.7154 72.5072 65.7154H62.0726V74.3149C62.0726 75.3387 61.6636 76.2449 60.9903 76.9182C60.3176 77.5904 59.4108 78.0004 58.3871 78.0004H3.68356C2.6598 78.0004 1.75364 77.5909 1.0803 76.9182C0.408133 76.2454 -0.00195312 75.3387 -0.00195312 74.3149V3.71403C-0.00195312 2.69027 0.407548 1.78352 1.0803 1.11077C1.75305 0.438019 2.68905 0.0285177 3.68356 0.0285177H40.9558C41.0435 -0.000732422 41.1313 -0.000732422 41.219 -0.000732422C41.6285 -0.000732422 42.038 0.174768 42.3305 0.437434H42.389C42.4475 0.466684 42.4768 0.495934 42.5353 0.554434L61.5747 19.8285C61.8965 20.1502 62.1305 20.589 62.1305 21.0862C62.1305 21.2325 62.1012 21.3495 62.072 21.4957V36.1781L62.0726 36.1787ZM42.8576 17.7529V5.67378L56.4577 19.4488H44.5535C44.0861 19.4488 43.6766 19.2441 43.3543 18.9521C43.0624 18.6596 42.8576 18.2209 42.8576 17.7529V17.7529Z" fill="white"/>
</g>
<defs>
<clipPath id="clip0_309_563">
<rect width="77.305" height="78" fill="white"/>
</clipPath>
</defs>
</svg>
