<?xml version="1.0" encoding="utf-8"?><svg viewBox="0 0 31 40" xmlns="http://www.w3.org/2000/svg" xmlns:xlink="http://www.w3.org/1999/xlink"><style>:root>svg{display:none}:root>svg:target{display:block}</style><svg viewBox="0 0 31 40" id="arrow-top" xmlns="http://www.w3.org/2000/svg"><path d="M17.181 40V6.431l11.402 11.347L31 15.373 16.709 1.15 15.5 0l-1.209 1.15L0 15.373l2.417 2.405L13.819 6.43V40h3.362z"/></svg><svg viewBox="0 0 20 20" id="button-arrow" xmlns="http://www.w3.org/2000/svg"><path d="M2.53 10.596h12.538l-4.238 4.238.899.898 5.312-5.312.43-.45-.43-.449-5.313-5.312-.898.898 4.238 4.239H2.53v1.25z"/></svg><svg viewBox="0 0 30 30" id="fb" xmlns="http://www.w3.org/2000/svg"><path d="M17.253 5c-2.89 0-4.586 1.487-4.586 4.876v2.981H9v3.572h3.667V25h3.666v-8.571h2.934L20 12.857h-3.667V10.48c0-1.277.428-1.909 1.658-1.909H20V5.146C19.652 5.101 18.64 5 17.253 5z"/></svg><svg viewBox="0 0 16 16.003" id="inst" xmlns="http://www.w3.org/2000/svg"><g><path d="M15.96 4.7a5.848 5.848 0 00-.372-1.941A4.1 4.1 0 0013.246.422 5.863 5.863 0 0011.305.05C10.451.009 10.176 0 8.003 0s-2.445.009-3.3.047a5.849 5.849 0 00-1.939.372 3.9 3.9 0 00-1.419.925A3.94 3.94 0 00.422 2.76 5.863 5.863 0 00.051 4.7C.01 5.558 0 5.83 0 8s.01 2.448.051 3.3a5.847 5.847 0 00.372 1.941 4.1 4.1 0 002.338 2.343 5.863 5.863 0 001.941.372C5.551 15.994 5.828 16 8 16s2.445-.009 3.3-.047a5.846 5.846 0 001.941-.372 4.093 4.093 0 002.342-2.341 5.867 5.867 0 00.368-1.94c.037-.853.047-1.125.047-3.3s-.001-2.442-.038-3.3zm-1.441 6.534a4.386 4.386 0 01-.275 1.485 2.655 2.655 0 01-1.519 1.519 4.4 4.4 0 01-1.485.275c-.844.038-1.1.047-3.232.047s-2.392-.009-3.233-.047a4.384 4.384 0 01-1.485-.275 2.463 2.463 0 01-.919-.6 2.488 2.488 0 01-.6-.919 4.4 4.4 0 01-.275-1.485c-.038-.844-.047-1.1-.047-3.233s.009-2.392.047-3.232a4.384 4.384 0 01.275-1.485 2.432 2.432 0 01.6-.919 2.484 2.484 0 01.919-.6A4.4 4.4 0 014.777 1.5c.844-.037 1.1-.047 3.232-.047s2.392.009 3.233.047a4.386 4.386 0 011.485.275 2.461 2.461 0 01.919.6 2.487 2.487 0 01.6.919 4.4 4.4 0 01.275 1.485c.037.844.047 1.1.047 3.232s-.017 2.384-.05 3.228zm0 0"/><path d="M8.003 3.892a4.111 4.111 0 104.111 4.111 4.112 4.112 0 00-4.111-4.111zm0 6.778a2.667 2.667 0 112.667-2.667 2.667 2.667 0 01-2.667 2.667zm0 0"/><path d="M13.237 3.729a.96.96 0 11-.96-.96.96.96 0 01.96.96zm0 0"/></g></svg><svg viewBox="0 0 30 30" id="wt" xmlns="http://www.w3.org/2000/svg"><path d="M15.014 4C8.957 4 4.026 8.926 4.024 14.983a10.96 10.96 0 001.467 5.491L4 26l5.756-1.36a10.981 10.981 0 005.252 1.336h.004c6.056 0 10.985-4.927 10.988-10.982a10.914 10.914 0 00-3.214-7.773A10.917 10.917 0 0015.014 4zm-.002 2.2a8.747 8.747 0 016.218 2.576 8.721 8.721 0 012.57 6.215c-.002 4.845-3.943 8.785-8.79 8.785a8.8 8.8 0 01-4.199-1.067l-.741-.404-.819.193-2.166.511.529-1.963.239-.881-.456-.79a8.777 8.777 0 01-1.173-4.392C6.226 10.14 10.168 6.2 15.012 6.2zm-3.887 3.712c-.184 0-.48.07-.733.344-.252.274-.962.938-.962 2.288 0 1.351.984 2.657 1.121 2.84.137.183 1.9 3.043 4.69 4.143 2.32.914 2.79.733 3.295.687.503-.045 1.625-.662 1.854-1.304.229-.641.23-1.193.161-1.306-.068-.114-.251-.183-.526-.32-.274-.138-1.624-.8-1.876-.892-.252-.091-.436-.137-.619.138s-.707.891-.868 1.074c-.16.184-.32.208-.595.07-.275-.138-1.16-.428-2.209-1.363-.816-.728-1.367-1.625-1.528-1.9-.16-.274-.015-.424.123-.56.123-.124.273-.321.41-.482.137-.16.184-.275.275-.457.091-.183.045-.344-.023-.482-.069-.137-.603-1.493-.847-2.036-.206-.457-.423-.467-.619-.475-.16-.007-.341-.007-.524-.007z"/></svg><svg viewBox="0 0 30 30" id="yt" xmlns="http://www.w3.org/2000/svg"><path d="M23.498 10.406c-.167-.962-.96-1.663-1.88-1.881C20.241 8.219 17.693 8 14.936 8c-2.755 0-5.344.219-6.722.525-.919.218-1.713.875-1.88 1.881A30.042 30.042 0 006 15c0 1.969.166 3.5.375 4.594.168.962.961 1.663 1.88 1.881 1.461.306 3.967.525 6.724.525s5.262-.219 6.724-.525c.919-.218 1.711-.875 1.88-1.881.166-1.094.375-2.67.417-4.594-.085-1.969-.294-3.5-.502-4.594zm-10.816 7.656v-6.125L17.776 15l-5.094 3.063z"/></svg></svg>