<svg width="72" height="85" viewBox="0 0 72 85" fill="none" xmlns="http://www.w3.org/2000/svg">
<g clip-path="url(#clip0_2_242)">
<path d="M71.2046 56.9737C71.2046 66.2944 67.9612 72.9153 62.6127 76.1293L53.6127 81.7645C48.1569 84.8071 51.658 77.8863 43.3453 73.1938C26.6556 63.5732 13.102 40.2823 13.102 21.1696C13.102 11.699 4.33824 11.6347 9.70816 8.48496L19.8895 2.67831C25.3239 -0.257159 32.7774 0.278503 41.0041 5.01382C57.6509 14.5487 71.2046 37.8396 71.2046 56.9737Z" fill="#D1EBFF"/>
<path d="M51.4643 83.3073C49.9178 83.3073 49.3163 81.9788 48.7148 80.5646C47.6656 77.6586 45.5878 75.2354 42.8724 73.7509C25.9679 64.0017 12.2208 40.3466 12.2208 21.0196C12.2605 19.4691 11.9623 17.9284 11.3466 16.5042C10.731 15.0799 9.81278 13.8059 8.65525 12.7703C7.73162 11.8275 6.95828 10.9919 7.10864 9.94199C7.259 8.89208 7.83895 8.44211 9.25661 7.62789L19.4595 1.82124C25.3449 -1.34992 33.2065 -0.535707 41.3473 4.17818C58.2518 13.9059 71.9989 37.5611 71.9989 56.9095C71.9989 66.2087 68.8414 73.2581 63.1278 76.7507L61.5813 77.6934L53.9774 82.3859C53.2338 82.9049 52.3679 83.2224 51.4643 83.3073ZM27.3855 1.58555C24.8949 1.55007 22.4355 2.13951 20.2328 3.29969L10.0729 9.08492C8.89147 9.792 8.7626 10.1348 8.74112 10.242C8.71964 10.3491 9.32111 11.1633 9.85811 11.7418C11.1553 12.9243 12.1846 14.3694 12.8772 15.9804C13.5699 17.5914 13.9101 19.3313 13.8748 21.0839C13.8748 39.918 27.2567 62.9518 43.7102 72.5082C46.687 74.1601 48.9728 76.8203 50.1541 80.0075C50.7555 81.4217 50.9917 81.7859 51.4213 81.7859C52.0338 81.6977 52.6201 81.4784 53.1398 81.1431L60.7006 76.4721L62.2472 75.5293C67.4667 72.3367 70.3449 65.7802 70.3449 57.0595C70.3449 38.2253 56.9632 15.1915 40.5097 5.6352C36.5631 3.16834 32.0391 1.77239 27.3855 1.58555Z" fill="#03336E"/>
<path d="M46.7072 87.6608C58.3988 80.8801 58.3321 59.0069 46.5582 38.8056C34.7842 18.6043 15.7616 7.72482 4.06998 14.5055C-7.62164 21.2862 -7.55494 43.1594 4.219 63.3607C15.9929 83.562 35.0156 94.4415 46.7072 87.6608Z" fill="white"/>
<path d="M44.6348 85C39.6769 84.8242 34.8532 83.346 30.6515 80.7146C13.7685 70.9869 -6.10352e-05 47.3317 -6.10352e-05 27.9833C-6.10352e-05 14.5273 6.87348 5.84949 17.4845 5.84949C22.4428 6.02323 27.2669 7.50164 31.4678 10.1348C48.3508 19.8626 62.0979 43.5178 62.0979 62.8661C62.2053 76.3007 55.2458 85 44.6348 85ZM17.4845 7.47793C7.68971 7.47793 1.61092 15.3416 1.61092 28.0048C1.61092 46.8389 15.0143 69.8727 31.4678 79.429C35.4243 81.9085 39.9655 83.3052 44.6348 83.4787C54.4081 83.4787 60.4869 75.5936 60.4869 62.9304C60.4869 44.0963 47.105 21.0625 30.6515 11.5062C26.6924 9.03511 22.1516 7.64593 17.4845 7.47793Z" fill="#03336E"/>
<path d="M25.6895 33.04C25.6895 35.7184 23.7993 36.7897 21.3936 35.4398C20.1523 34.6444 19.1164 33.5683 18.37 32.2989C17.6236 31.0294 17.1877 29.6023 17.0977 28.1333C17.0977 25.455 19.0094 24.3622 21.3936 25.7121C22.6413 26.5057 23.6817 27.5843 24.4287 28.8585C25.1758 30.1328 25.6079 31.5661 25.6895 33.04Z" fill="#03336E"/>
<path d="M42.8731 42.9392C42.8731 45.6176 40.9829 46.6889 38.5772 45.339C37.3347 44.5449 36.2979 43.4691 35.5514 42.1994C34.8048 40.9296 34.3696 39.5019 34.2812 38.0325C34.2812 35.3541 36.1715 34.2614 38.5772 35.6113C39.8249 36.4049 40.8653 37.4835 41.6123 38.7577C42.3593 40.032 42.7915 41.4653 42.8731 42.9392Z" fill="#03336E"/>
<path d="M13.9395 44.0963L17.8916 44.7605C19.7179 51.6864 24.0583 57.6884 30.0706 61.602C35.3546 64.6446 40.1876 63.7447 42.0993 59.0951L46.03 63.1019C43.4954 69.1228 37.073 70.4512 30.0706 66.4016C22.0924 61.2342 16.3389 53.2785 13.9395 44.0963Z" fill="#03336E"/>
</g>
<defs>
<clipPath id="clip0_2_242">
<rect width="72" height="85" fill="white"/>
</clipPath>
</defs>
</svg>
