<svg width="30" height="30" viewBox="0 0 30 30" fill="none" xmlns="http://www.w3.org/2000/svg">
<g>
<path d="M24.4407 3.74618C24.1258 3.76083 23.8291 3.85238 23.5655 3.95492H23.5618C23.2945 4.06112 22.0237 4.59579 20.0938 5.40511C18.1638 6.2181 15.659 7.27279 13.1724 8.32015C8.20657 10.4112 3.32498 12.4693 3.32498 12.4693L3.38358 12.4474C3.38358 12.4474 3.04666 12.5572 2.6951 12.7989C2.51566 12.9161 2.3179 13.0772 2.14578 13.3299C1.97366 13.5826 1.8345 13.9708 1.88577 14.37C1.97 15.0474 2.40945 15.4539 2.7244 15.6773C3.043 15.9044 3.34695 16.0106 3.34695 16.0106H3.35428L7.93192 17.5523C8.13699 18.2115 9.32718 22.1226 9.61282 23.0235C9.78128 23.5619 9.94608 23.8988 10.1512 24.1551C10.25 24.287 10.3672 24.3968 10.5064 24.4847C10.5613 24.5177 10.6199 24.5433 10.6785 24.5653C10.6968 24.5763 10.7151 24.5799 10.7371 24.5836L10.6895 24.5726C10.7041 24.5763 10.7151 24.5872 10.7261 24.5909C10.7627 24.6019 10.7884 24.6056 10.836 24.6129C11.5611 24.8326 12.1433 24.3822 12.1433 24.3822L12.1763 24.3565L14.8789 21.8956L19.409 25.3709L19.5115 25.4149C20.4563 25.8287 21.4121 25.598 21.9175 25.1915C22.4265 24.7813 22.6243 24.2577 22.6243 24.2577L22.6573 24.1734L26.1582 6.24008C26.2571 5.79696 26.2827 5.38314 26.1729 4.98031C26.063 4.57748 25.781 4.20028 25.4405 3.99886C25.0962 3.79379 24.7556 3.73153 24.4407 3.74618ZM24.3455 5.66879C24.3418 5.72738 24.3528 5.72006 24.3272 5.83358V5.84457L20.8592 23.5911C20.8445 23.6168 20.8189 23.6717 20.7493 23.7266C20.6761 23.7852 20.6175 23.8219 20.3135 23.701L14.7727 19.453L11.4256 22.5035L12.1287 18.0138C12.1287 18.0138 20.8079 9.92416 21.1814 9.57626C21.555 9.22836 21.4305 9.15511 21.4305 9.15511C21.4561 8.73031 20.8665 9.0306 20.8665 9.0306L9.45169 16.1021L9.44803 16.0838L3.97684 14.2418V14.2381C3.97317 14.2381 3.96585 14.2345 3.96219 14.2345C3.96585 14.2345 3.99149 14.2235 3.99149 14.2235L4.02078 14.2088L4.05008 14.1978C4.05008 14.1978 8.93533 12.1397 13.9012 10.0487C16.3877 9.00131 18.8926 7.94662 20.8189 7.13363C22.7451 6.3243 24.1697 5.73104 24.2503 5.69808C24.3272 5.66879 24.2906 5.66879 24.3455 5.66879Z" fill="white"/>
</g>
</svg>
