<svg width="40" height="40" viewBox="0 0 40 40" fill="none" xmlns="http://www.w3.org/2000/svg">
<path d="M25 15.0002H15V25.0002H25V15.0002ZM21.6667 21.6669H18.3333V18.3336H21.6667V21.6669ZM35 18.3336V15.0002H31.6667V11.6669C31.6667 9.83358 30.1667 8.33358 28.3333 8.33358H25V5.00024H21.6667V8.33358H18.3333V5.00024H15V8.33358H11.6667C9.83333 8.33358 8.33333 9.83358 8.33333 11.6669V15.0002H5V18.3336H8.33333V21.6669H5V25.0002H8.33333V28.3336C8.33333 30.1669 9.83333 31.6669 11.6667 31.6669H15V35.0002H18.3333V31.6669H21.6667V35.0002H25V31.6669H28.3333C30.1667 31.6669 31.6667 30.1669 31.6667 28.3336V25.0002H35V21.6669H31.6667V18.3336H35ZM28.3333 28.3336H11.6667V11.6669H28.3333V28.3336Z" fill="white"/>
</svg>
