<svg width="90" height="69" viewBox="0 0 90 69" fill="none" xmlns="http://www.w3.org/2000/svg">
<g clip-path="url(#clip0_520_6904)">
<path fill-rule="evenodd" clip-rule="evenodd" d="M73.3086 5.34733L75.1397 7.76432C75.6231 8.40153 75.4985 9.31706 74.8613 9.79313L72.9131 11.2726C73.2647 12.2174 73.4917 13.2135 73.5869 14.2463L75.8062 14.5465C76.5972 14.6564 77.1538 15.3888 77.044 16.1799L76.6338 19.1828C76.5239 19.9738 75.7915 20.5304 75.0005 20.4206L72.5835 20.091C72.1514 21.0285 71.6021 21.8927 70.9575 22.6691L72.3125 24.4489C72.7959 25.0861 72.6714 26.0016 72.0342 26.485L69.6172 28.3161C68.98 28.7995 68.0645 28.675 67.5811 28.0378L66.1016 26.0895C65.1567 26.4411 64.1533 26.6681 63.1279 26.7633L62.8276 28.9826C62.7178 29.7736 61.9854 30.3302 61.1943 30.2204L58.1914 29.8102C57.4004 29.7004 56.8438 28.9679 56.9536 28.1769L57.2832 25.7599C56.3457 25.3278 55.4815 24.7785 54.7051 24.1266L52.9253 25.4816C52.2881 25.965 51.3726 25.8405 50.8892 25.2033L49.0581 22.7863C48.5747 22.1491 48.6992 21.2336 49.3364 20.7575L51.2847 19.278C50.9331 18.3332 50.7061 17.3371 50.6108 16.3044L48.3916 16.0041C47.6006 15.8942 47.0439 15.1618 47.1538 14.3708L47.564 11.3678C47.6738 10.5768 48.4063 10.0202 49.1973 10.13L51.6143 10.4596C52.0464 9.52214 52.5957 8.65788 53.2476 7.88151L51.8853 6.10173C51.4019 5.46452 51.5264 4.54899 52.1636 4.06559L54.5806 2.23454C55.2178 1.75114 56.1333 1.87565 56.6167 2.51286L58.0962 4.4611C59.041 4.10954 60.0444 3.88249 61.0698 3.78727L61.3701 1.57536C61.48 0.784342 62.2124 0.227701 63.0034 0.337565L66.0064 0.747721C66.7974 0.857584 67.354 1.59001 67.2441 2.38102L66.9146 4.79801C67.8521 5.23014 68.7163 5.77946 69.4927 6.43131L71.2725 5.07633C71.917 4.58561 72.8325 4.71012 73.3086 5.34733ZM40.8037 10.3864C40.6353 10.401 40.4668 10.4157 40.2983 10.4303C36.1748 10.8258 32.1685 12.3273 28.8579 14.8981C25.0273 17.8644 22.1196 22.3029 20.999 28.1842L20.6475 30.0226L18.8164 30.3449C17.022 30.6598 15.418 31.092 14.0117 31.6413C12.6494 32.1686 11.4336 32.8205 10.3716 33.5895C9.52197 34.2048 8.78955 34.8932 8.16699 35.6403C6.24072 37.9474 5.34717 40.8405 5.36914 43.7702C5.39111 46.7438 6.35791 49.7467 8.14502 52.215C8.81152 53.1305 9.58057 53.9728 10.4595 54.7052L10.4814 54.7199L8.51856 59.9421C7.99854 59.5978 7.49317 59.2243 7.02442 58.8288C5.79395 57.8034 4.71729 56.6388 3.80176 55.3717C1.34814 52.0026 0.0297849 47.8864 0.00048804 43.7848C-0.0288088 39.6393 1.26025 35.5158 4.04346 32.1759C4.94434 31.092 6.00635 30.0959 7.22217 29.217C8.63574 28.1916 10.2544 27.3273 12.0855 26.6169C13.3452 26.1261 14.6929 25.716 16.1138 25.3864C17.7251 18.985 21.1602 14.0558 25.5767 10.6354C29.7075 7.43473 34.6807 5.56706 39.8003 5.07633C41.3604 4.92253 42.9424 4.90055 44.5098 5.01042C44.1655 5.19352 43.8433 5.3986 43.5357 5.63298L43.5137 5.64762C42.1001 6.72428 41.082 8.35758 40.8184 10.2619L40.8037 10.3864ZM32.1172 64.3146H23.4307L22.1856 68.4015H14.356L23.6943 43.5944H32.0879L41.3897 68.4015H33.3623L32.1172 64.3146ZM30.4912 58.9386L27.7813 50.0251L25.064 58.9386H30.4912ZM43.7847 43.5944H56.5361C59.312 43.5944 61.3994 44.2536 62.7764 45.5719C64.1533 46.8903 64.8491 48.78 64.8491 51.2189C64.8491 53.7238 64.0874 55.6867 62.5859 57.1003C61.0772 58.5138 58.77 59.217 55.6792 59.217H51.4751V68.4015H43.7847V43.5944ZM51.4751 54.1926H53.3648C54.8516 54.1926 55.8989 53.9362 56.4995 53.4162C57.1001 52.9035 57.4004 52.2443 57.4004 51.4386C57.4004 50.6623 57.1367 50.0031 56.6167 49.4611C56.0967 48.9191 55.1152 48.6481 53.6724 48.6481H51.4751V54.1926ZM67.9473 43.5944H75.6377V68.4015H67.9473V43.5944ZM82.0391 23.5627C82.8228 24.1706 83.5698 24.8591 84.2876 25.6281C85.0713 26.4704 85.8111 27.4225 86.5069 28.4845C88.8506 32.0881 90.0518 36.9001 90.0005 41.6095C89.9492 46.2311 88.7041 50.8307 86.1553 54.2145C85.54 55.0275 84.8589 55.7892 84.1191 56.4997V45.8356C84.4341 44.466 84.5952 43.0231 84.6099 41.5656C84.6538 37.8522 83.7456 34.1242 81.9805 31.4142C81.4751 30.6305 80.9185 29.9274 80.3325 29.2975C79.8565 28.7848 79.3511 28.3161 78.8311 27.9059C78.8823 27.6862 78.9263 27.4665 78.9556 27.2467C79.0142 26.7926 79.0361 26.3312 79.0069 25.8698C79.6074 25.6354 80.1641 25.3205 80.6621 24.9396L80.6841 24.925C81.1968 24.5295 81.6509 24.0754 82.0391 23.5627ZM62.9082 9.37565C66.1675 9.82243 68.4526 12.8254 68.0059 16.092C67.5591 19.3512 64.5562 21.6364 61.2896 21.1896C58.0303 20.7428 55.7451 17.7399 56.1919 14.4733C56.6387 11.2067 59.6489 8.92887 62.9082 9.37565Z" fill="white"/>
</g>
<defs>
<clipPath id="clip0_520_6904">
<rect width="90" height="68.0859" fill="white" transform="translate(0 0.31543)"/>
</clipPath>
</defs>
</svg>
