<svg width="72" height="78" viewBox="0 0 72 78" fill="none" xmlns="http://www.w3.org/2000/svg">
<g clip-path="url(#clip0_520_6868)">
<path fill-rule="evenodd" clip-rule="evenodd" d="M15.8511 36.1816H56.373V23.7021H43.4632C42.1079 23.7021 40.2217 22.9595 39.3286 22.0518C38.4354 21.144 37.892 19.5063 37.892 18.1353V4.84961H5.08983C4.97741 4.84961 4.88997 4.90674 4.83376 4.96387C4.74007 5.02734 4.71509 5.10986 4.71509 5.23047V72.8013C4.71509 72.8901 4.7713 73.0044 4.82751 73.0615C4.88372 73.1504 5.00239 73.1758 5.08358 73.1758C19.3112 73.1758 41.3646 73.1758 55.992 73.1758C56.1044 73.1758 56.0982 73.1187 56.1606 73.0615C56.248 73.0044 56.3667 72.8838 56.3667 72.8013V65.7173H15.8511C13.2654 65.7173 11.1294 63.5591 11.1294 60.9185V40.9741C11.1294 38.3398 13.2529 36.1816 15.8511 36.1816ZM28.6547 52.2729L32.5832 53.479C32.3209 54.5962 31.9025 55.5356 31.3341 56.2847C30.7657 57.0337 30.0662 57.605 29.2231 57.9858C28.3799 58.3667 27.3119 58.5571 26.0128 58.5571C24.4326 58.5571 23.146 58.3223 22.1467 57.8589C21.1474 57.3892 20.2855 56.5703 19.561 55.4023C18.8365 54.2344 18.468 52.73 18.468 50.9019C18.468 48.4644 19.1051 46.5918 20.3792 45.2842C21.6596 43.9766 23.4646 43.3228 25.8004 43.3228C27.6242 43.3228 29.0669 43.6973 30.11 44.4463C31.153 45.1953 31.9337 46.3506 32.4396 47.9058L28.4923 48.7944C28.3549 48.3501 28.2113 48.02 28.0551 47.8169C27.7991 47.4678 27.493 47.2012 27.1308 47.0171C26.7685 46.8267 26.3626 46.7378 25.9129 46.7378C24.8948 46.7378 24.1141 47.1504 23.5707 47.9819C23.1648 48.5977 22.9587 49.5625 22.9587 50.8765C22.9587 52.5078 23.2023 53.625 23.6894 54.2344C24.1766 54.8374 24.8636 55.1421 25.7505 55.1421C26.6061 55.1421 27.2557 54.9009 27.6929 54.4058C28.1426 53.9106 28.4549 53.2061 28.6547 52.2729ZM34.0197 53.4282L38.273 53.1553C38.3667 53.8535 38.5541 54.3931 38.8351 54.7549C39.2973 55.3516 39.9531 55.6499 40.815 55.6499C41.4521 55.6499 41.9455 55.4976 42.289 55.1929C42.6388 54.8882 42.8074 54.5327 42.8074 54.1328C42.8074 53.752 42.645 53.4092 42.3202 53.1045C41.9954 52.7998 41.2272 52.5205 40.0343 52.2476C38.0669 51.8032 36.6741 51.2065 35.8372 50.4575C34.9941 49.7148 34.5694 48.769 34.5694 47.6138C34.5694 46.8584 34.788 46.1475 35.2189 45.4746C35.6499 44.8018 36.2994 44.2686 37.1676 43.8877C38.0357 43.5005 39.2224 43.3101 40.7338 43.3101C42.5888 43.3101 44.0003 43.6592 44.9684 44.3638C45.9427 45.062 46.5173 46.1792 46.7047 47.709L42.4889 47.9629C42.3764 47.2964 42.1391 46.8076 41.7831 46.5029C41.4208 46.1982 40.9274 46.0459 40.2966 46.0459C39.7782 46.0459 39.3848 46.1602 39.1162 46.3823C38.8539 46.6045 38.7227 46.8774 38.7227 47.2012C38.7227 47.436 38.8289 47.6455 39.0413 47.8296C39.2474 48.0264 39.747 48.2041 40.534 48.3691C42.4951 48.8008 43.8941 49.2324 44.7373 49.6704C45.5867 50.1084 46.205 50.6543 46.586 51.3018C46.9732 51.9492 47.1606 52.6792 47.1606 53.4854C47.1606 54.4312 46.9045 55.3008 46.3924 56.1006C45.874 56.894 45.162 57.5034 44.2376 57.916C43.3133 58.3286 42.1516 58.5317 40.7526 58.5317C38.2855 58.5317 36.5805 58.0493 35.6311 57.0845C34.6818 56.1387 34.1447 54.9136 34.0197 53.4282ZM48.035 43.564H52.7193L55.9857 54.1709L59.2085 43.564H63.7553L58.3716 58.3032H53.5187L48.035 43.564ZM61.0759 36.1816H67.2779C69.8761 36.1816 71.9996 38.3462 71.9996 40.9805V60.9248C71.9996 63.5591 69.8698 65.7236 67.2779 65.7236H61.0759V74.3247C61.0759 75.3467 60.67 76.2544 60.0142 76.9272C59.3521 77.6001 58.459 78.0063 57.4535 78.0063C39.0662 78.0063 22.1093 78.0063 3.62834 78.0063C2.62279 78.0063 1.72966 77.6001 1.06762 76.9272C0.405582 76.2544 0.00585938 75.3467 0.00585938 74.3247V3.71338C0.00585938 2.69141 0.411828 1.78369 1.06762 1.11084C1.72966 0.437988 2.64777 0.0317383 3.62834 0.0317383H40.3029C40.3841 0 40.4715 0 40.5589 0C40.9587 0 41.3646 0.177734 41.6519 0.437988H41.7081C41.7644 0.469727 41.7956 0.495117 41.8518 0.552246L60.5825 19.8237C60.9011 20.1475 61.1322 20.5854 61.1322 21.0806C61.1322 21.2266 61.1009 21.3408 61.0759 21.4932V36.1816ZM42.1703 17.7544V5.6748L55.5548 19.4492H43.8379C43.3757 19.4492 42.976 19.2461 42.6575 18.9541C42.3702 18.6621 42.1703 18.2241 42.1703 17.7544Z" fill="white"/>
</g>
<defs>
<clipPath id="clip0_520_6868">
<rect width="72" height="78" fill="white"/>
</clipPath>
</defs>
</svg>
