<svg width="204" height="31" viewBox="0 0 204 31" fill="none" xmlns="http://www.w3.org/2000/svg">
<path d="M7.08984 1.734L38.3523 3.41508L39.9523 0.613281L7.08984 1.734Z" fill="#00A7E5"/>
<path d="M4.72656 5.68175L36.0875 7.36283L37.6875 4.56104L4.72656 5.68175Z" fill="#00A7E5"/>
<path d="M2.36328 9.65547L33.798 11.3365L35.4227 8.50928L2.36328 9.65547Z" fill="#00A7E5"/>
<path d="M0.0273438 13.6036L31.5359 15.2847L33.1606 12.4829L0.0273438 13.6036Z" fill="#00A7E5"/>
<path d="M0 17.3732L33.1579 19.1052L31.5824 16.2524L0 17.3732Z" fill="#00A7E5"/>
<path d="M2.24219 21.3209L35.3754 23.0784L33.8 20.2002L2.24219 21.3209Z" fill="#00A7E5"/>
<path d="M4.43359 25.2945L37.6161 27.052L35.9914 24.1738L4.43359 25.2945Z" fill="#00A7E5"/>
<path d="M6.625 29.2425L39.8075 31L38.1582 28.0454L6.625 29.2425Z" fill="#00A7E5"/>
<path d="M38.8959 15.7684L44.7546 5.29984L42.1699 0.638672H42.1453L33.7266 15.7684L42.1453 30.8726L44.7546 26.2369L38.8959 15.7684Z" fill="#00A7E5"/>
<path d="M50.6335 15.7939L48.0489 11.1582L45.0703 16.4052L47.655 21.0919L50.6335 15.7939Z" fill="#00A7E5"/>
<path d="M64.9144 11.1582H48.0524L50.6371 15.7939H62.3543L56.4219 26.237H44.7538L42.1445 30.8727H59.0066L67.4745 15.7939L64.9144 11.1582Z" fill="#095092"/>
<path d="M59.0546 0.638672H42.168L44.7527 5.29984H61.6393L59.0546 0.638672Z" fill="#095092"/>
<path d="M91.2273 9.29883C91.5227 9.29883 91.6704 9.45165 91.6704 9.75731V11.7695C91.6704 12.0752 91.5227 12.2535 91.2273 12.2535H81.2578C80.7409 12.2535 80.3224 12.3044 79.9778 12.3808C79.6331 12.4827 79.3624 12.61 79.1654 12.8393C78.9685 13.0431 78.8208 13.3487 78.747 13.7053C78.6485 14.0619 78.6239 14.5204 78.6239 15.0553V18.0099C78.6239 18.5702 78.6731 19.0287 78.747 19.3853C78.8454 19.7419 78.9685 20.0475 79.1654 20.2513C79.3624 20.4551 79.6331 20.6079 79.9778 20.7098C80.3224 20.8117 80.7409 20.8371 81.2578 20.8371H87.8303C88.1749 20.8371 88.4211 20.7353 88.5934 20.557C88.7411 20.3787 88.8396 20.0475 88.8396 19.5891V17.9335C88.8396 17.7552 88.7657 17.6533 88.5934 17.6533H82.7594C82.464 17.6533 82.3163 17.5005 82.3163 17.1693V15.6411C82.3163 15.3354 82.464 15.1571 82.7594 15.1571H91.055C91.4489 15.1571 91.6458 15.3609 91.6458 15.7684V20.557C91.6458 21.7032 91.4243 22.5182 91.0058 23.0022C90.5873 23.4861 89.9719 23.7154 89.1842 23.7154H81.1347C80.1255 23.7154 79.2639 23.6135 78.5747 23.4352C77.8608 23.2314 77.2946 22.9258 76.8515 22.4928C76.4084 22.0597 76.0884 21.4994 75.8669 20.8117C75.67 20.124 75.5469 19.2834 75.5469 18.2901V14.7496C75.5469 13.7562 75.6453 12.9157 75.8669 12.228C76.0638 11.5403 76.4084 10.9799 76.8515 10.5469C77.2946 10.1139 77.8608 9.80825 78.5747 9.60448C79.2885 9.40071 80.1255 9.29883 81.1347 9.29883H91.2273Z" fill="black"/>
<path d="M104.298 12.4316C105.184 12.4316 105.947 12.5081 106.538 12.6609C107.154 12.8137 107.646 13.0684 107.991 13.3995C108.36 13.7307 108.606 14.1637 108.778 14.6985C108.926 15.2334 109.024 15.8702 109.024 16.6089V19.5635C109.024 20.3021 108.951 20.9389 108.778 21.4738C108.631 22.0087 108.36 22.4417 107.991 22.7728C107.621 23.1039 107.129 23.3587 106.538 23.5115C105.923 23.6643 105.184 23.7407 104.298 23.7407H98.6611C97.7503 23.7407 97.0118 23.6643 96.3964 23.5115C95.781 23.3587 95.3133 23.1294 94.944 22.7728C94.5748 22.4417 94.3286 22.0087 94.1563 21.4738C94.0086 20.9389 93.9102 20.3021 93.9102 19.5635V16.6089C93.9102 15.8702 93.984 15.2334 94.1563 14.6985C94.304 14.1637 94.5748 13.7307 94.944 13.3995C95.3133 13.0684 95.781 12.8137 96.3964 12.6609C97.0118 12.5081 97.7503 12.4316 98.6611 12.4316H104.298ZM96.7656 19.0541C96.7656 19.4871 96.7902 19.8691 96.8641 20.1493C96.9379 20.4295 97.0364 20.6587 97.2087 20.837C97.381 21.0153 97.6026 21.1427 97.8734 21.2191C98.1441 21.2955 98.5134 21.321 98.9318 21.321H104.003C104.446 21.321 104.79 21.2955 105.086 21.2191C105.357 21.1427 105.578 21.0153 105.751 20.837C105.923 20.6587 106.021 20.4295 106.095 20.1493C106.169 19.8691 106.194 19.4871 106.194 19.0541V17.0928C106.194 16.6598 106.169 16.3032 106.095 16.023C106.021 15.7429 105.923 15.5136 105.751 15.3099C105.578 15.1316 105.357 15.0042 105.086 14.9278C104.815 14.8514 104.446 14.8259 104.003 14.8259H98.9318C98.5134 14.8259 98.1441 14.8514 97.8734 14.9278C97.6026 15.0042 97.381 15.1316 97.2087 15.3099C97.0364 15.4881 96.9379 15.7174 96.8641 16.023C96.7902 16.3032 96.7656 16.6598 96.7656 17.0928V19.0541Z" fill="black"/>
<path d="M120.222 12.432C121.108 12.432 121.871 12.5084 122.462 12.6612C123.077 12.814 123.569 13.0687 123.914 13.3999C124.283 13.731 124.529 14.164 124.702 14.6989C124.849 15.2338 124.948 15.8705 124.948 16.6092V22.0854C124.948 22.4166 124.923 22.6967 124.874 22.9005C124.825 23.1043 124.751 23.2826 124.628 23.4099C124.505 23.5373 124.357 23.6137 124.185 23.6646C123.988 23.7156 123.766 23.741 123.471 23.741H113.994C113.403 23.741 112.911 23.6901 112.541 23.5627C112.148 23.4354 111.828 23.2826 111.606 23.0279C111.36 22.7986 111.188 22.493 111.089 22.1109C110.991 21.7288 110.941 21.2958 110.941 20.7864V19.36C110.941 18.927 110.991 18.545 111.089 18.2139C111.188 17.8827 111.36 17.6026 111.606 17.3478C111.852 17.1186 112.172 16.9403 112.541 16.813C112.935 16.6856 113.428 16.6347 113.994 16.6347H122.092V16.6601C122.092 16.329 122.068 16.0488 121.994 15.8196C121.92 15.5904 121.822 15.3866 121.649 15.2592C121.502 15.1064 121.28 15.0045 120.985 14.9281C120.714 14.8517 120.345 14.8262 119.902 14.8262H111.581C111.335 14.8262 111.212 14.6989 111.212 14.4442V12.7121C111.212 12.4574 111.335 12.3301 111.581 12.3301H120.222V12.432ZM121.526 21.4741C121.748 21.4741 121.896 21.4232 121.969 21.3213C122.068 21.2194 122.092 21.0411 122.092 20.7864V19.2072H114.806C114.388 19.2072 114.117 19.2836 113.945 19.4619C113.772 19.6402 113.698 19.8949 113.698 20.2261V20.4298C113.698 20.8119 113.772 21.0666 113.945 21.2449C114.117 21.4232 114.388 21.4996 114.806 21.4996H121.526V21.4741Z" fill="black"/>
<path d="M129.501 8.27979C129.796 8.27979 129.944 8.43261 129.944 8.73826V23.2821C129.944 23.5878 129.796 23.7406 129.501 23.7406H127.556C127.261 23.7406 127.113 23.5878 127.113 23.2821V8.73826C127.113 8.43261 127.261 8.27979 127.556 8.27979H129.501Z" fill="black"/>
<path d="M143.807 9.29883C145.333 9.29883 146.416 9.65542 147.081 10.3686C147.745 11.0818 148.065 12.1516 148.065 13.5525V15.0807C148.065 16.4816 147.745 17.5514 147.081 18.2646C146.416 18.9778 145.333 19.3344 143.807 19.3344H135.56V23.2823C135.56 23.588 135.413 23.7408 135.117 23.7408H132.976C132.68 23.7408 132.508 23.588 132.508 23.2823V9.9356C132.508 9.52807 132.705 9.3243 133.099 9.3243H143.807V9.29883ZM135.56 16.609H143.191C143.88 16.609 144.348 16.4561 144.619 16.1505C144.89 15.8448 145.037 15.3864 145.037 14.7751V13.9855C145.037 13.3742 144.89 12.9157 144.619 12.61C144.348 12.3044 143.856 12.1516 143.191 12.1516H135.831C135.659 12.1516 135.56 12.228 135.56 12.4063V16.609Z" fill="#00A7E5"/>
<path d="M160.052 12.4316C160.299 12.4316 160.422 12.559 160.422 12.8137V14.5457C160.422 14.8004 160.299 14.9278 160.052 14.9278H154.76C154.341 14.9278 153.972 14.9787 153.701 15.0297C153.431 15.1061 153.209 15.2334 153.037 15.4117C152.865 15.59 152.766 15.8193 152.692 16.0994C152.618 16.4051 152.594 16.7617 152.594 17.1692V23.2822C152.594 23.5879 152.446 23.7407 152.151 23.7407H150.206C149.911 23.7407 149.738 23.5879 149.738 23.2822V16.6089C149.738 15.8702 149.812 15.2334 149.984 14.6985C150.132 14.1637 150.403 13.7307 150.772 13.3995C151.141 13.0684 151.609 12.8137 152.225 12.6609C152.84 12.5081 153.578 12.4316 154.489 12.4316H160.052Z" fill="#00A7E5"/>
<path d="M172.216 12.4316C173.102 12.4316 173.865 12.5081 174.456 12.6609C175.072 12.8137 175.564 13.0684 175.909 13.3995C176.278 13.7307 176.524 14.1637 176.696 14.6985C176.844 15.2334 176.942 15.8702 176.942 16.6089V19.5635C176.942 20.3021 176.869 20.9389 176.696 21.4738C176.549 22.0087 176.278 22.4417 175.909 22.7728C175.539 23.1039 175.047 23.3587 174.456 23.5115C173.841 23.6643 173.102 23.7407 172.216 23.7407H166.579C165.668 23.7407 164.93 23.6643 164.314 23.5115C163.699 23.3587 163.231 23.1294 162.862 22.7728C162.493 22.4417 162.247 22.0087 162.074 21.4738C161.927 20.9389 161.828 20.3021 161.828 19.5635V16.6089C161.828 15.8702 161.902 15.2334 162.074 14.6985C162.222 14.1637 162.493 13.7307 162.862 13.3995C163.231 13.0684 163.724 12.8137 164.314 12.6609C164.93 12.5081 165.668 12.4316 166.579 12.4316H172.216ZM164.684 19.0541C164.684 19.4871 164.708 19.8691 164.782 20.1493C164.856 20.4295 164.954 20.6587 165.127 20.837C165.299 21.0153 165.521 21.1427 165.791 21.2191C166.062 21.2955 166.431 21.321 166.85 21.321H171.921C172.364 21.321 172.708 21.2955 173.004 21.2191C173.275 21.1427 173.496 21.0153 173.668 20.837C173.841 20.6587 173.939 20.4295 174.013 20.1493C174.087 19.8691 174.112 19.4871 174.112 19.0541V17.0928C174.112 16.6598 174.087 16.3032 174.013 16.023C173.939 15.7429 173.841 15.5136 173.668 15.3099C173.496 15.1316 173.275 15.0042 173.004 14.9278C172.733 14.8514 172.364 14.8259 171.921 14.8259H166.85C166.431 14.8259 166.062 14.8514 165.791 14.9278C165.521 15.0042 165.299 15.1316 165.127 15.3099C164.954 15.4881 164.856 15.7174 164.782 16.023C164.708 16.3032 164.684 16.6598 164.684 17.0928V19.0541Z" fill="#00A7E5"/>
<path d="M180.633 12.4318V11.9988C180.633 11.2601 180.682 10.6488 180.805 10.1394C180.928 9.62997 181.125 9.19696 181.445 8.86584C181.741 8.53472 182.159 8.28001 182.676 8.12719C183.193 7.97436 183.858 7.89795 184.645 7.89795H187.058C187.304 7.89795 187.427 8.0253 187.427 8.28001V9.96109C187.427 10.2158 187.304 10.3432 187.058 10.3432H185.138C184.498 10.3432 184.055 10.4705 183.809 10.7507C183.587 11.0309 183.464 11.4384 183.464 12.0242V12.4572H186.959C187.206 12.4572 187.329 12.5846 187.329 12.8393V14.5204C187.329 14.7751 187.206 14.9024 186.959 14.9024H183.464V23.2824C183.464 23.588 183.316 23.7408 183.021 23.7408H181.076C180.781 23.7408 180.633 23.588 180.633 23.2824V14.8515H178.713C178.467 14.8515 178.344 14.7241 178.344 14.4694V12.7884C178.344 12.5337 178.467 12.4063 178.713 12.4063H180.633V12.4318Z" fill="#00A7E5"/>
<path d="M191.737 8.229C192.032 8.229 192.18 8.38183 192.18 8.68748V10.6487C192.18 10.9544 192.032 11.1327 191.737 11.1327H189.792C189.497 11.1327 189.324 10.9799 189.324 10.6487V8.68748C189.324 8.38183 189.472 8.229 189.792 8.229H191.737ZM191.737 12.4317C192.032 12.4317 192.18 12.5845 192.18 12.9156V23.2823C192.18 23.5879 192.032 23.7408 191.737 23.7408H189.792C189.497 23.7408 189.349 23.5879 189.349 23.2823V12.8902C189.349 12.5845 189.497 12.4062 189.792 12.4062H191.737V12.4317Z" fill="#00A7E5"/>
<path d="M196.339 12.4319V9.70652C196.339 9.40087 196.487 9.24805 196.782 9.24805H198.751C199.047 9.24805 199.194 9.40087 199.194 9.70652V12.4319H202.69C202.936 12.4319 203.059 12.5593 203.059 12.814V14.495C203.059 14.7498 202.936 14.8771 202.69 14.8771H199.194V19.6656C199.194 20.2515 199.317 20.659 199.539 20.9392C199.761 21.2194 200.204 21.3467 200.868 21.3467H202.788C203.034 21.3467 203.158 21.4741 203.158 21.7288V23.4099C203.158 23.6646 203.034 23.7919 202.788 23.7919H200.376C199.588 23.7919 198.924 23.7155 198.407 23.5627C197.89 23.4099 197.471 23.1806 197.151 22.8495C196.831 22.5184 196.634 22.0854 196.511 21.576C196.388 21.0665 196.339 20.4298 196.339 19.6911V14.8516H194.443C194.197 14.8516 194.074 14.7243 194.074 14.4696V12.7885C194.074 12.5338 194.197 12.4064 194.443 12.4064H196.339V12.4319Z" fill="#00A7E5"/>
</svg>
