<svg width="340" height="340" viewBox="0 0 340 340" fill="none" xmlns="http://www.w3.org/2000/svg">
<path d="M65.9306 256.24L120.618 224.458L117.808 222.836L65.9122 252.995L47.797 242.535L6.7998 266.359L9.55992 267.956L47.7657 245.751L65.9306 256.24Z" fill="#BDDAEC"/>
<path d="M131.105 230.515L128.295 228.892L66.8273 264.612L51.7735 255.921L20.3486 274.183L23.1584 275.805L51.8408 259.137L66.8946 267.828L131.105 230.515Z" fill="#BDDAEC"/>
<path d="M138.13 234.571L45.2373 288.555L47.9974 290.148L140.89 236.163L138.13 234.571Z" fill="#BDDAEC"/>
<path d="M89.2579 277.562L150.725 241.842L147.915 240.219L83.705 277.535L98.7596 286.226L70.0771 302.894L72.8869 304.516L104.312 286.255L89.2579 277.562Z" fill="#BDDAEC"/>
<path d="M161.162 247.869L158.403 246.276L103.716 278.055L121.881 288.544L83.6758 310.746L86.4352 312.34L127.432 288.515L109.268 278.025L161.162 247.869Z" fill="#BDDAEC"/>
<path d="M274.069 178.997L219.382 210.779L222.192 212.401L274.087 182.242L292.202 192.702L333.199 168.877L330.439 167.281L292.234 189.487L274.069 178.997Z" fill="#BDDAEC"/>
<path d="M208.894 204.723L211.703 206.345L273.171 170.625L288.225 179.315L319.65 161.055L316.84 159.432L288.158 176.1L273.104 167.41L208.894 204.723Z" fill="#BDDAEC"/>
<path d="M201.869 200.667L294.761 146.682L292.001 145.09L199.108 199.073L201.869 200.667Z" fill="#BDDAEC"/>
<path d="M250.741 157.676L189.273 193.395L192.083 195.017L256.294 157.702L241.239 149.011L269.921 132.343L267.112 130.721L235.687 148.982L250.741 157.676Z" fill="#BDDAEC"/>
<path d="M178.836 187.368L181.596 188.961L236.283 157.183L218.117 146.693L256.323 124.49L253.563 122.898L212.567 146.722L230.731 157.213L178.836 187.368Z" fill="#BDDAEC"/>
<path d="M274.069 256.24L219.382 224.458L222.192 222.836L274.087 252.995L292.202 242.535L333.199 266.359L330.439 267.956L292.234 245.751L274.069 256.24Z" fill="#BDDAEC"/>
<path d="M208.894 230.515L211.703 228.892L273.171 264.612L288.225 255.921L319.65 274.183L316.84 275.805L288.158 259.137L273.104 267.828L208.894 230.515Z" fill="#BDDAEC"/>
<path d="M201.869 234.571L294.761 288.555L292.001 290.148L199.108 236.163L201.869 234.571Z" fill="#BDDAEC"/>
<path d="M250.741 277.562L189.273 241.842L192.083 240.219L256.294 277.535L241.239 286.226L269.921 302.894L267.112 304.516L235.687 286.255L250.741 277.562Z" fill="#BDDAEC"/>
<path d="M178.836 247.869L181.596 246.276L236.283 278.055L218.117 288.544L256.323 310.746L253.563 312.34L212.567 288.515L230.731 278.025L178.836 247.869Z" fill="#BDDAEC"/>
<path d="M65.9306 178.997L120.618 210.779L117.808 212.401L65.9122 182.242L47.797 192.702L6.7998 168.877L9.55992 167.281L47.7657 189.487L65.9306 178.997Z" fill="#BDDAEC"/>
<path d="M131.105 204.723L128.295 206.345L66.8273 170.625L51.7735 179.315L20.3486 161.055L23.1584 159.432L51.8408 176.1L66.8946 167.41L131.105 204.723Z" fill="#BDDAEC"/>
<path d="M138.13 200.667L45.2373 146.682L47.9974 145.09L140.89 199.073L138.13 200.667Z" fill="#BDDAEC"/>
<path d="M89.2579 157.676L150.725 193.395L147.915 195.017L83.705 157.702L98.7596 149.011L70.0771 132.343L72.8869 130.721L104.312 148.982L89.2579 157.676Z" fill="#BDDAEC"/>
<path d="M161.162 187.368L158.403 188.961L103.716 157.183L121.881 146.693L83.6758 124.49L86.4352 122.898L127.432 146.722L109.268 157.213L161.162 187.368Z" fill="#BDDAEC"/>
<path d="M261.509 241.007L178.626 289.177C174.045 291.823 166.601 291.823 162.021 289.177L78.4929 241.007C73.9838 238.358 73.9117 234.063 78.4929 231.343L161.377 183.173C165.958 180.524 173.401 180.524 177.982 183.173L261.438 231.413C266.09 234.062 266.09 238.358 261.509 241.007Z" fill="#7BC5FF"/>
<path d="M261.457 231.396L177.978 183.199C173.401 180.557 165.957 180.536 161.373 183.199L78.4733 231.375C73.8888 234.042 73.95 238.351 78.5271 240.993L162.007 289.191C166.622 291.854 174.027 291.854 178.611 289.191L261.512 241.014C266.096 238.351 266.072 234.06 261.457 231.396ZM259.718 237.922L176.813 286.094C173.363 288.107 167.275 288.1 163.794 286.091L80.3161 237.893C78.9949 237.132 78.642 236.425 78.642 236.16C78.642 235.905 78.9813 235.219 80.274 234.469L163.172 186.295C164.899 185.289 167.279 184.793 169.665 184.793C172.052 184.793 174.446 185.292 176.187 186.299L259.668 234.497C260.905 235.209 261.353 235.923 261.353 236.227C261.353 236.524 260.92 237.223 259.718 237.922Z" fill="#037AB4"/>
<path d="M264.932 188.059L264.873 223.327C264.873 225.089 263.756 226.793 261.465 228.145L178.549 276.272C173.966 278.975 166.561 278.975 161.977 276.272L78.4741 228.087C76.1825 226.736 75.0068 225.032 75.0068 223.267L75.0653 187.942C75.0653 189.704 76.2404 191.465 78.532 192.819L162.036 241.004C166.62 243.649 174.024 243.649 178.608 241.004L261.523 192.819C263.816 191.465 264.932 189.763 264.932 188.059Z" fill="#D1EBFF" stroke="#037AB4" stroke-width="3"/>
<path d="M261.457 183.198C266.072 185.862 266.096 190.152 261.511 192.816L178.611 240.992C174.026 243.656 166.621 243.656 162.007 240.992L78.5271 192.795C73.95 190.152 73.8888 185.841 78.4733 183.177L161.374 135.001C165.958 132.337 173.401 132.358 177.978 135.001L261.457 183.198Z" fill="white" stroke="#037AB4" stroke-width="3"/>
<path d="M199.537 244.412L199.585 257.192L204.25 254.5L204.202 241.718L199.537 244.412Z" fill="#7BC5FF"/>
<path d="M190.473 249.645L190.52 262.426L195.208 259.719L195.161 246.938L190.473 249.645Z" fill="#7BC5FF"/>
<path d="M181.432 254.865L181.479 267.645L186.143 264.952L186.096 252.172L181.432 254.865Z" fill="#7BC5FF"/>
<path d="M264.932 135.384L264.873 170.652C264.873 172.414 263.756 174.118 261.465 175.47L178.549 223.597C173.966 226.3 166.561 226.3 161.977 223.597L78.4741 175.413C76.1825 174.062 75.0068 172.357 75.0068 170.592L75.0653 135.267C75.0653 137.029 76.2404 138.791 78.532 140.144L162.036 188.329C166.62 190.974 174.024 190.974 178.608 188.329L261.523 140.144C263.816 138.789 264.932 137.088 264.932 135.384Z" fill="#D1EBFF" stroke="#037AB4" stroke-width="3"/>
<path d="M261.457 130.523C266.072 133.187 266.096 137.476 261.511 140.14L178.611 188.316C174.026 190.981 166.621 190.981 162.007 188.316L78.5271 140.119C73.95 137.477 73.8888 133.166 78.4733 130.501L161.374 82.3255C165.958 79.6612 173.401 79.6823 177.978 82.3255L261.457 130.523Z" fill="white" stroke="#037AB4" stroke-width="3"/>
<path d="M199.537 191.736L199.585 204.517L204.25 201.824L204.202 189.043L199.537 191.736Z" fill="#7BC5FF"/>
<path d="M190.473 196.97L190.52 209.751L195.208 207.044L195.161 194.262L190.473 196.97Z" fill="#7BC5FF"/>
<path d="M181.432 202.189L181.479 214.97L186.143 212.277L186.096 199.496L181.432 202.189Z" fill="#7BC5FF"/>
<path d="M264.932 82.7083L264.873 117.976C264.873 119.738 263.756 121.442 261.465 122.794L178.549 170.922C173.966 173.625 166.561 173.625 161.977 170.922L78.4741 122.737C76.1825 121.386 75.0068 119.681 75.0068 117.917L75.0653 82.5913C75.0653 84.3532 76.2404 86.1151 78.532 87.469L162.036 135.654C166.62 138.299 174.024 138.299 178.608 135.654L261.523 87.469C263.816 86.1144 264.932 84.4124 264.932 82.7083Z" fill="#D1EBFF" stroke="#037AB4" stroke-width="3"/>
<path d="M261.457 77.8477C266.072 80.512 266.096 84.8014 261.511 87.4656L178.611 135.642C174.026 138.306 166.621 138.307 162.007 135.642L78.5271 87.4446C73.95 84.8021 73.8888 80.4909 78.4733 77.8266L161.374 29.6507C165.958 26.9864 173.401 27.0075 177.978 29.6507L261.457 77.8477Z" fill="white" stroke="#037AB4" stroke-width="3"/>
<path d="M113.372 83.4889L169.601 50.8142L226.618 83.7323L170.385 116.407L113.372 83.4889Z" fill="white"/>
<path d="M199.537 139.061L199.585 151.842L204.25 149.149L204.202 136.368L199.537 139.061Z" fill="#7BC5FF"/>
<path d="M190.473 144.295L190.52 157.075L195.208 154.368L195.161 141.588L190.473 144.295Z" fill="#7BC5FF"/>
<path d="M181.432 149.514L181.479 162.295L186.143 159.602L186.096 146.821L181.432 149.514Z" fill="#7BC5FF"/>
<path d="M238.281 213.407C236.653 214.345 235.347 216.631 235.353 218.499C235.358 220.348 236.672 221.118 238.3 220.179C239.928 219.241 241.234 216.955 241.228 215.107C241.223 213.238 239.909 212.464 238.281 213.407Z" fill="#96D696"/>
<path d="M247.015 208.364C245.387 209.302 244.062 211.6 244.066 213.469C244.072 215.317 245.406 216.075 247.034 215.136C248.641 214.21 249.967 211.912 249.962 210.064C249.957 208.195 248.623 207.433 247.015 208.364Z" fill="#ED5D71"/>
<path d="M255.73 203.332C254.102 204.27 252.796 206.556 252.802 208.425C252.807 210.273 254.121 211.043 255.749 210.104C257.377 209.166 258.683 206.88 258.678 205.032C258.672 203.163 257.357 202.39 255.73 203.332Z" fill="#FFDD94"/>
<path d="M238.281 160.731C236.653 161.67 235.347 163.955 235.353 165.824C235.358 167.673 236.672 168.443 238.3 167.504C239.928 166.565 241.234 164.28 241.228 162.431C241.223 160.563 239.909 159.788 238.281 160.731Z" fill="#96D696"/>
<path d="M247.015 155.688C245.387 156.626 244.062 158.924 244.066 160.793C244.072 162.642 245.406 163.4 247.034 162.461C248.641 161.535 249.967 159.237 249.962 157.389C249.957 155.519 248.623 154.758 247.015 155.688Z" fill="#ED5D71"/>
<path d="M255.73 150.657C254.102 151.596 252.796 153.881 252.802 155.75C252.807 157.598 254.121 158.368 255.749 157.429C257.377 156.491 258.683 154.205 258.678 152.357C258.672 150.488 257.357 149.714 255.73 150.657Z" fill="#FFDD94"/>
<path d="M238.281 108.056C236.653 108.994 235.347 111.28 235.353 113.148C235.358 114.997 236.672 115.767 238.3 114.828C239.928 113.89 241.234 111.604 241.228 109.756C241.223 107.887 239.909 107.113 238.281 108.056Z" fill="#96D696"/>
<path d="M247.015 103.012C245.387 103.951 244.062 106.249 244.066 108.118C244.072 109.966 245.406 110.724 247.034 109.785C248.641 108.859 249.967 106.561 249.962 104.713C249.957 102.844 248.623 102.082 247.015 103.012Z" fill="#ED5D71"/>
<path d="M255.73 97.9817C254.102 98.9201 252.796 101.206 252.802 103.074C252.807 104.922 254.121 105.693 255.749 104.754C257.377 103.815 258.683 101.53 258.678 99.6817C258.672 97.8131 257.357 97.0386 255.73 97.9817Z" fill="#FFDD94"/>
</svg>
