<svg width="100" height="80" viewBox="0 0 100 80" fill="none" xmlns="http://www.w3.org/2000/svg">
<g clip-path="url(#clip0_2_127)">
<path d="M44.9012 50.3058C43.3202 50.2715 41.7695 49.8678 40.3739 49.1273C39.8701 48.8889 39.4255 48.5425 39.0719 48.1128C38.7184 47.6831 38.4646 47.1809 38.3288 46.6421V47.9231C38.2789 48.6163 38.4496 49.3076 38.8167 49.8987C39.1839 50.4897 39.7288 50.9505 40.3739 51.2154C41.5908 51.8777 42.9385 52.2669 44.3224 52.3555L45.6987 51.574C46.4704 51.1385 45.9944 50.3571 44.9012 50.3058Z" fill="#D1EBFF"/>
<path d="M44.3738 52.8551C42.9173 52.7514 41.5004 52.3363 40.2195 51.6381C39.4759 51.3261 38.8529 50.7839 38.4429 50.0917C38.0328 49.3995 37.8576 48.5942 37.943 47.795V46.5908C37.9423 46.4701 37.9867 46.3535 38.0675 46.2636C38.1483 46.1736 38.2598 46.1168 38.3803 46.1041C38.5016 46.0954 38.6219 46.1308 38.7189 46.2038C38.8159 46.2769 38.883 46.3826 38.9076 46.5012C39.0312 46.9694 39.2565 47.4048 39.5676 47.7767C39.8788 48.1486 40.2682 48.4478 40.7083 48.6533C42.039 49.3643 43.52 49.7507 45.0298 49.7806C45.3698 49.7541 45.7095 49.8368 45.9988 50.0166C46.2882 50.1964 46.512 50.4639 46.6375 50.7798C46.6855 51.0121 46.6532 51.2537 46.5457 51.4654C46.4383 51.6771 46.2621 51.8463 46.0458 51.9456L44.6696 52.7398C44.5853 52.8076 44.482 52.8478 44.3738 52.8551ZM38.8433 48.4996C38.9366 49.0011 39.1503 49.4726 39.4661 49.8741C39.7818 50.2756 40.1903 50.5951 40.6568 50.8054C41.7745 51.4076 43.0048 51.7739 44.2709 51.8815L45.5571 51.1641C45.66 51.1641 45.6986 51.0616 45.6986 51.0488C45.6986 51.036 45.4799 50.8055 44.9912 50.7926C43.3253 50.748 41.6941 50.3089 40.2324 49.5116C39.6995 49.2557 39.2127 48.9138 38.7918 48.4996H38.8433Z" fill="#037AB4"/>
<path d="M60.0511 26.4788C60.7419 26.9004 61.2819 27.5279 61.5946 28.2722C61.8466 27.6512 61.8694 26.9613 61.6589 26.3251C61.856 25.6161 61.8041 24.8613 61.5118 24.1857C61.2194 23.51 60.704 22.9542 60.0511 22.6101C58.4164 21.7047 56.5836 21.2125 54.7134 21.1768C52.8433 21.141 50.9928 21.5628 49.3244 22.4052C48.8032 22.6485 48.3433 23.0048 47.9784 23.4481C47.6134 23.8915 47.3526 24.4105 47.2152 24.9672C47.138 25.454 46.1219 25.6718 45.5174 25.3259L33.6074 18.4724V22.3155L45.5174 29.169C46.1219 29.5148 47.138 29.2971 47.2152 28.8103C47.3526 28.2536 47.6134 27.7345 47.9784 27.2912C48.3433 26.8479 48.8032 26.4915 49.3244 26.2482C50.9949 25.4098 52.8465 24.9924 54.7166 25.0326C56.5868 25.0728 58.4185 25.5694 60.0511 26.4788Z" fill="#D1EBFF"/>
<path d="M46.2253 29.8736C45.8932 29.8813 45.565 29.8018 45.2736 29.643L33.3636 22.7511C33.2882 22.7093 33.2257 22.6479 33.1826 22.5734C33.1396 22.499 33.1177 22.4143 33.1192 22.3283V18.4853C33.1186 18.4013 33.141 18.3187 33.1841 18.2464C33.2271 18.1742 33.2892 18.115 33.3636 18.0753C33.4374 18.0313 33.5219 18.0081 33.608 18.0081C33.694 18.0081 33.7785 18.0313 33.8523 18.0753L45.7623 24.9288C45.9061 24.9998 46.0649 25.035 46.2253 25.0313C46.4137 25.0428 46.6002 24.9884 46.7526 24.8776C46.905 24.2532 47.1939 23.6701 47.5985 23.1696C48.0031 22.6692 48.5135 22.2639 49.0935 21.9824C50.8367 21.0987 52.7712 20.6552 54.7269 20.6909C56.6826 20.7266 58.5995 21.2406 60.309 22.1874C61.0315 22.5749 61.605 23.1896 61.9401 23.9358C62.2751 24.682 62.3528 25.5176 62.161 26.3123C62.3543 27.015 62.3137 27.7611 62.0453 28.4388C62.0075 28.5265 61.9447 28.6011 61.8646 28.6535C61.7846 28.7059 61.6909 28.7337 61.5951 28.7335C61.4994 28.7337 61.4057 28.7059 61.3256 28.6535C61.2456 28.6011 61.1827 28.5265 61.1449 28.4388C60.8718 27.7816 60.3938 27.2292 59.7816 26.8631C58.2212 26.0117 56.4766 25.5505 54.6977 25.5193C52.9188 25.4881 51.1589 25.8877 49.5694 26.6838C49.1117 26.8993 48.7066 27.2114 48.3823 27.5985C48.058 27.9857 47.8224 28.4386 47.6916 28.9256C47.5997 29.2311 47.4018 29.4941 47.1332 29.6677C46.8646 29.8414 46.5429 29.9143 46.2253 29.8736ZM34.0838 22.0977L45.7623 28.8103C45.9061 28.8813 46.0649 28.9165 46.2253 28.9128C46.4137 28.9243 46.6002 28.8699 46.7526 28.7591C46.905 28.1347 47.1939 27.5516 47.5985 27.0512C48.0031 26.5507 48.5135 26.1454 49.0935 25.864C50.7593 24.9843 52.6232 24.5433 54.5083 24.5829C56.5446 24.5319 58.5544 25.0512 60.309 26.0817C60.6724 26.3174 61.005 26.5971 61.2992 26.9144C61.277 26.7708 61.2427 26.6294 61.1964 26.4917C61.1708 26.3951 61.1708 26.2936 61.1964 26.197C61.363 25.5862 61.3133 24.9368 61.0557 24.3582C60.798 23.7796 60.348 23.3071 59.7816 23.0201C58.2212 22.1686 56.4766 21.7075 54.6977 21.6762C52.9188 21.645 51.1589 22.0446 49.5694 22.8408C49.1117 23.0562 48.7066 23.3683 48.3823 23.7555C48.058 24.1426 47.8224 24.5955 47.6916 25.0825C47.5972 25.3856 47.3983 25.6458 47.13 25.8169C46.8617 25.988 46.5412 26.0591 46.2253 26.0177C45.8932 26.0254 45.565 25.9459 45.2736 25.7871L34.0838 19.382V22.0977Z" fill="#037AB4"/>
<path d="M92.5919 33.7934C91.0917 34.4985 89.4534 34.8642 87.7945 34.8642C86.1356 34.8642 84.4973 34.4985 82.9971 33.7934C82.4282 33.5576 81.9257 33.187 81.5334 32.7136C81.1411 32.2403 80.8709 31.6787 80.7463 31.0776C80.6691 30.4499 79.3186 30.1681 78.5469 30.6164L66.5855 37.4955L54.6627 30.6164C54.5726 30.569 54.4971 30.4982 54.444 30.4115V33.883C54.3026 34.0752 54.354 34.3058 54.6627 34.4851L66.5727 41.3386L78.5341 34.4595C79.3058 34.0112 80.6563 34.293 80.7334 34.9335C80.8642 35.5321 81.1366 36.0908 81.5281 36.5632C81.9196 37.0356 82.4189 37.408 82.9842 37.6493C84.4852 38.3518 86.1232 38.716 87.7817 38.716C89.4401 38.716 91.0781 38.3518 92.5791 37.6493C93.1644 37.4116 93.6781 37.0271 94.0703 36.5333C94.4624 36.0395 94.7196 35.4531 94.817 34.831V30.9879C94.7187 31.6063 94.4625 32.1892 94.0729 32.6805C93.6832 33.1718 93.1732 33.555 92.5919 33.7934Z" fill="#D1EBFF"/>
<path d="M66.5859 41.8126C66.4999 41.8157 66.4148 41.7934 66.3415 41.7486L54.4315 34.9079C54.3056 34.8428 54.1948 34.7522 54.1062 34.6419C54.0176 34.5316 53.9531 34.404 53.917 34.2674C53.8662 34.1003 53.8662 33.922 53.917 33.755V30.4371C53.9159 30.3329 53.9494 30.2313 54.0121 30.1479C54.0749 30.0645 54.1636 30.0041 54.2643 29.976C54.3643 29.944 54.4723 29.9469 54.5705 29.9841C54.6686 30.0214 54.7511 30.0908 54.8045 30.1809L66.5344 36.9319L78.2515 30.1937C78.6036 30.0079 78.9977 29.9153 79.3961 29.9247C80.1807 29.9247 81.081 30.2706 81.171 31.0264C81.2902 31.5496 81.5351 32.0362 81.8845 32.4445C82.234 32.8528 82.6776 33.1706 83.1775 33.3707C84.6066 34.0373 86.1653 34.3829 87.7434 34.3829C89.3214 34.3829 90.8803 34.0373 92.3093 33.3707C92.8195 33.169 93.2694 32.8407 93.6161 32.4169C93.9628 31.9931 94.1948 31.4879 94.29 30.9495C94.2974 30.8428 94.3407 30.7416 94.4131 30.6625C94.4855 30.5835 94.5827 30.5311 94.6887 30.514C94.7597 30.4967 94.8337 30.4955 94.9052 30.5105C94.9767 30.5255 95.0438 30.5562 95.1018 30.6005C95.1598 30.6447 95.2071 30.7013 95.2402 30.7661C95.2733 30.831 95.2915 30.9024 95.2933 30.9752V34.8182C95.3124 34.8896 95.3124 34.9647 95.2933 35.036C95.1551 35.702 94.8571 36.3248 94.4249 36.8513C93.9926 37.3777 93.4389 37.7922 92.8109 38.0592C91.2618 38.8256 89.5499 39.2079 87.8206 39.1737C86.0694 39.2067 84.3358 38.82 82.7659 38.0464C82.1176 37.7785 81.5447 37.3574 81.0965 36.8195C80.6483 36.2816 80.3384 35.6431 80.1935 34.9591C80.0837 34.8628 79.955 34.7902 79.8155 34.7461C79.676 34.702 79.5288 34.6873 79.3832 34.7029C79.1548 34.6952 78.9284 34.7483 78.7274 34.8567L66.7659 41.7229C66.7142 41.7672 66.6524 41.798 66.5859 41.8126ZM54.9074 34.0496L66.5859 40.7878L78.3029 34.0496C78.6545 33.861 79.0483 33.764 79.4476 33.7678C80.2322 33.7678 81.1325 34.1137 81.2225 34.8695C81.3429 35.3937 81.588 35.8815 81.9371 36.2917C82.2863 36.7019 82.7294 37.0225 83.229 37.2265C84.6569 37.9229 86.231 38.2698 87.8206 38.2386C89.3923 38.2706 90.9489 37.928 92.3608 37.2394C92.8709 37.0377 93.3208 36.7094 93.6675 36.2856C94.0142 35.8617 94.2462 35.3566 94.3414 34.8182C94.3414 34.8182 94.3414 34.7029 94.3414 34.6645V32.9992C93.8909 33.4762 93.3598 33.8707 92.7723 34.1649C91.203 34.9075 89.4873 35.2928 87.7498 35.2928C86.0123 35.2928 84.2967 34.9075 82.7273 34.1649C82.0794 33.9001 81.5063 33.4815 81.058 32.9457C80.6096 32.4098 80.2997 31.7729 80.155 31.0905C80.0452 30.9941 79.9164 30.9215 79.7769 30.8774C79.6374 30.8333 79.4902 30.8186 79.3447 30.8342C79.1162 30.8265 78.8898 30.8796 78.6887 30.988L66.7273 37.8543C66.6535 37.8983 66.569 37.9215 66.4829 37.9215C66.3969 37.9215 66.3124 37.8983 66.2386 37.8543L54.8302 31.2954V33.8575C54.8647 33.9177 54.8906 33.9824 54.9074 34.0496Z" fill="#037AB4"/>
<path d="M99.3559 18.6261L87.4201 25.4924C86.6484 25.928 87.1244 26.7094 88.2176 26.7734L87.3558 27.273C86.5841 27.7086 87.06 28.554 88.1532 28.554H88.732L99.3044 22.482V18.6389L99.3559 18.6261Z" fill="#D1EBFF"/>
<path d="M88.7986 29.0408H88.2455C87.9037 29.0682 87.5621 28.986 87.2705 28.8062C86.979 28.6264 86.7527 28.3586 86.6249 28.0416C86.5783 27.8287 86.6019 27.6064 86.6923 27.4079C86.7827 27.2094 86.935 27.0453 87.1265 26.9399C86.8819 26.7879 86.703 26.5503 86.6249 26.2738C86.5769 26.0415 86.6093 25.7999 86.7168 25.5882C86.8242 25.3766 87.0003 25.2073 87.2166 25.1081L99.1523 18.2418H99.3067C99.3786 18.2288 99.4525 18.2311 99.5235 18.2488C99.5944 18.2665 99.6609 18.299 99.7182 18.3443C99.7758 18.3854 99.8231 18.4391 99.8566 18.5013C99.89 18.5635 99.9086 18.6325 99.9111 18.703V22.546C99.9133 22.6134 99.9006 22.6805 99.8739 22.7424C99.8472 22.8044 99.8073 22.8598 99.7568 22.9047C99.7077 22.9551 99.6452 22.9907 99.5767 23.0072L89.0816 29.0408C88.9902 29.0741 88.8899 29.0741 88.7986 29.0408ZM98.9079 19.4332L87.6667 25.8383C87.6101 25.8634 87.5612 25.9032 87.5253 25.9536C87.5253 25.9536 87.7439 26.197 88.2326 26.2098C88.3424 26.2149 88.4479 26.2531 88.5353 26.3195C88.6226 26.3859 88.6875 26.4772 88.7214 26.5813C88.7503 26.6797 88.7472 26.7848 88.7125 26.8815C88.6779 26.9781 88.6135 27.0613 88.5285 27.1193L87.6667 27.6061C87.6101 27.6313 87.5612 27.6711 87.5253 27.7214C87.5253 27.7214 87.7439 27.9648 88.2326 27.9776H88.6957L98.9079 22.0977V19.4332Z" fill="#037AB4"/>
<path d="M55.615 33.3195C57.0642 33.2171 58.4693 32.7784 59.7179 32.0384C60.2729 31.7687 60.7393 31.3471 61.0627 30.8231C61.3861 30.2991 61.5531 29.6943 61.5442 29.0793V25.2362C61.5476 25.8484 61.3782 26.4493 61.0553 26.9703C60.7324 27.4912 60.2689 27.9113 59.7179 28.1825C58.2825 28.9986 56.6631 29.4393 55.0105 29.4636C53.9173 29.4636 53.4285 30.2706 54.2131 30.7446L55.0877 31.257H55.0105C53.9173 31.2955 55.615 33.3195 55.615 33.3195Z" fill="#D1EBFF"/>
<path d="M55.613 33.7934C55.542 33.7969 55.4713 33.7837 55.4064 33.7547C55.3416 33.7258 55.2846 33.682 55.24 33.6269C54.7513 33.0376 53.9539 31.9744 54.1982 31.2954L53.9667 31.1673C53.7489 31.0699 53.5713 30.901 53.4636 30.6888C53.3559 30.4766 53.3246 30.234 53.3751 30.0016C53.4988 29.6845 53.7223 29.4158 54.0121 29.2357C54.3019 29.0556 54.6424 28.9737 54.9828 29.0024C56.553 28.9844 58.0929 28.5701 59.4586 27.7982C59.9371 27.5777 60.3439 27.2279 60.6327 26.7886C60.9215 26.3492 61.0806 25.838 61.0921 25.313C61.0794 25.202 61.1076 25.0901 61.1715 24.9982C61.2353 24.9063 61.3305 24.8406 61.4394 24.8134C61.5153 24.7908 61.5954 24.786 61.6735 24.7994C61.7516 24.8127 61.8255 24.8438 61.8895 24.8903C61.9504 24.932 62.0007 24.9873 62.0365 25.0518C62.0722 25.1163 62.0924 25.1882 62.0953 25.2618V29.1048C62.1075 29.1683 62.1075 29.2335 62.0953 29.297C62.0563 29.9583 61.8463 30.5983 61.4857 31.155C61.1251 31.7116 60.6263 32.1659 60.0374 32.4739C58.7153 33.2271 57.2363 33.6655 55.7159 33.755L55.613 33.7934ZM55.15 31.731C55.3289 32.119 55.5534 32.4845 55.8188 32.8198C57.1018 32.7036 58.3439 32.3101 59.4586 31.6669C59.9441 31.4371 60.3535 31.0738 60.6384 30.6198C60.9232 30.1659 61.0717 29.6402 61.0663 29.1048C61.0413 29.0213 61.0413 28.9322 61.0663 28.8487V27.6317C60.7322 27.9918 60.3516 28.3063 59.9345 28.5668C58.4267 29.4299 56.7217 29.893 54.9828 29.9119C54.8534 29.9029 54.7236 29.921 54.6017 29.9652C54.4799 30.0093 54.3687 30.0785 54.2754 30.1681C54.3158 30.2141 54.3636 30.2531 54.4169 30.2834L55.2914 30.783C55.3843 30.8341 55.4566 30.9155 55.4964 31.0134C55.5362 31.1114 55.541 31.22 55.5101 31.321C55.4972 31.4156 55.4559 31.5042 55.3917 31.5751C55.3274 31.6459 55.2432 31.6958 55.15 31.7181V31.731Z" fill="#037AB4"/>
<path d="M54.4045 44.5284C53.8 44.8743 52.7839 44.6437 52.6939 44.1441C52.5236 43.5264 52.2121 42.9563 51.7836 42.4784C51.3552 42.0006 50.8215 41.628 50.2244 41.3899C48.6943 40.7277 47.0439 40.386 45.3756 40.386C43.7073 40.386 42.0568 40.7277 40.5267 41.3899C38.4045 42.4403 37.6328 43.952 38.1601 45.4636C37.9268 46.0919 37.9499 46.7863 38.2244 47.3979C38.7234 46.4434 39.5361 45.6883 40.5267 45.2586C42.0568 44.5964 43.7073 44.2547 45.3756 44.2547C47.0439 44.2547 48.6943 44.5964 50.2244 45.2586C50.8215 45.4968 51.3552 45.8693 51.7836 46.3471C52.2121 46.8249 52.5236 47.3951 52.6939 48.0128C52.7839 48.5124 53.8 48.743 54.4045 48.3971L66.2373 41.5821V37.739L54.4045 44.5284Z" fill="#D1EBFF"/>
<path d="M53.7107 48.9864C53.3921 49.0241 53.0701 48.9518 52.7986 48.7816C52.5271 48.6114 52.3224 48.3536 52.2186 48.0512C52.0516 47.5103 51.7667 47.0128 51.3843 46.5943C51.0019 46.1758 50.5314 45.8465 50.0065 45.6301C48.5345 44.9598 46.9302 44.6271 45.3119 44.6565C43.7384 44.6194 42.1771 44.9392 40.746 45.5916C39.8509 45.969 39.1146 46.6435 38.6624 47.5004C38.6236 47.5837 38.562 47.6543 38.4846 47.7041C38.4072 47.754 38.3172 47.7811 38.2251 47.7822C38.1329 47.7811 38.043 47.754 37.9656 47.7041C37.8883 47.6543 37.8266 47.5837 37.7878 47.5004C37.4799 46.8284 37.4295 46.0674 37.6464 45.3611C37.1319 43.6573 38.1351 41.9408 40.3087 40.8647C41.8767 40.1477 43.587 39.793 45.3119 39.827C47.087 39.788 48.8472 40.1562 50.4566 40.9031C51.1201 41.1793 51.7111 41.6036 52.1839 42.1434C52.6566 42.6831 52.9985 43.3238 53.1833 44.016C53.3455 44.115 53.5335 44.164 53.7235 44.1569C53.8799 44.1611 54.0347 44.1259 54.1737 44.0544L66.0193 37.2522C66.0907 37.2079 66.1732 37.1844 66.2573 37.1844C66.3414 37.1844 66.4238 37.2079 66.4952 37.2522C66.5696 37.2919 66.6316 37.351 66.6747 37.4233C66.7177 37.4955 66.7402 37.5781 66.7396 37.6621V41.5052C66.7412 41.5911 66.7192 41.6758 66.6762 41.7503C66.6331 41.8247 66.5706 41.8861 66.4952 41.9279L54.6624 48.7558C54.3712 48.9151 54.0428 48.9947 53.7107 48.9864ZM45.3119 43.6957C47.087 43.6567 48.8472 44.0249 50.4566 44.7718C51.1201 45.048 51.7111 45.4723 52.1839 46.0121C52.6566 46.5518 52.9985 47.1925 53.1833 47.8847C53.3455 47.9837 53.5335 48.0327 53.7235 48.0256C53.8799 48.0299 54.0347 47.9946 54.1737 47.9231L65.7492 41.2618V38.4948L54.6367 44.8999C54.3493 45.0571 54.0256 45.1366 53.6978 45.1305C53.3792 45.1682 53.0573 45.0959 52.7857 44.9257C52.5142 44.7555 52.3096 44.4977 52.2059 44.1953C52.0447 43.6516 51.7618 43.1512 51.3787 42.7319C50.9955 42.3126 50.522 41.9852 49.9936 41.7742C48.5216 41.104 46.9173 40.7712 45.299 40.8006C43.7256 40.7635 42.1642 41.0833 40.7331 41.7358C38.9325 42.6325 38.1608 43.9263 38.5981 45.2073C38.6364 45.3151 38.6364 45.4327 38.5981 45.5404C38.5352 45.7093 38.4962 45.8861 38.4823 46.0657C39.0025 45.5311 39.6174 45.0968 40.2959 44.7846C41.8636 44.0481 43.5787 43.6758 45.3119 43.6957Z" fill="#037AB4"/>
<path d="M12.514 44.5285L0.488281 37.611V41.454L11.125 47.5773C11.3263 47.5646 11.5281 47.5646 11.7294 47.5773C12.8227 47.5773 13.2986 46.7575 12.5268 46.2963L11.6523 45.7967H11.7294C12.8098 45.6942 13.2857 44.9128 12.514 44.5285Z" fill="#D1EBFF"/>
<path d="M11.1136 48.0129C11.0322 48.0116 10.9525 47.9895 10.8821 47.9488L0.245385 41.8383C0.165963 41.7913 0.101121 41.7234 0.0580008 41.642C0.0148802 41.5606 -0.00484704 41.469 0.00100849 41.3772V37.5341C0.00038469 37.4501 0.0227829 37.3675 0.065851 37.2952C0.108919 37.223 0.171023 37.1638 0.245385 37.1241C0.316786 37.0799 0.399212 37.0564 0.483324 37.0564C0.567435 37.0564 0.649861 37.0799 0.721263 37.1241L12.7598 44.0417C12.9761 44.1409 13.1523 44.3102 13.2597 44.5218C13.3672 44.7335 13.3995 44.9751 13.3515 45.2074C13.2734 45.4839 13.0946 45.7215 12.8499 45.8735C13.0414 45.9789 13.1938 46.143 13.2841 46.3415C13.3745 46.54 13.3981 46.7623 13.3515 46.9752C13.2267 47.2935 13.0007 47.5622 12.708 47.7403C12.4153 47.9185 12.0721 47.9962 11.7309 47.9616H11.165L11.1136 48.0129ZM0.965639 41.1465L11.255 47.0393H11.7309C12.1939 47.0393 12.4126 46.8471 12.4383 46.7831C12.399 46.7392 12.3508 46.7042 12.2968 46.6806L11.4222 46.181C11.3331 46.1256 11.2631 46.0443 11.2217 45.9482C11.1804 45.852 11.1695 45.7454 11.1907 45.643C11.214 45.5413 11.2712 45.4505 11.3529 45.3853C11.4347 45.3202 11.5362 45.2846 11.6409 45.2843C12.1939 45.2843 12.4126 45.0793 12.4383 45.0153C12.399 44.9714 12.3508 44.9364 12.2968 44.9128L0.991387 38.4052L0.965639 41.1465Z" fill="#037AB4"/>
<path d="M44.9012 48.538C43.3202 48.5037 41.7695 48.1 40.3739 47.3595C39.8701 47.1211 39.4255 46.7747 39.0719 46.345C38.7184 45.9154 38.4646 45.4131 38.3288 44.8743V46.1553C38.2789 46.8485 38.4496 47.5398 38.8167 48.1309C39.1839 48.7219 39.7288 49.1826 40.3739 49.4475C41.5908 50.1099 42.9385 50.4991 44.3224 50.5877L45.6987 49.8062C46.4704 49.3707 45.9944 48.5893 44.9012 48.538Z" fill="#D1EBFF"/>
<path d="M44.3738 51.0872C42.9181 50.9797 41.502 50.5649 40.2195 49.8703C39.4759 49.5583 38.8529 49.016 38.4429 48.3239C38.0328 47.6317 37.8576 46.8264 37.943 46.0272V44.8231C37.9423 44.7024 37.9867 44.5857 38.0675 44.4958C38.1483 44.4058 38.2598 44.349 38.3803 44.3363C38.5016 44.3275 38.6219 44.363 38.7189 44.436C38.8159 44.5091 38.883 44.6148 38.9076 44.7334C39.0312 45.2015 39.2565 45.637 39.5676 46.0088C39.8788 46.3807 40.2682 46.68 40.7083 46.8855C42.0382 47.5983 43.5198 47.9848 45.0298 48.0128C45.3698 47.9862 45.7095 48.0689 45.9988 48.2488C46.2882 48.4286 46.512 48.6961 46.6375 49.012C46.6855 49.2443 46.6532 49.4859 46.5457 49.6976C46.4383 49.9092 46.2621 50.0785 46.0458 50.1777L44.6696 50.972C44.5853 51.0398 44.482 51.08 44.3738 51.0872ZM38.8433 46.7318C38.9366 47.2332 39.1503 47.7048 39.4661 48.1063C39.7818 48.5078 40.1903 48.8273 40.6568 49.0376C41.7745 49.6398 43.0048 50.0061 44.2709 50.1137L45.5571 49.3963C45.6857 49.3322 45.6986 49.281 45.6986 49.281C45.6986 49.281 45.4799 49.0376 44.9912 49.0248C43.3253 48.9802 41.6941 48.5411 40.2324 47.7438C39.6995 47.4879 39.2127 47.1459 38.7918 46.7318H38.8433Z" fill="#037AB4"/>
<path d="M45.5817 49.3323C45.5707 49.4132 45.5388 49.49 45.4893 49.5551C45.4397 49.6202 45.3741 49.6714 45.2987 49.7038L33.466 56.5188L21.4402 49.6013C20.6685 49.1529 19.3052 49.4219 19.2409 50.0496C19.127 50.6052 18.8837 51.1265 18.5308 51.5714C18.1779 52.0164 17.7251 52.3727 17.2088 52.6117C15.6293 53.4123 13.8782 53.8189 12.1061 53.7966C10.3339 53.7743 8.59374 53.3237 7.03508 52.4836C6.57617 52.2426 6.17452 51.9063 5.85724 51.4974C5.53995 51.0886 5.31442 50.6167 5.19586 50.1137V53.1882C5.14349 53.8392 5.29145 54.4907 5.62 55.0559C5.94856 55.6211 6.44213 56.0734 7.03508 56.3523C8.59372 57.1913 10.333 57.6422 12.1046 57.6667C13.8761 57.6913 15.6273 57.2887 17.2088 56.4932C17.7239 56.2525 18.1757 55.8957 18.5284 55.451C18.8811 55.0063 19.1251 54.486 19.2409 53.9311C19.2409 53.3034 20.6685 53.0472 21.4402 53.4828L33.466 60.4003L45.2987 53.5853C45.5431 53.4572 45.6203 53.2778 45.5817 53.1241V49.3323Z" fill="#D1EBFF"/>
<path d="M33.4675 60.8616C33.3813 60.8663 33.2958 60.8439 33.2231 60.7975L21.2231 53.8928C21.0126 53.785 20.778 53.7322 20.5414 53.7391C20.3969 53.724 20.2508 53.7377 20.1117 53.7795C19.9726 53.8213 19.8432 53.8903 19.7312 53.9825C19.6156 54.6206 19.3486 55.222 18.9527 55.7366C18.5567 56.2513 18.0432 56.6644 17.4546 56.9416C15.7993 57.7817 13.9636 58.2078 12.106 58.1832C10.2484 58.1587 8.42463 57.6842 6.79228 56.8007C6.11823 56.4715 5.56047 55.9462 5.19297 55.2942C4.82546 54.6422 4.66552 53.8944 4.73436 53.1498V50.1522C4.72929 50.09 4.73656 50.0273 4.75579 49.9679C4.77502 49.9085 4.80585 49.8534 4.84646 49.8058C4.88707 49.7582 4.93667 49.719 4.99247 49.6906C5.04827 49.6621 5.1092 49.6448 5.17169 49.6398C5.23419 49.6347 5.29704 49.642 5.35672 49.6612C5.4164 49.6803 5.47168 49.711 5.51945 49.7514C5.56723 49.7919 5.60657 49.8413 5.63517 49.8969C5.66376 49.9525 5.68105 50.0131 5.68611 50.0753C5.79682 50.5094 5.99849 50.9153 6.27778 51.2664C6.55707 51.6174 6.90769 51.9056 7.30671 52.1122C8.79003 52.9056 10.4435 53.3315 12.127 53.3538C13.8106 53.3761 15.4748 52.9941 16.9788 52.2403C17.4333 52.0319 17.8328 51.7208 18.1454 51.3316C18.458 50.9424 18.6751 50.4859 18.7794 49.9985C18.7794 49.3579 19.5639 48.9096 20.5414 48.9096C20.9456 48.8989 21.3453 48.9962 21.699 49.1914L33.4804 55.9553L45.0559 49.2939C45.0608 49.2316 45.078 49.1709 45.1065 49.1152C45.135 49.0595 45.1743 49.01 45.2221 48.9695C45.27 48.929 45.3253 48.8984 45.3851 48.8793C45.4449 48.8602 45.5078 48.8531 45.5704 48.8584C45.6978 48.8583 45.8202 48.9078 45.9115 48.9964C46.0028 49.0849 46.0558 49.2055 46.0591 49.3323V53.1114C46.0788 53.2957 46.0381 53.4813 45.943 53.6407C45.848 53.8 45.7038 53.9244 45.5318 53.9953L33.699 60.7975C33.6324 60.8362 33.5574 60.8582 33.4804 60.8616H33.4675ZM20.5286 52.7783C20.9328 52.7676 21.3325 52.8649 21.6861 53.0601L33.4675 59.8368L45.0431 53.1626V50.3828L33.6604 56.9288C33.5938 56.9675 33.5188 56.9895 33.4418 56.9929C33.3473 56.9996 33.253 56.9772 33.1716 56.9288L21.2231 50.0241C21.0126 49.9164 20.778 49.8635 20.5414 49.8704C20.0527 49.8704 19.7569 50.0369 19.7312 50.1137C19.6156 50.7518 19.3486 51.3532 18.9527 51.8679C18.5567 52.3826 18.0432 52.7958 17.4546 53.073C15.8758 53.9257 14.1059 54.3664 12.3099 54.354C10.395 54.4008 8.50391 53.9222 6.8437 52.9704C6.44603 52.7241 6.079 52.4317 5.75041 52.0994V53.2651C5.70265 53.833 5.83133 54.4017 6.11889 54.8943C6.40646 55.387 6.83902 55.7797 7.35812 56.0193C8.84145 56.8127 10.4949 57.2386 12.1784 57.2609C13.862 57.2832 15.5262 56.9013 17.0302 56.1474C17.4848 55.9391 17.8843 55.6279 18.1969 55.2387C18.5095 54.8495 18.7266 54.3931 18.8308 53.9056C18.8308 53.2267 19.5511 52.7783 20.5286 52.7783Z" fill="#037AB4"/>
<path d="M77.8141 45.6685C76.1254 45.7177 74.4778 46.1985 73.0296 47.0649C72.3736 47.3948 71.8547 47.9434 71.5632 48.6153C71.2718 49.2871 71.2263 50.0396 71.4346 50.7414C71.1963 51.3643 71.1963 52.0528 71.4346 52.6757C71.7645 51.9556 72.3017 51.3492 72.9781 50.9335C74.4263 50.0672 76.074 49.5864 77.7627 49.5372C78.3286 49.5372 78.6887 49.2426 78.6887 48.9607V45.1177C78.6887 45.3995 78.3414 45.6301 77.8141 45.6685Z" fill="#D1EBFF"/>
<path d="M71.4843 53.1625C71.3882 53.1644 71.2937 53.1373 71.2133 53.0847C71.133 53.0321 71.0705 52.9565 71.0341 52.8679C70.7488 52.1944 70.7035 51.444 70.9055 50.7414C70.7183 49.9554 70.7972 49.1298 71.1298 48.3931C71.4624 47.6563 72.0301 47.0498 72.7447 46.6677C74.2666 45.7538 75.9976 45.2423 77.7736 45.1817C77.8612 45.1894 77.9495 45.1797 78.0334 45.1533C78.1173 45.127 78.1951 45.0844 78.2624 45.028C78.2777 44.9023 78.3426 44.7878 78.4427 44.7097C78.5428 44.6316 78.67 44.5964 78.7962 44.6116C78.9224 44.6269 79.0373 44.6915 79.1157 44.7912C79.1941 44.8909 79.2296 45.0176 79.2142 45.1433V48.9864C79.2142 49.5756 78.6226 49.9983 77.8251 50.0368C76.2235 50.0764 74.6577 50.5169 73.272 51.3178C72.6846 51.681 72.2155 52.2061 71.9216 52.8294C71.8896 52.9195 71.8304 52.9974 71.7521 53.0525C71.6737 53.1075 71.5802 53.137 71.4843 53.1369V53.1625ZM78.2496 46.0784C78.1107 46.1142 77.9684 46.1357 77.8251 46.1425C76.2226 46.176 74.6553 46.6169 73.272 47.4235C72.7114 47.699 72.2646 48.1606 72.0088 48.7287C71.7529 49.2969 71.7039 49.9361 71.8701 50.5364C71.9089 50.6352 71.9089 50.745 71.8701 50.8438C71.8163 50.997 71.7817 51.1562 71.7672 51.3178C72.0539 50.9977 72.3828 50.7176 72.7447 50.4851C74.2691 49.5769 75.9986 49.0658 77.7736 48.9991C77.9501 49.0106 78.1245 48.9557 78.2624 48.8454L78.2496 46.0784Z" fill="#037AB4"/>
<path d="M60.2826 60.8359C58.6446 59.9091 56.8013 59.4017 54.918 59.3592C53.0346 59.3168 51.17 59.7406 49.4916 60.5925C48.9704 60.8359 48.5105 61.1922 48.1455 61.6355C47.7805 62.0788 47.5198 62.5979 47.3823 63.1546C47.2923 63.6542 46.2762 63.872 45.6717 63.5133L33.7617 56.6726V60.5157L45.6717 67.3691C46.2762 67.715 47.2923 67.4972 47.3823 67.0105C47.5198 66.4537 47.7805 65.9347 48.1455 65.4914C48.5105 65.0481 48.9704 64.6917 49.4916 64.4484C51.171 63.5997 53.0351 63.1779 54.9178 63.2203C56.8005 63.2628 58.6435 63.7683 60.2826 64.6918C60.9489 65.1119 61.4766 65.7178 61.8003 66.434C62.0444 65.8077 62.0444 65.1131 61.8003 64.4868C62.0057 63.7972 61.9671 63.0582 61.6908 62.3936C61.4145 61.729 60.9173 61.1791 60.2826 60.8359Z" fill="#D1EBFF"/>
<path d="M46.3798 68.048C46.0477 68.0557 45.7194 67.9762 45.428 67.8174L33.518 60.9639C33.4321 60.9195 33.364 60.8472 33.3251 60.759V60.6565C33.3187 60.6097 33.3187 60.5623 33.3251 60.5156V56.6725C33.3248 56.5883 33.3459 56.5054 33.3864 56.4315C33.4269 56.3576 33.4854 56.2951 33.5567 56.2497C33.6324 56.2115 33.7161 56.1915 33.801 56.1915C33.886 56.1915 33.9696 56.2115 34.0453 56.2497L45.9553 63.1032C46.099 63.1742 46.258 63.2094 46.4184 63.2057C46.6074 63.2231 46.796 63.1682 46.9457 63.052C47.0981 62.4276 47.3869 61.8445 47.7915 61.3441C48.1961 60.8436 48.7066 60.4383 49.2865 60.1569C50.9524 59.2772 52.8163 58.8362 54.7014 58.8759C56.77 58.8296 58.8089 59.3717 60.5791 60.4387C61.2888 60.8222 61.8521 61.4275 62.1822 62.1613C62.5122 62.8952 62.5907 63.7169 62.4055 64.4995C62.614 65.2015 62.5684 65.9541 62.2769 66.6261C62.2413 66.7127 62.1808 66.7869 62.103 66.8393C62.0252 66.8917 61.9336 66.9201 61.8396 66.9207C61.7435 66.9226 61.649 66.8955 61.5686 66.8429C61.4883 66.7903 61.4258 66.7147 61.3894 66.6261C61.1193 66.0037 60.6722 65.4738 60.1032 65.1016C58.5386 64.2247 56.7809 63.746 54.986 63.708C53.1911 63.67 51.4144 64.0739 49.8138 64.8839C49.356 65.0971 48.9514 65.4088 48.6289 65.7964C48.3065 66.184 48.0743 66.638 47.9489 67.1257C47.8429 67.4419 47.6257 67.7094 47.3374 67.8789C47.0491 68.0483 46.709 68.1084 46.3798 68.048ZM34.2383 60.2722L45.9168 66.9847C46.0605 67.0558 46.2194 67.0909 46.3798 67.0872C46.5688 67.1047 46.7573 67.0497 46.9071 66.9335C47.0578 66.3101 47.3461 65.7279 47.751 65.2294C48.156 64.7308 48.6673 64.3283 49.2479 64.0512C51.0018 63.1506 52.9543 62.7023 54.927 62.7471C56.8997 62.7918 58.8297 63.3283 60.5406 64.3074C60.8981 64.5356 61.2227 64.8114 61.5052 65.1272C61.4907 64.9698 61.4561 64.8148 61.4023 64.6661C61.3639 64.5628 61.3639 64.4492 61.4023 64.3458C61.5645 63.747 61.515 63.1108 61.2621 62.544C61.0092 61.9772 60.5682 61.5143 60.0132 61.2329C58.3913 60.2958 56.5366 59.834 54.6627 59.9007C52.9439 59.8668 51.2446 60.2679 49.7238 61.0664C49.2685 61.2833 48.866 61.5961 48.544 61.9832C48.222 62.3703 47.9883 62.8223 47.8589 63.3082C47.7598 63.6109 47.5579 63.8698 47.288 64.0405C47.0181 64.2111 46.697 64.2829 46.3798 64.2434C46.0477 64.2511 45.7194 64.1716 45.428 64.0128L34.2383 57.6076V60.2722Z" fill="#037AB4"/>
<path d="M99.5121 60.6694V56.8263L87.5764 63.6926C86.8047 64.1409 87.2806 64.9736 88.3739 64.9736L87.5121 65.4604C86.7404 65.9088 87.2162 66.7414 88.3095 66.7414H88.8883L99.4607 60.6694H99.5121Z" fill="#D1EBFF"/>
<path d="M88.9517 67.2282H88.3986C88.0575 67.2516 87.7176 67.1678 87.4268 66.9885C87.1361 66.8092 86.9091 66.5436 86.778 66.2291C86.7305 66.0143 86.7536 65.7899 86.844 65.5892C86.9343 65.3885 87.087 65.2221 87.2796 65.1146C87.0358 64.9675 86.8566 64.7342 86.778 64.4612C86.7324 64.2291 86.7658 63.9883 86.8729 63.7772C86.9801 63.5661 87.1549 63.3965 87.3697 63.2955L99.3054 56.4292C99.3793 56.3852 99.4637 56.3619 99.5498 56.3619C99.6359 56.3619 99.7203 56.3852 99.7942 56.4292C99.8668 56.4709 99.9274 56.5305 99.9702 56.6023C100.013 56.6741 100.037 56.7557 100.039 56.8391V60.6822C100.044 60.7757 100.024 60.869 99.9812 60.9524C99.9382 61.0357 99.8736 61.1061 99.7942 61.1562L89.2347 67.2282C89.1421 67.2539 89.0442 67.2539 88.9517 67.2282ZM99.0353 57.6334L87.8199 64.0385C87.7632 64.0637 87.7143 64.1035 87.6784 64.1538C87.6784 64.1538 87.897 64.3844 88.3857 64.41C88.4949 64.4104 88.601 64.4454 88.6889 64.5099C88.7768 64.5743 88.8417 64.665 88.8745 64.7687C88.9055 64.867 88.9034 64.9728 88.8686 65.0699C88.8338 65.167 88.7681 65.2501 88.6816 65.3067L87.8199 65.8063C87.717 65.8063 87.6784 65.9088 87.6784 65.9216C87.6784 65.9344 87.897 66.1522 88.3857 66.1778H88.8488L99.0353 60.3235V57.6334Z" fill="#037AB4"/>
<path d="M54.8288 68.8679C54.7182 68.8055 54.6287 68.7119 54.5715 68.5989V72.1857C54.4943 72.3779 54.5715 72.57 54.8288 72.7366L66.7387 79.5772V75.7342L54.8288 68.8679Z" fill="#D1EBFF"/>
<path d="M66.7385 79.9999C66.6571 79.9987 66.5774 79.9766 66.507 79.9359L54.5842 73.0824C54.3939 72.9935 54.2409 72.841 54.1516 72.6515C54.0624 72.462 54.0425 72.2474 54.0954 72.0448V68.5347C54.0934 68.4265 54.1296 68.321 54.1978 68.2367C54.266 68.1523 54.3618 68.0946 54.4684 68.0736C54.5758 68.0493 54.6884 68.0627 54.7869 68.1118C54.8854 68.1608 54.9638 68.2424 55.0087 68.3426L66.9829 75.2345C67.0564 75.2753 67.1176 75.3346 67.1606 75.4067C67.2035 75.4787 67.2266 75.5607 67.2273 75.6445V79.4875C67.2289 79.5734 67.2069 79.6582 67.1639 79.7326C67.1208 79.8071 67.0583 79.8685 66.9829 79.9103C66.9103 79.96 66.8262 79.9909 66.7385 79.9999ZM55.0472 72.2241L66.2627 78.6292V75.875L55.0601 69.4699V72.1088C55.0601 72.1088 55.0472 72.1985 55.0472 72.2241Z" fill="#037AB4"/>
<path d="M94.9826 69.1625C94.8817 69.7833 94.6231 70.3681 94.2314 70.8613C93.8397 71.3546 93.3279 71.7399 92.7447 71.9807C91.2427 72.6798 89.6051 73.0422 87.9473 73.0422C86.2894 73.0422 84.6518 72.6798 83.1499 71.9807C82.5845 71.7395 82.0853 71.3672 81.6937 70.8948C81.3022 70.4223 81.0298 69.8635 80.8991 69.265C80.8219 68.6373 79.4714 68.3554 78.6997 68.791L66.7383 75.6701V79.5132L78.6997 72.6469C79.4714 72.1985 80.8219 72.4803 80.8991 73.108C81.0298 73.7066 81.3022 74.2654 81.6937 74.7378C82.0853 75.2102 82.5845 75.5826 83.1499 75.8238C84.6508 76.5263 86.2888 76.8906 87.9473 76.8906C89.6057 76.8906 91.2437 76.5263 92.7447 75.8238C93.3279 75.583 93.8397 75.1976 94.2314 74.7044C94.6231 74.2111 94.8817 73.6264 94.9826 73.0056V69.1625Z" fill="#D1EBFF"/>
<path d="M66.7396 80C66.6122 79.9966 66.4912 79.9439 66.4023 79.8529C66.3134 79.762 66.2637 79.6401 66.2637 79.5132V75.6701C66.2644 75.5863 66.2874 75.5043 66.3304 75.4323C66.3733 75.3603 66.4346 75.3009 66.5081 75.2601L78.4566 68.3811C78.8082 68.1924 79.202 68.0955 79.6013 68.0992C80.3987 68.0992 81.2862 68.4451 81.3762 69.2137C81.4994 69.7352 81.7457 70.2199 82.0947 70.6276C82.4436 71.0353 82.8852 71.3543 83.3827 71.558C84.8095 72.2588 86.3837 72.6101 87.9743 72.5828C89.5477 72.6174 91.1059 72.2701 92.5145 71.5708C93.0358 71.3734 93.4964 71.0438 93.8506 70.6147C94.2047 70.1855 94.4402 69.6717 94.5338 69.1241C94.5405 69.0403 94.5689 68.9596 94.6163 68.8901C94.6636 68.8205 94.7283 68.7643 94.8039 68.727C94.8766 68.6866 94.9585 68.6653 95.0418 68.6653C95.1251 68.6653 95.207 68.6866 95.2798 68.727C95.3507 68.7662 95.4097 68.8238 95.4504 68.8937C95.4912 68.9636 95.5122 69.0432 95.5113 69.1241V72.9671C95.4094 73.672 95.1261 74.3386 94.6888 74.9021C94.2516 75.4656 93.6753 75.9067 93.0161 76.1825C91.467 76.9488 89.755 77.3311 88.0257 77.297C86.2776 77.3259 84.5482 76.9348 82.984 76.1569C82.3351 75.8899 81.7615 75.4691 81.3132 74.9311C80.8649 74.393 80.5554 73.754 80.4116 73.0696C80.3018 72.9732 80.173 72.9007 80.0335 72.8566C79.894 72.8125 79.7468 72.7978 79.6013 72.8134C79.3728 72.8057 79.1464 72.8587 78.9454 72.9671L66.984 79.8462C66.9185 79.9191 66.8338 79.9724 66.7396 80ZM67.2283 75.9263V78.6805L78.4566 72.2754C78.8082 72.0867 79.202 71.9898 79.6013 71.9936C80.3987 71.9936 81.2862 72.3394 81.3762 73.108C81.4994 73.6295 81.7457 74.1142 82.0947 74.5219C82.4436 74.9296 82.8852 75.2486 83.3827 75.4523C84.8095 76.1531 86.3837 76.5044 87.9743 76.4771C89.546 76.5091 91.1026 76.1666 92.5145 75.4779C93.0249 75.2731 93.4746 74.9422 93.8211 74.5164C94.1677 74.0905 94.3996 73.5838 94.4951 73.044V71.3274C94.0469 71.7892 93.5256 72.1744 92.9518 72.4675C91.4016 73.2294 89.6897 73.6074 87.9614 73.5692C86.2102 73.6022 84.4767 73.2156 82.9068 72.4419C82.2586 72.174 81.6856 71.7529 81.2374 71.215C80.7892 70.6771 80.4793 70.0386 80.3344 69.3546C80.2246 69.2583 80.0958 69.1857 79.9563 69.1416C79.8168 69.0975 79.6697 69.0828 79.5241 69.0984C79.2957 69.0907 79.0692 69.1437 78.8682 69.2521L67.2283 75.9263Z" fill="#037AB4"/>
<path d="M73.0158 47.0904C74.4641 46.2241 76.1116 45.7433 77.8003 45.6941C78.662 45.6941 79.0865 45.0536 78.4434 44.7077L66.5334 37.8542L54.572 44.7333C53.8003 45.1817 52.4498 44.8999 52.3855 44.2722C52.2535 43.6723 51.9791 43.1127 51.5852 42.6401C51.1914 42.1676 50.6895 41.796 50.1218 41.5564C48.6241 40.8506 46.9878 40.4845 45.3308 40.4845C43.6739 40.4845 42.0376 40.8506 40.5399 41.5564C37.5945 43.1192 37.5431 45.7838 40.3727 47.4107C41.7683 48.1512 43.319 48.5549 44.9 48.5892C45.9932 48.5892 46.4692 49.4219 45.6975 49.8703L33.7617 56.7365L45.6717 63.5772C46.2762 63.9359 47.2923 63.7181 47.3823 63.2185C47.5198 62.6618 47.7806 62.1428 48.1455 61.6995C48.5105 61.2561 48.9704 60.8998 49.4916 60.6565C51.17 59.8045 53.0346 59.3807 54.918 59.4232C56.8013 59.4657 58.6446 59.9731 60.2826 60.8999C60.8068 61.1545 61.2486 61.5508 61.5576 62.0434C61.8667 62.536 62.0305 63.1052 62.0305 63.6861C62.0305 64.267 61.8667 64.8362 61.5576 65.3288C61.2486 65.8214 60.8068 66.2177 60.2826 66.4723C58.8353 67.3426 57.1878 67.8279 55.4981 67.8815C54.6364 67.8815 54.2119 68.5092 54.855 68.8678L66.7649 75.7085L78.7264 68.8294C79.4981 68.3939 80.8485 68.6757 80.9257 69.3034C81.0564 69.902 81.3289 70.4608 81.7204 70.9332C82.112 71.4056 82.6112 71.7779 83.1765 72.0192C84.6784 72.7182 86.3161 73.0806 87.974 73.0806C89.6318 73.0806 91.2695 72.7182 92.7714 72.0192C95.7167 70.4435 95.7682 67.7918 92.9386 66.1649C91.5411 65.4157 89.9851 65.0074 88.3984 64.9735C87.3051 64.9735 86.8292 64.1537 87.6009 63.6925L99.5495 56.8262L87.6396 49.9727C87.0351 49.6269 86.019 49.8446 85.9418 50.3314C85.8043 50.8881 85.5436 51.4072 85.1786 51.8505C84.8136 52.2938 84.3537 52.6502 83.8325 52.8935C82.152 53.7402 80.2874 54.1599 78.4047 54.1152C76.522 54.0705 74.6795 53.5627 73.0414 52.6372C72.5229 52.3823 72.0859 51.9885 71.7795 51.5C71.4731 51.0116 71.3094 50.4477 71.3067 49.8718C71.304 49.2958 71.4626 48.7305 71.7645 48.2392C72.0663 47.7479 72.4996 47.3501 73.0158 47.0904Z" fill="white"/>
<path d="M66.7397 76.1313C66.6583 76.13 66.5786 76.1079 66.5082 76.0672L54.5854 69.2137C54.4012 69.1268 54.2509 68.9817 54.1579 68.8011C54.0648 68.6204 54.0343 68.4142 54.0709 68.2145C54.1754 67.941 54.3659 67.7085 54.6139 67.5515C54.8619 67.3945 55.1541 67.3215 55.4471 67.3434C57.0487 67.3038 58.6145 66.8633 60.0002 66.0624C60.4355 65.825 60.8038 65.4823 61.0713 65.0659C61.3387 64.6496 61.4968 64.1729 61.5308 63.6797C61.4968 63.1865 61.3403 62.7094 61.0754 62.2912C60.8105 61.8731 60.4454 61.527 60.013 61.2842C58.3964 60.3292 56.5414 59.8495 54.6626 59.9007C52.9437 59.8669 51.2444 60.268 49.7236 61.0664C49.2683 61.2833 48.8658 61.5961 48.5438 61.9832C48.2218 62.3703 47.9881 62.8223 47.8587 63.3082C47.7596 63.6109 47.5578 63.8698 47.2879 64.0405C47.018 64.2111 46.6968 64.2829 46.3796 64.2434C46.0475 64.2511 45.7192 64.1716 45.4278 64.0128L33.5179 57.1593C33.447 57.1187 33.3876 57.0611 33.3449 56.9917C33.3022 56.9223 33.2776 56.8434 33.2735 56.7622C33.2723 56.6746 33.2943 56.5883 33.3371 56.5118C33.38 56.4354 33.4424 56.3715 33.5179 56.3266L45.4536 49.4603C45.5822 49.3963 45.595 49.3451 45.595 49.3451C45.595 49.3451 45.3764 49.1016 44.8877 49.0888C43.2218 49.0442 41.5905 48.6051 40.1288 47.8078C39.4733 47.5126 38.9104 47.0456 38.5004 46.4568C38.0905 45.868 37.8487 45.1793 37.8008 44.4644C37.8803 43.7256 38.1623 43.0229 38.616 42.4331C39.0697 41.8434 39.6776 41.3894 40.3732 41.1209C41.9425 40.3783 43.6582 39.993 45.3957 39.993C47.1331 39.993 48.8488 40.3783 50.4182 41.1209C51.0673 41.3838 51.6415 41.8017 52.0901 42.3379C52.5387 42.8741 52.848 43.512 52.9905 44.1953C53.1004 44.2917 53.2291 44.3642 53.3686 44.4083C53.5081 44.4524 53.6553 44.4672 53.8008 44.4515C54.0317 44.4563 54.2605 44.408 54.4696 44.3106L66.4182 37.4315C66.4921 37.3875 66.5765 37.3643 66.6626 37.3643C66.7486 37.3643 66.8331 37.3875 66.9069 37.4315L78.8169 44.2722C79.0036 44.3597 79.1556 44.5068 79.2488 44.6901C79.342 44.8735 79.371 45.0825 79.3313 45.2842C79.2251 45.5565 79.0343 45.7879 78.7867 45.9446C78.5391 46.1013 78.2478 46.1751 77.9551 46.1553C76.3526 46.1887 74.7853 46.6297 73.4021 47.4363C72.9458 47.6469 72.5594 47.9832 72.2886 48.4054C72.0179 48.8275 71.874 49.3181 71.874 49.819C71.874 50.32 72.0179 50.8105 72.2886 51.2327C72.5594 51.6548 72.9458 51.9911 73.4021 52.2017C75.0154 53.1658 76.8719 53.6503 78.7526 53.598C80.472 53.6381 82.1729 53.2367 83.6915 52.4323C84.1492 52.2169 84.5542 51.9047 84.8785 51.5176C85.2028 51.1304 85.4386 50.6776 85.5693 50.1905C85.6594 49.6397 86.2638 49.2554 87.0484 49.2554C87.3773 49.2538 87.7009 49.3377 87.9873 49.4988L99.8973 56.3394C99.9721 56.382 100.034 56.4435 100.078 56.5178C100.121 56.592 100.144 56.6763 100.144 56.7622C100.144 56.848 100.121 56.9323 100.078 57.0066C100.034 57.0808 99.9721 57.1423 99.8973 57.1849L87.9616 64.0512C87.905 64.0763 87.8561 64.1161 87.8201 64.1665C87.8201 64.1665 88.0388 64.3971 88.5275 64.4227C90.1946 64.4593 91.8278 64.899 93.2864 65.7037C93.9453 65.9943 94.5111 66.46 94.9218 67.0498C95.3325 67.6396 95.5721 68.3307 95.6143 69.0472C95.5322 69.7851 95.2491 70.4865 94.7957 71.0758C94.3424 71.6651 93.736 72.1197 93.042 72.3907C91.4918 73.1526 89.7799 73.5305 88.0516 73.4923C86.3004 73.5253 84.5669 73.1387 82.997 72.3651C82.3488 72.0972 81.7758 71.6761 81.3276 71.1382C80.8794 70.6003 80.5695 69.9617 80.4246 69.2778C80.3148 69.1814 80.186 69.1089 80.0465 69.0648C79.907 69.0207 79.7599 69.0059 79.6143 69.0216C79.3859 69.0138 79.1594 69.0669 78.9584 69.1753L66.997 76.0544C66.9193 76.1017 66.8307 76.1282 66.7397 76.1313ZM55.1642 68.4451L66.7397 75.1449L78.4568 68.4067C78.8083 68.2181 79.2021 68.1211 79.6015 68.1249C80.3989 68.1249 81.2864 68.4707 81.3764 69.2394C81.4996 69.7609 81.7459 70.2456 82.0948 70.6533C82.4438 71.061 82.8853 71.3799 83.3828 71.5836C84.8097 72.2844 86.3839 72.6357 87.9745 72.6085C89.5479 72.6431 91.1061 72.2957 92.5146 71.5964C93.0416 71.3968 93.5048 71.0595 93.8556 70.6199C94.2064 70.1804 94.4318 69.6548 94.5082 69.0984C94.455 68.556 94.2561 68.0378 93.9325 67.5982C93.6089 67.1587 93.1724 66.8141 92.669 66.6005C91.3436 65.8877 89.8663 65.5012 88.3603 65.4731C88.0188 65.4985 87.6781 65.4154 87.387 65.2359C87.0958 65.0564 86.8692 64.7897 86.7397 64.4739C86.6941 64.2418 86.7275 64.0011 86.8346 63.7899C86.9418 63.5788 87.1166 63.4093 87.3314 63.3082L98.5468 56.9031L87.3571 50.498C87.2069 50.4101 87.036 50.3638 86.8619 50.3638C86.6878 50.3638 86.5169 50.4101 86.3668 50.498C86.2169 51.1234 85.929 51.7077 85.5241 52.2084C85.1192 52.7092 84.6074 53.1139 84.0259 53.3931C82.2694 54.2846 80.3181 54.7279 78.3472 54.6831C76.3762 54.6384 74.4472 54.1071 72.7333 53.1369C72.16 52.8137 71.6795 52.3496 71.3373 51.789C70.9951 51.2284 70.8026 50.5899 70.7783 49.9343C70.8083 49.2819 71.0047 48.6478 71.349 48.0919C71.6933 47.536 72.1741 47.0767 72.7461 46.7574C74.268 45.8434 75.999 45.3319 77.7751 45.2714C77.9125 45.2673 78.048 45.2369 78.1738 45.1817L66.5983 38.4819L54.8812 45.2202C54.5294 45.407 54.1351 45.4997 53.7365 45.4892C52.952 45.4892 52.0517 45.1433 51.9616 44.3875C51.8424 43.8643 51.5976 43.3777 51.2481 42.9694C50.8987 42.5611 50.455 42.2433 49.9552 42.0432C48.5309 41.3353 46.9549 40.9835 45.3635 41.0184C43.7919 40.9874 42.2355 41.3299 40.8233 42.0176C40.2884 42.2235 39.8201 42.5709 39.4688 43.0224C39.1175 43.4739 38.8965 44.0123 38.8298 44.5796C38.8856 45.1213 39.0855 45.6383 39.4088 46.0774C39.7321 46.5165 40.1671 46.8617 40.669 47.0776C41.9989 47.7905 43.4805 48.1769 44.9905 48.2049C45.3305 48.1784 45.6702 48.2611 45.9595 48.4409C46.2489 48.6207 46.4727 48.8882 46.5982 49.2041C46.6462 49.4364 46.6139 49.678 46.5065 49.8897C46.399 50.1014 46.2229 50.2706 46.0066 50.3699L34.7912 56.775L45.9809 63.1801C46.1246 63.2511 46.2835 63.2863 46.4439 63.2826C46.6329 63.3001 46.8215 63.245 46.9713 63.1288C47.1237 62.5045 47.4124 61.9214 47.817 61.421C48.2217 60.9205 48.7322 60.5152 49.3121 60.2338C50.9779 59.3541 52.8418 58.9131 54.7268 58.9527C56.7955 58.9065 58.8344 59.4486 60.6047 60.5156C61.1779 60.8388 61.6585 61.3028 62.0007 61.8634C62.343 62.424 62.5354 63.0625 62.5597 63.7181C62.5297 64.3706 62.3334 65.0047 61.989 65.5606C61.6447 66.1164 61.1638 66.5757 60.5918 66.8951C59.0687 67.8045 57.3378 68.3115 55.5629 68.3682C55.4092 68.3331 55.2487 68.342 55.0999 68.3939L55.1642 68.4451Z" fill="#037AB4"/>
<path d="M49.3259 22.4051C50.9943 21.5628 52.8448 21.141 54.7149 21.1767C56.5851 21.2125 58.4179 21.7047 60.0527 22.6101C60.5709 22.8764 61.0054 23.2796 61.3088 23.7756C61.6122 24.2716 61.7727 24.8411 61.7727 25.4219C61.7727 26.0027 61.6122 26.5723 61.3088 27.0682C61.0054 27.5642 60.5709 27.9674 60.0527 28.2338C58.6028 29.0983 56.9568 29.5831 55.2681 29.6429C54.4063 29.6429 53.9819 30.2706 54.625 30.6165L66.5349 37.4699L78.4964 30.5909C79.2681 30.1425 80.6186 30.4243 80.6957 31.052C80.8216 31.6545 81.0937 32.217 81.4884 32.6904C81.883 33.1638 82.3881 33.5337 82.9594 33.7678C84.4596 34.4729 86.0979 34.8386 87.7568 34.8386C89.4157 34.8386 91.0541 34.4729 92.5543 33.7678C95.4996 32.205 95.5511 29.5532 92.7215 27.9263C91.324 27.1771 89.768 26.7688 88.1813 26.735C87.088 26.735 86.6121 25.9023 87.3839 25.4539L99.3324 18.5748L68.9916 1.1401C68.1893 0.674204 67.2772 0.428711 66.3485 0.428711C65.4198 0.428711 64.5077 0.674204 63.7054 1.1401L33.5703 18.4595L45.4803 25.313C46.0848 25.6589 47.1009 25.4411 47.1781 24.9543C47.3214 24.3963 47.5888 23.8774 47.9606 23.4361C48.3324 22.9949 48.799 22.6425 49.3259 22.4051Z" fill="white"/>
<path d="M66.5855 37.944C66.4995 37.947 66.4145 37.9248 66.3411 37.8799L54.4311 31.0393C54.2444 30.9518 54.0924 30.8047 53.9992 30.6213C53.906 30.438 53.8769 30.2289 53.9166 30.0272C54.0229 29.7549 54.2137 29.5235 54.4613 29.3668C54.7088 29.2101 55.0002 29.1363 55.2928 29.1562C56.8954 29.1227 58.4627 28.6817 59.846 27.8751C60.2764 27.637 60.6383 27.2929 60.8972 26.8758C61.1562 26.4586 61.3034 25.9824 61.325 25.4924C61.2946 24.99 61.1373 24.5034 60.8674 24.0779C60.5976 23.6523 60.224 23.3016 59.7816 23.0585C58.2212 22.207 56.4766 21.7459 54.6977 21.7146C52.9188 21.6834 51.1589 22.083 49.5694 22.8791C49.1117 23.0946 48.7066 23.4067 48.3823 23.7939C48.058 24.181 47.8224 24.6339 47.6916 25.1209C47.5972 25.424 47.3983 25.6841 47.13 25.8553C46.8617 26.0264 46.5412 26.0975 46.2253 26.0561C45.8932 26.0638 45.565 25.9843 45.2736 25.8255L33.3636 18.908C33.2882 18.8662 33.2257 18.8048 33.1826 18.7303C33.1396 18.6558 33.1177 18.5711 33.1192 18.4852C33.1186 18.4012 33.141 18.3186 33.1841 18.2464C33.2271 18.1741 33.2892 18.115 33.3636 18.0753L63.4986 0.743031C64.3787 0.251547 65.3707 -0.0065918 66.3797 -0.0065918C67.3886 -0.0065918 68.3806 0.251547 69.2607 0.743031L99.6016 18.1906C99.675 18.2313 99.7364 18.2907 99.7793 18.3627C99.8222 18.4347 99.8452 18.5168 99.8459 18.6005C99.8475 18.6864 99.8255 18.7711 99.7825 18.8456C99.7395 18.9201 99.6769 18.9815 99.6016 19.0232L87.6658 25.8896C87.6092 25.9147 87.5603 25.9545 87.5244 26.0048C87.5244 26.0048 87.743 26.2482 88.2317 26.261C89.8967 26.3119 91.5266 26.7507 92.9906 27.542C93.6495 27.8326 94.2154 28.2984 94.626 28.8882C95.0367 29.478 95.2763 30.169 95.3186 30.8855C95.2392 31.6243 94.9571 32.327 94.5034 32.9168C94.0497 33.5065 93.4418 33.9605 92.7462 34.229C91.1769 34.9716 89.4612 35.3569 87.7238 35.3569C85.9863 35.3569 84.2706 34.9716 82.7012 34.229C82.0533 33.9642 81.4802 33.5456 81.0319 33.0098C80.5835 32.4739 80.2735 31.837 80.1289 31.1545C80.019 31.0582 79.8903 30.9856 79.7508 30.9415C79.6113 30.8974 79.4641 30.8827 79.3186 30.8983C79.0901 30.8906 78.8637 30.9437 78.6626 31.0521L66.7012 37.9184C66.6641 37.9324 66.6251 37.941 66.5855 37.944ZM55.0099 30.2578L66.5855 36.9576L78.3025 30.2194C78.6547 30.0336 79.0488 29.941 79.4472 29.9504C80.2318 29.9504 81.1321 30.2963 81.2222 31.0521C81.3414 31.5753 81.5862 32.0619 81.9357 32.4702C82.2851 32.8785 82.7288 33.1963 83.2286 33.3963C84.6577 34.063 86.2164 34.4085 87.7945 34.4085C89.3725 34.4085 90.9313 34.063 92.3604 33.3963C92.8953 33.1904 93.3636 32.843 93.7149 32.3915C94.0662 31.94 94.2872 31.4016 94.3539 30.8343C94.2981 30.2926 94.0982 29.7756 93.7749 29.3365C93.4516 28.8974 93.0166 28.5521 92.5147 28.3363C91.1848 27.6234 89.7032 27.237 88.1932 27.209C87.8532 27.2356 87.5135 27.1528 87.2242 26.973C86.9348 26.7932 86.711 26.5257 86.5855 26.2098C86.5375 25.9775 86.5698 25.7358 86.6772 25.5242C86.7847 25.3125 86.9609 25.1433 87.1771 25.0441L98.3925 18.639L68.8105 1.61412C68.0756 1.20459 67.2475 0.989557 66.4054 0.989557C65.5633 0.989557 64.7352 1.20459 64.0003 1.61412L34.5984 18.5237L45.788 24.9288C45.9317 24.9998 46.0907 25.035 46.2511 25.0312C46.4395 25.0427 46.6259 24.9884 46.7784 24.8775C46.9308 24.2532 47.2195 23.67 47.6242 23.1696C48.0288 22.6692 48.5393 22.2638 49.1192 21.9824C50.8624 21.0986 52.7969 20.6551 54.7526 20.6909C56.7083 20.7266 58.6252 21.2405 60.3346 22.1874C60.914 22.5155 61.3999 22.9853 61.7465 23.5523C62.093 24.1194 62.2889 24.765 62.3154 25.4284C62.2929 26.0781 62.1053 26.7115 61.7701 27.2694C61.4349 27.8272 60.9632 28.2913 60.399 28.6181C58.8771 29.532 57.146 30.0435 55.37 30.1041C55.223 30.1088 55.0784 30.1437 54.9456 30.2066L55.0099 30.2578Z" fill="#037AB4"/>
<path d="M49.5172 22.5589C48.9997 22.7962 48.5459 23.152 48.1927 23.5972C47.8396 24.0425 47.597 24.5646 47.485 25.1209C47.485 25.7486 46.0574 26.0177 45.2729 25.5693L33.26 18.6646L0.488281 37.5084L12.5268 44.426C13.2986 44.8743 12.8227 45.707 11.7294 45.707C10.0756 45.7222 8.4539 46.1635 7.02207 46.988C4.55261 48.5125 4.56547 50.9592 7.02207 52.4964C8.58073 53.3365 10.3208 53.7871 12.093 53.8094C13.8651 53.8317 15.6162 53.4251 17.1957 52.6245C17.712 52.3855 18.1648 52.0292 18.5177 51.5843C18.8706 51.1393 19.1139 50.6181 19.2278 50.0625C19.2278 49.4348 20.6554 49.1658 21.4271 49.6141L33.4529 56.5316L45.2857 49.7166C45.8902 49.3707 45.5043 48.7815 44.6554 48.7302C43.0812 48.6731 41.541 48.2568 40.1538 47.5132C37.1442 45.771 37.26 42.9272 40.514 41.3003C42.0441 40.6381 43.6946 40.2964 45.3629 40.2964C47.0312 40.2964 48.6816 40.6381 50.2117 41.3003C50.8088 41.5384 51.3425 41.9109 51.7709 42.3888C52.1993 42.8666 52.5109 43.4367 52.6812 44.0545C52.7713 44.5541 53.7873 44.7846 54.3918 44.4388L66.2246 37.6237L54.1989 30.7062C53.4143 30.2578 53.9031 29.4892 54.9963 29.4252C56.6489 29.4008 58.2683 28.9601 59.7037 28.1441C62.1731 26.6069 62.1603 24.1601 59.7037 22.6229C58.1372 21.7937 56.3923 21.3548 54.6183 21.3436C52.8444 21.3325 51.0941 21.7494 49.5172 22.5589Z" fill="white"/>
<path d="M33.4649 56.9929C33.3794 56.9915 33.2956 56.9695 33.2205 56.9288L21.2205 50.0241C21.01 49.9163 20.7754 49.8635 20.5388 49.8704C20.0501 49.8704 19.7543 50.0369 19.7286 50.1137C19.613 50.7518 19.346 51.3532 18.9501 51.8679C18.5541 52.3826 18.0406 52.7957 17.452 53.0729C15.8732 53.9257 14.1033 54.3664 12.3073 54.3539C10.3923 54.4008 8.5013 53.9222 6.84109 52.9704C6.24505 52.6674 5.73839 52.2152 5.37083 51.6582C5.00328 51.1012 4.78747 50.4586 4.74462 49.7935C4.78924 49.1353 5.00314 48.4998 5.36581 47.9478C5.72847 47.3959 6.22767 46.9463 6.81535 46.6422C8.32217 45.7752 10.0271 45.3076 11.7672 45.2843C12.2302 45.2843 12.4488 45.0921 12.4745 45.0281C12.4353 44.9842 12.3871 44.9493 12.3331 44.9256L0.307309 38.0081C0.235225 37.9664 0.175411 37.9066 0.13382 37.8346C0.09223 37.7627 0.0703125 37.6811 0.0703125 37.5981C0.0703125 37.5151 0.09223 37.4335 0.13382 37.3616C0.175411 37.2897 0.235225 37.2299 0.307309 37.1882L33.1047 18.3187C33.1805 18.2804 33.2642 18.2605 33.3491 18.2605C33.434 18.2605 33.5178 18.2804 33.5935 18.3187L45.6064 25.2362C45.8169 25.344 46.0514 25.3969 46.288 25.39C46.4335 25.4056 46.5807 25.3909 46.7202 25.3468C46.8598 25.3026 46.9885 25.2301 47.0983 25.1337C47.2135 24.4988 47.4789 23.9004 47.8726 23.388C48.2662 22.8757 48.7768 22.4641 49.362 22.1874C51.0173 21.3411 52.8551 20.9103 54.7156 20.9326C56.5761 20.955 58.4029 21.4297 60.0372 22.3155C60.6351 22.6196 61.1429 23.0738 61.5105 23.6332C61.8782 24.1926 62.093 24.8379 62.1337 25.5052C62.0891 26.1634 61.8752 26.7989 61.5125 27.3509C61.1498 27.9028 60.6506 28.3524 60.063 28.6566C58.5551 29.5196 56.8501 29.9827 55.1112 30.0016C54.9818 29.9926 54.852 30.0108 54.7302 30.0549C54.6083 30.0991 54.4971 30.1682 54.4038 30.2578C54.4442 30.3038 54.492 30.3428 54.5452 30.3732L66.571 37.2907C66.6454 37.3304 66.7074 37.3895 66.7505 37.4618C66.7935 37.534 66.816 37.6166 66.8154 37.7006C66.8169 37.7865 66.795 37.8712 66.752 37.9457C66.7089 38.0202 66.6464 38.0816 66.571 38.1233L54.7382 44.9256C54.4508 45.0828 54.1271 45.1623 53.7993 45.1562C53.4807 45.1938 53.1588 45.1216 52.8873 44.9514C52.6157 44.7812 52.411 44.5234 52.3073 44.221C52.1461 43.6773 51.8634 43.1769 51.4802 42.7576C51.0971 42.3383 50.6235 42.0108 50.0951 41.7999C48.6231 41.1296 47.0188 40.7969 45.4006 40.8263C43.8271 40.7892 42.2658 41.109 40.8347 41.7614C40.248 41.9694 39.7277 42.3296 39.3275 42.8047C38.9273 43.2799 38.6617 43.8529 38.5581 44.4644C38.6088 45.0406 38.8165 45.5921 39.1587 46.0594C39.501 46.5267 39.9648 46.8921 40.5002 47.1161C41.8207 47.823 43.2853 48.2216 44.7832 48.2819C45.0741 48.2628 45.3634 48.3371 45.6088 48.4939C45.8542 48.6507 46.0427 48.8817 46.1466 49.1529C46.1863 49.3546 46.1572 49.5637 46.064 49.7471C45.9708 49.9304 45.8187 50.0775 45.6321 50.165L33.7993 56.9672C33.7334 57.0074 33.6579 57.0296 33.5806 57.0313L33.4649 56.9929ZM20.526 48.9096C20.9302 48.8989 21.3299 48.9962 21.6835 49.1914L33.4649 55.9552L45.0405 49.3067C44.9182 49.24 44.7812 49.2047 44.6418 49.2042C42.9912 49.1392 41.377 48.7011 39.9214 47.9232C39.2316 47.6149 38.6408 47.1228 38.2141 46.5011C37.7874 45.8794 37.5415 45.1524 37.5034 44.4004C37.609 43.6161 37.9253 42.8748 38.4188 42.2548C38.9124 41.6347 39.5648 41.1589 40.3074 40.8775C41.8753 40.1606 43.5856 39.8058 45.3105 39.8399C47.0856 39.8009 48.8459 40.1691 50.4552 40.916C51.1187 41.1922 51.7097 41.6165 52.1825 42.1562C52.6553 42.6959 52.9971 43.3366 53.1819 44.0288C53.3441 44.1278 53.5321 44.1769 53.7221 44.1698C53.8785 44.174 54.0333 44.1388 54.1723 44.0673L65.2848 37.6622L53.9793 31.1674C53.7615 31.07 53.584 30.9011 53.4763 30.6889C53.3686 30.4767 53.3373 30.2341 53.3877 30.0016C53.5115 29.6846 53.735 29.4159 54.0248 29.2358C54.3146 29.0557 54.6551 28.9738 54.9954 29.0025C56.5656 28.9844 58.1056 28.5701 59.4713 27.7983C59.9315 27.5996 60.3234 27.2712 60.5987 26.8535C60.8739 26.4359 61.0205 25.9472 61.0205 25.4476C61.0205 24.948 60.8739 24.4593 60.5987 24.0416C60.3234 23.624 59.9315 23.2956 59.4713 23.0969C57.988 22.3035 56.3346 21.8776 54.6511 21.8553C52.9675 21.833 51.3032 22.2149 49.7992 22.9688C49.3464 23.1796 48.9484 23.4915 48.6362 23.8803C48.3239 24.2691 48.1057 24.7243 47.9987 25.2106C47.9987 25.864 47.2012 26.3123 46.2366 26.3123C45.8328 26.3194 45.434 26.2223 45.079 26.0305L33.2977 19.2538L1.47777 37.5469L12.7961 44.0545C13.0123 44.1537 13.1885 44.323 13.2959 44.5346C13.4033 44.7463 13.4357 44.9879 13.3877 45.2202C13.2611 45.5372 13.0348 45.8047 12.7425 45.9826C12.4503 46.1604 12.1081 46.2391 11.7672 46.2066C10.2013 46.2262 8.66582 46.6405 7.3041 47.4108C6.84388 47.6095 6.45207 47.9379 6.17681 48.3555C5.90156 48.7732 5.75486 49.2619 5.75486 49.7614C5.75486 50.261 5.90156 50.7497 6.17681 51.1674C6.45207 51.585 6.84388 51.9134 7.3041 52.1122C8.78742 52.9056 10.4409 53.3315 12.1244 53.3538C13.808 53.3761 15.4722 52.9941 16.9761 52.2402C17.4307 52.0319 17.8302 51.7208 18.1428 51.3316C18.4554 50.9424 18.6724 50.4859 18.7767 49.9984C18.8282 49.3579 19.5485 48.9096 20.526 48.9096Z" fill="#037AB4"/>
</g>
<defs>
<clipPath id="clip0_2_127">
<rect width="100" height="80" fill="white"/>
</clipPath>
</defs>
</svg>
