<svg width="115" height="87" viewBox="0 0 115 87" fill="none" xmlns="http://www.w3.org/2000/svg">
<g clip-path="url(#clip0_2_165)">
<path d="M57.4917 86.9834C89.2434 86.9834 114.983 76.3469 114.983 63.2261C114.983 50.1052 89.2434 39.4687 57.4917 39.4687C25.7399 39.4687 0 50.1052 0 63.2261C0 76.3469 25.7399 86.9834 57.4917 86.9834Z" fill="#D1EBFF"/>
<path d="M21.0359 68.2094C18.1355 69.5173 16.5019 69.7159 14.1516 68.3749C11.8012 67.0339 6.78383 65.8916 6.95052 60.0971C7.11721 54.3026 4.85022 51.5212 4.76688 45.4453C4.68353 38.9721 8.78413 34.949 10.1343 32.9458C11.4845 30.9426 13.9848 21.3568 18.3521 18.6252C22.7194 15.8935 29.2538 13.4598 30.4206 11.6221C31.5875 9.78444 43.5058 3.62573 49.8734 1.97016C56.241 0.314595 78.5609 -0.364177 82.7615 3.79129C86.9621 7.94677 90.9793 4.63563 92.1462 9.96655C93.313 15.2975 96.3634 32.5816 67.4259 47.2499C52.3369 55.0264 36.8529 62.0223 21.0359 68.2094Z" fill="white"/>
<path d="M17.1692 69.9146C15.9879 69.8889 14.8358 69.5456 13.8354 68.9212C13.452 68.706 13.0018 68.4908 12.5184 68.2756C9.98473 67.0835 6.15087 65.2955 6.30089 59.9977C6.33078 57.5436 5.98802 55.099 5.2841 52.7463C4.58313 50.3438 4.19105 47.8628 4.11725 45.3625C4.23195 41.0419 5.87222 36.8987 8.75125 33.6577C9.08463 33.2272 9.38469 32.8464 9.60139 32.5153C10.1481 31.4923 10.6161 30.4297 11.0016 29.3366C12.4851 25.6282 14.7355 20.0158 18.0026 18.0126C19.6695 16.9696 21.6865 15.9762 23.6034 15.016C26.3871 13.6253 29.2543 12.2015 29.8877 11.2082C31.2546 9.08906 43.6563 2.93036 49.7072 1.27479C54.7346 0.293313 59.8535 -0.150707 64.9761 -0.0496669C70.5269 -0.0496669 80.2783 0.38078 83.1787 3.26147C84.5378 4.57573 86.2956 5.40789 88.1794 5.62891C90.163 6.00969 92.03 6.39049 92.7801 9.73474C96.914 28.5254 81.4285 40.7601 67.7765 47.7134C44.6065 59.4514 31.2378 64.7658 24.8035 67.3153C23.2366 67.9444 22.0866 68.408 21.3531 68.7391C20.0621 69.4309 18.6337 69.8322 17.1692 69.9146ZM64.9928 1.24167C59.9612 1.15113 54.9336 1.57834 49.9906 2.51647C43.5897 4.17203 31.9213 10.3307 30.9045 11.9035C30.0877 13.1783 27.3373 14.569 24.1368 16.1583C22.2366 17.1185 20.2863 18.0954 18.6194 19.1052C15.7023 20.8933 13.6186 26.2738 12.1351 29.8333C11.7256 31.0126 11.2125 32.1538 10.6015 33.2438C10.3682 33.5914 10.0681 33.9888 9.71809 34.4358C7.0119 37.4613 5.46044 41.3341 5.33411 45.3791C5.40493 47.7783 5.78013 50.159 6.45091 52.4649C7.18474 54.9312 7.54433 57.4923 7.51776 60.0639C7.3844 64.5174 10.5016 65.9743 13.0186 67.1498C13.4967 67.3581 13.964 67.5902 14.4187 67.8451C16.5357 69.0537 17.6526 69.0371 20.7197 67.6464C21.4698 67.3153 22.6199 66.8518 24.2202 66.2226C30.6378 63.6731 43.9731 58.3753 67.0764 46.6539C80.4117 39.8992 95.4138 28.0619 91.4799 10.0493C90.9298 7.49972 89.813 7.26794 87.8627 6.88716C85.7498 6.61718 83.7833 5.66968 82.2619 4.18858C80.4617 2.3509 73.9774 1.24167 64.9928 1.24167Z" fill="#03336E"/>
<path d="M18.7522 47.2995C13.5514 52.4483 16.6018 57.6302 16.6018 61.2724C16.7998 63.9594 17.9048 66.5015 19.7379 68.4874C21.5711 70.4733 24.0252 71.7869 26.7032 72.2157C33.3709 73.1263 36.188 70.3946 41.0887 71.9177C45.9894 73.4409 50.8734 69.4841 50.8734 69.4841C50.8734 69.4841 57.9078 71.3052 60.9749 70.6926C64.042 70.0801 63.4252 68.8715 65.8589 68.8715C71.5053 68.2734 76.7871 65.8137 80.8611 61.885C84.0143 58.742 86.6926 55.1619 88.8123 51.2563C91.8467 51.1507 94.7674 50.0832 97.1468 48.21C100.814 45.1638 101.964 35.6774 101.964 31.108C101.964 26.5387 99.2805 23.5918 99.2805 20.8601C99.2805 18.1284 97.1469 12.0525 92.6129 11.7379C88.0789 11.4233 89.5623 7.79765 82.2113 7.18509C74.8602 6.57253 66.309 5.04943 65.0755 7.79767C63.842 10.5459 58.4079 9.30421 55.0741 11.7379C51.7402 14.1716 44.9726 17.2178 42.8223 20.8601C40.672 24.5023 36.4046 24.5023 33.0375 26.0254C29.6703 27.5486 22.0192 34.3033 22.636 38.1773C23.2527 42.0513 21.1858 44.8658 18.7522 47.2995Z" fill="#D1EBFF"/>
<path d="M21.0356 53.392C15.3347 59.0375 18.6852 64.716 18.6852 68.7225C18.9025 71.6661 20.1135 74.4508 22.1221 76.626C24.1308 78.8012 26.8195 80.2397 29.7535 80.7088C37.1379 81.7022 40.155 78.7056 45.5225 80.3777C50.8899 82.0498 56.2573 77.7122 56.2573 77.7122C56.2573 77.7122 63.9751 79.7155 67.3255 79.0367C70.676 78.3579 70.0093 77.05 72.693 77.05C78.8799 76.39 84.666 73.6914 89.1287 69.3848C92.5887 65.9342 95.5253 62.0025 97.8466 57.713C101.14 57.5865 104.309 56.4274 106.898 54.4019C110.932 51.0907 112.182 40.6607 112.182 35.6609C112.182 30.6611 109.248 27.383 109.248 24.4196C109.248 21.4561 106.898 14.7676 101.881 14.4862C96.8632 14.2047 98.5467 10.1651 90.4622 9.51948C82.3777 8.8738 73.0264 7.18512 71.6928 10.1817C70.3593 13.1783 64.3085 11.8373 60.608 14.5027C56.9074 17.1682 49.5397 20.5124 47.1894 24.4361C44.839 28.3598 40.1549 28.4426 36.4711 30.0982C32.7872 31.7537 24.386 39.1044 25.0528 43.4255C25.7195 47.7465 23.7193 50.7265 21.0356 53.392Z" fill="white"/>
<path d="M32.787 81.5366C31.7441 81.5379 30.7025 81.466 29.6698 81.3214C26.5803 80.8338 23.7471 79.3244 21.6292 77.0377C19.5114 74.7509 18.2331 71.821 18.0015 68.7225C17.9569 67.6474 17.8175 66.5782 17.5848 65.5273C16.9013 61.9181 16.0511 57.415 20.5351 52.945C22.8188 50.6934 25.0524 47.7962 24.3857 43.4917C23.6689 38.8064 32.2702 31.2571 36.1541 29.5022C37.2976 29.0207 38.4727 28.6169 39.6713 28.2936C42.455 27.4658 45.072 26.638 46.6056 24.0884C48.2725 21.1415 52.5398 18.6251 56.2404 16.4066C57.7239 15.5292 59.1241 14.751 60.1909 13.9067C62.0719 12.769 64.1845 12.0621 66.3751 11.8372C68.5754 11.473 70.4757 11.1419 71.0591 9.83402C71.6425 8.52612 73.6095 7.73145 77.2434 7.73145C79.7604 7.73145 82.7775 8.02946 85.978 8.36057C87.4782 8.50957 88.9951 8.67512 90.4786 8.79101C91.8955 8.78773 93.2985 9.06744 94.6043 9.61351C95.9101 10.1596 97.092 10.9609 98.0797 11.9697C98.5481 12.5181 99.1265 12.9634 99.7781 13.277C100.43 13.5906 101.14 13.7656 101.864 13.7908C107.531 14.1716 109.831 21.4395 109.831 24.403C109.966 25.7789 110.35 27.1193 110.965 28.3598C112.067 30.6376 112.681 33.1184 112.765 35.6443C112.765 39.7335 111.782 51.1238 107.248 54.8654C104.657 56.9203 101.489 58.1289 98.1797 58.3255C95.8519 62.5388 92.9397 66.4065 89.5285 69.8152C84.938 74.2273 78.9947 76.9893 72.6427 77.6626C71.8769 77.5994 71.1169 77.8372 70.5258 78.3248C69.6072 79.0163 68.5306 79.4713 67.392 79.6492C66.8038 79.7568 66.2064 79.8067 65.6084 79.7982C62.4793 79.6393 59.3743 79.1679 56.3404 78.391C53.9275 80.1949 51.0227 81.2335 48.0058 81.371C47.0743 81.3749 46.1473 81.241 45.2554 80.9737C42.9413 80.3941 40.5185 80.3941 38.2044 80.9737C36.4197 81.3251 34.6063 81.5135 32.787 81.5366ZM77.2934 8.97312C74.3597 8.97312 72.6594 9.42013 72.2927 10.3307C71.4259 12.2512 69.1256 12.6485 66.6752 13.0624C64.6709 13.2551 62.7349 13.8885 61.0077 14.9166C59.9075 15.7113 58.474 16.5722 56.9571 17.4827C53.3899 19.6184 49.3393 22.0356 47.7724 24.7176C45.9889 27.7473 43.005 28.6247 40.1213 29.469C38.9877 29.7888 37.8744 30.1758 36.7875 30.6279C32.8869 32.3994 25.1192 39.5183 25.736 43.293C26.4861 48.1604 24.069 51.3391 21.5353 53.8224C17.5181 57.8289 18.2015 61.8022 18.935 65.2955C19.1777 66.4234 19.3227 67.57 19.3684 68.7225C19.5862 71.5169 20.7433 74.1575 22.6539 76.2202C24.5644 78.2829 27.1176 79.648 29.9032 80.0963C30.8813 80.2267 31.8668 80.293 32.8536 80.2949C34.6238 80.2662 36.3874 80.0722 38.1211 79.7155C40.6331 79.0943 43.2601 79.0943 45.7721 79.7155C46.5445 79.9502 47.3481 80.0674 48.1558 80.0631C50.9786 79.8909 53.6845 78.8817 55.9237 77.1659C55.9988 77.1034 56.0882 77.0602 56.1841 77.04C56.28 77.0198 56.3794 77.0232 56.4737 77.05C59.5042 77.8218 62.6021 78.3041 65.7251 78.4903C66.2443 78.4998 66.7633 78.461 67.2753 78.3745C68.2346 78.2254 69.1405 77.8382 69.909 77.2487C70.7159 76.6122 71.7308 76.2939 72.7594 76.3547C78.7779 75.6967 84.4035 73.0633 88.7451 68.8715C92.1531 65.4681 95.055 61.5992 97.363 57.3819C97.4112 57.2774 97.4887 57.189 97.5863 57.1274C97.6839 57.0657 97.7974 57.0333 97.9131 57.0342C101.063 56.8986 104.09 55.7806 106.564 53.839C110.265 50.7927 111.565 41.0249 111.565 35.6277C111.483 33.2704 110.915 30.9548 109.898 28.8234C109.211 27.4342 108.792 25.9291 108.665 24.3864C108.665 21.3568 106.264 15.2974 101.864 15.016C100.995 14.9771 100.143 14.7651 99.3581 14.3925C98.5734 14.0199 97.8723 13.4944 97.2963 12.8471C96.0295 11.622 94.7125 10.3638 90.4453 10.0161C88.9617 9.90024 87.4449 9.7347 85.928 9.5857C82.7275 9.27114 79.7438 8.97312 77.2934 8.97312Z" fill="#03336E"/>
<path d="M28.8373 59.2361H28.7039C28.6238 59.2203 28.5475 59.1889 28.4797 59.1436C28.4119 59.0983 28.3538 59.0401 28.3088 58.9723C28.2638 58.9045 28.2329 58.8286 28.2177 58.7488C28.2026 58.669 28.2035 58.5871 28.2206 58.5077C28.2206 58.5077 28.3373 57.9448 28.754 55.7925C29.101 54.7264 29.6566 53.7388 30.3888 52.8865C31.1211 52.0342 32.0158 51.3339 33.0213 50.8258C33.6683 50.1454 34.1327 49.3142 34.3715 48.4087C34.6807 47.0911 35.4407 45.9208 36.5217 45.0976C38.1886 44.2864 42.0059 42.1838 42.0392 42.1507C42.1834 42.0873 42.3462 42.0795 42.4958 42.129C42.6454 42.1785 42.7711 42.2817 42.8482 42.4183C42.9254 42.5549 42.9483 42.7152 42.9127 42.8677C42.8772 43.0203 42.7856 43.1542 42.656 43.2433C42.4893 43.2433 38.7554 45.3956 37.0885 46.2068C36.4384 46.5379 35.9549 47.763 35.5382 48.8392C35.2324 50.0021 34.589 51.05 33.688 51.8523C31.951 52.723 30.6238 54.2313 29.9875 56.0574C29.5708 58.2593 29.4374 58.8057 29.4374 58.8057C29.3977 58.9323 29.3178 59.0426 29.2096 59.1202C29.1014 59.1979 28.9708 59.2385 28.8373 59.2361Z" fill="#03336E"/>
<path d="M37.1714 68.0438C37.0406 68.0448 36.9127 68.0056 36.8052 67.9315C36.6978 67.8574 36.6161 67.752 36.5713 67.6299C36.5185 67.4719 36.5309 67.2994 36.6059 67.1505C36.6809 67.0015 36.8123 66.8881 36.9714 66.8353C37.9215 66.5207 40.5385 65.4115 41.1386 64.236C41.9387 62.5805 45.5392 58.2429 50.0732 58.1435C54.9739 58.0442 62.4417 56.9681 63.4085 55.4284C64.1919 54.2695 64.442 53.5245 64.2586 52.9451C64.0753 52.3656 63.2752 51.753 61.9583 51.2895L61.2748 51.0412C57.3742 49.6008 53.7071 48.2598 54.0071 46.0745C54.5099 44.4468 55.4909 43.0056 56.8242 41.9355C56.9424 41.8213 57.1009 41.7573 57.2659 41.7573C57.4309 41.7573 57.5894 41.8213 57.7077 41.9355C57.819 42.0549 57.8808 42.2116 57.8808 42.3743C57.8808 42.537 57.819 42.6936 57.7077 42.813C56.6129 43.6734 55.7816 44.8201 55.3073 46.1241C55.1407 47.2665 59.1412 48.7399 61.775 49.7002L62.4583 49.9485C64.1253 50.5942 65.1754 51.3888 65.5088 52.3987C65.6233 53.0273 65.5944 53.6734 65.4242 54.2894C65.254 54.9054 64.9468 55.4757 64.5253 55.9582C62.8584 58.4415 53.307 59.17 50.0899 59.2693C46.1893 59.2693 42.9389 63.3255 42.2554 64.683C41.322 66.5207 37.7715 67.7624 37.3714 67.8948C37.3216 67.9636 37.2518 68.0157 37.1714 68.0438Z" fill="#03336E"/>
<path d="M56.2593 78.3248C56.1265 78.3246 55.997 78.2829 55.8893 78.2057C55.7816 78.1284 55.7011 78.0195 55.6591 77.8943C55.3215 76.6595 55.4768 75.3429 56.0925 74.219C56.5605 73.5172 57.1747 72.9235 57.8937 72.4779C58.6126 72.0323 59.4195 71.7453 60.2598 71.6363C65.4606 70.5602 71.7448 60.1467 71.8115 60.0473C71.898 59.905 72.0378 59.8024 72.2002 59.7621C72.3627 59.7217 72.5345 59.7469 72.6783 59.8321C72.7487 59.8731 72.8102 59.9275 72.8593 59.9923C72.9084 60.057 72.944 60.1308 72.9642 60.2093C72.9844 60.2879 72.9886 60.3696 72.9767 60.4498C72.9648 60.53 72.9371 60.607 72.895 60.6764C72.6283 61.1234 66.2274 71.6694 60.5099 72.8448C59.8449 72.9248 59.2042 73.143 58.6297 73.4853C58.0553 73.8276 57.56 74.2863 57.1761 74.8315C56.7223 75.6563 56.6088 76.6238 56.8594 77.5301C56.9064 77.6882 56.8891 77.8582 56.8111 78.0037C56.7332 78.1493 56.6009 78.2586 56.4426 78.3082L56.2593 78.3248Z" fill="#03336E"/>
<path d="M63.3758 71.2721H63.2091C62.5056 70.9949 61.8646 70.5813 61.3237 70.0554C60.7828 69.5296 60.3528 68.902 60.0587 68.2093C59.2815 66.4666 58.8676 64.5856 58.8419 62.6797C58.8418 62.5979 58.8583 62.5169 58.8903 62.4414C58.9223 62.366 58.9693 62.2977 59.0283 62.2406C59.0874 62.1835 59.1573 62.1388 59.2341 62.109C59.3108 62.0792 59.3929 62.065 59.4753 62.0672C59.6389 62.0672 59.7957 62.1317 59.9113 62.2466C60.027 62.3615 60.092 62.5173 60.092 62.6797C60.1228 64.3897 60.4908 66.0771 61.1755 67.6464C61.6279 68.7263 62.4815 69.5919 63.5591 70.0636C63.7174 70.1132 63.8497 70.2225 63.9276 70.368C64.0056 70.5135 64.0229 70.6836 63.9759 70.8417C63.9339 70.9669 63.8534 71.0758 63.7457 71.153C63.638 71.2303 63.5086 71.2719 63.3758 71.2721Z" fill="#03336E"/>
<path d="M41.0726 80.6426C37.4888 80.6426 31.8713 75.6759 31.4712 73.2588C31.4366 72.7826 31.2847 72.3223 31.0289 71.9181C30.7732 71.514 30.4214 71.1784 30.0044 70.941C28.3375 70.047 25.487 70.941 24.5369 71.4376C24.3863 71.506 24.2148 71.5131 24.059 71.4574C23.9033 71.4017 23.7756 71.2876 23.7035 71.1396C23.6671 71.0659 23.646 70.9858 23.6415 70.9038C23.637 70.8219 23.649 70.7399 23.677 70.6626C23.705 70.5854 23.7483 70.5146 23.8044 70.4543C23.8605 70.3941 23.9282 70.3456 24.0035 70.3119C24.1702 70.2291 28.0041 68.4907 30.6711 69.8318C31.2593 70.1612 31.7588 70.6267 32.1273 71.1887C32.4958 71.7507 32.7225 72.3926 32.7881 73.0601C33.0882 74.8647 38.3056 79.4009 41.1227 79.4009H41.306C41.3875 79.3918 41.47 79.3993 41.5484 79.4231C41.6269 79.4468 41.6996 79.4863 41.7621 79.539C41.8246 79.5918 41.8755 79.6567 41.9118 79.7297C41.948 79.8028 41.9688 79.8825 41.9728 79.9638C41.9796 80.0456 41.9698 80.1279 41.9439 80.2059C41.9181 80.2839 41.8767 80.3559 41.8222 80.4177C41.7678 80.4794 41.7015 80.5297 41.6271 80.5655C41.5527 80.6013 41.4719 80.6219 41.3893 80.626L41.0726 80.6426Z" fill="#03336E"/>
<path d="M49.1226 30.8266C49.032 30.8414 48.9392 30.8364 48.8507 30.812C48.7622 30.7876 48.6801 30.7443 48.6101 30.6853C48.5401 30.6262 48.4839 30.5527 48.4453 30.4699C48.4068 30.3872 48.3867 30.297 48.3867 30.2058C48.3867 30.1146 48.4068 30.0244 48.4453 29.9416C48.4839 29.8589 48.5401 29.7854 48.6101 29.7263C48.6801 29.6673 48.7622 29.624 48.8507 29.5996C48.9392 29.5752 49.032 29.5702 49.1226 29.5849C50.9149 29.4126 52.6663 28.9484 54.3067 28.2108C57.9739 26.8698 62.1079 25.3467 64.7916 28.6744C64.8943 28.8044 64.9413 28.9693 64.9226 29.1335C64.9039 29.2976 64.8209 29.4479 64.6916 29.5519C64.5592 29.6498 64.3942 29.6941 64.2301 29.6756C64.066 29.6572 63.9151 29.5774 63.8081 29.4525C61.6911 26.8202 58.3239 28.0618 54.7401 29.4525C52.956 30.2131 51.0582 30.6773 49.1226 30.8266Z" fill="#03336E"/>
<path d="M77.4103 44.0712C77.2612 44.0692 77.1175 44.0149 77.0047 43.918C76.8919 43.8211 76.817 43.6877 76.7935 43.5414C76.2872 39.2731 76.772 34.9463 78.2104 30.8929C80.144 25.9262 76.6602 23.6084 73.2097 21.4231L72.3929 20.8933C68.559 18.3437 68.2089 15.4465 71.0593 9.801C71.0949 9.72764 71.1448 9.66206 71.2061 9.60807C71.2675 9.55408 71.339 9.51279 71.4166 9.48659C71.4942 9.46038 71.5763 9.4498 71.6581 9.45546C71.7398 9.46113 71.8196 9.48291 71.8928 9.51955C71.9672 9.55649 72.0337 9.60763 72.0882 9.67006C72.1428 9.73249 72.1844 9.80499 72.2107 9.8834C72.237 9.96181 72.2475 10.0446 72.2415 10.1271C72.2356 10.2095 72.2135 10.29 72.1762 10.3639C69.3258 15.9928 70.2426 17.9795 73.093 19.8668L73.8931 20.3801C77.2269 22.4992 81.6109 25.3468 79.3105 31.3399C77.968 35.1972 77.5068 39.303 77.9603 43.3593C77.9842 43.5239 77.9416 43.6912 77.8416 43.8246C77.7417 43.958 77.5925 44.0467 77.4269 44.0712H77.4103Z" fill="#03336E"/>
<path d="M70.7269 34.8C70.02 34.8057 69.3132 34.7725 68.6099 34.7007C68.4447 34.6839 68.2928 34.6034 68.1868 34.4764C68.0808 34.3495 68.0292 34.1862 68.0431 34.0219C68.0679 33.8595 68.1542 33.7125 68.2843 33.611C68.4143 33.5095 68.5785 33.4611 68.7433 33.4756C68.7433 33.4756 76.5945 34.2868 78.228 30.8432C78.3031 30.6981 78.432 30.5877 78.5875 30.5352C78.743 30.4827 78.9129 30.4922 79.0615 30.5618C79.1362 30.5938 79.2035 30.6406 79.2595 30.6994C79.3154 30.7581 79.3588 30.8275 79.3868 30.9034C79.4149 30.9793 79.4271 31.06 79.4228 31.1408C79.4184 31.2215 79.3976 31.3005 79.3615 31.373C77.9613 34.3364 73.4607 34.8 70.7269 34.8Z" fill="#03336E"/>
<path d="M93.0634 36.5384C92.8954 36.5377 92.7341 36.4725 92.6135 36.3563C90.5798 34.3199 91.1298 31.6048 94.4136 27.5321C95.051 26.7692 95.5004 25.8691 95.7261 24.9034C95.9518 23.9378 95.9476 22.9331 95.7139 21.9694C95.4053 20.7687 94.8409 19.6479 94.0587 18.6825C93.2765 17.7171 92.2947 16.9297 91.1798 16.3736C91.0538 16.2898 90.9621 16.164 90.9215 16.0189C90.8809 15.8737 90.8942 15.719 90.9588 15.5827C91.0233 15.4464 91.135 15.3376 91.2734 15.2762C91.4119 15.2147 91.568 15.2047 91.7133 15.2478C93.0041 15.8771 94.1402 16.78 95.0417 17.8927C95.9431 19.0054 96.5879 20.3009 96.9307 21.6879C97.2104 22.8354 97.2159 24.0318 96.9468 25.1817C96.6776 26.3316 96.1412 27.403 95.3805 28.3102C91.8133 32.7306 92.43 34.4192 93.4969 35.4788C93.5558 35.5359 93.6027 35.6041 93.6347 35.6794C93.6667 35.7548 93.6832 35.8357 93.6832 35.9175C93.6832 35.9993 93.6667 36.0802 93.6347 36.1556C93.6027 36.2309 93.5558 36.2992 93.4969 36.3563C93.3813 36.47 93.2261 36.5352 93.0634 36.5384Z" fill="#03336E"/>
<path d="M97.8482 58.3421H97.7149C96.7547 58.2305 95.8424 57.8641 95.0739 57.2815C94.3055 56.6989 93.7092 55.9215 93.3476 55.031C92.0808 51.5046 94.8477 46.7532 96.4813 44.6837C97.2977 43.6862 98.2388 42.796 99.2818 42.0348C100.037 41.5688 100.667 40.9275 101.117 40.1661C101.567 39.4047 101.824 38.5461 101.866 37.6641C101.9 37.5089 101.993 37.3724 102.124 37.2821C102.256 37.1919 102.417 37.1545 102.576 37.1776C102.734 37.2006 102.878 37.2824 102.978 37.4065C103.078 37.5305 103.127 37.6876 103.116 37.8462C103.05 38.8861 102.737 39.8959 102.204 40.7935C101.672 41.691 100.933 42.451 100.049 43.0116C99.0834 43.713 98.2149 44.5367 97.4648 45.4618C95.7979 47.6141 93.5142 51.8192 94.5311 54.6171C94.8292 55.3032 95.306 55.8981 95.9125 56.3404C96.519 56.7826 97.2332 57.0564 97.9816 57.1336C98.1413 57.1693 98.2809 57.2652 98.371 57.401C98.4612 57.5369 98.4948 57.7021 98.4649 57.862C98.4313 57.9992 98.3522 58.1211 98.2403 58.2082C98.1284 58.2952 97.9903 58.3424 97.8482 58.3421Z" fill="#03336E"/>
<path d="M73.7269 74.6991H73.6102C73.53 74.6833 73.4538 74.6519 73.3859 74.6066C73.3181 74.5613 73.26 74.5031 73.215 74.4353C73.17 74.3675 73.1391 74.2916 73.124 74.2118C73.1088 74.132 73.1098 74.0501 73.1268 73.9707C73.5102 71.8681 75.6438 70.196 77.8775 68.408C80.0515 66.9394 81.896 65.0398 83.2949 62.8287C85.6619 58.3587 82.6282 51.8026 82.5948 51.7364C82.5514 51.5921 82.5616 51.4371 82.6234 51.2996C82.6853 51.162 82.7948 51.0511 82.932 50.987C83.0692 50.9229 83.2251 50.9098 83.3712 50.9501C83.5173 50.9904 83.644 51.0814 83.7283 51.2066C83.8617 51.5046 87.0621 58.3918 84.4117 63.4081C82.919 65.7642 80.9631 67.797 78.661 69.3847C76.6107 71.0403 74.6603 72.5469 74.3436 74.2024C74.3132 74.3426 74.2355 74.4683 74.1234 74.5587C74.0112 74.649 73.8713 74.6985 73.7269 74.6991Z" fill="#03336E"/>
<path d="M15.3009 46.5876C15.161 46.592 15.0243 46.5448 14.9174 46.4552C14.8526 46.4064 14.7983 46.3454 14.7574 46.2757C14.7164 46.2059 14.6898 46.1288 14.6789 46.0488C14.6681 45.9688 14.6733 45.8875 14.6942 45.8095C14.7151 45.7315 14.7512 45.6584 14.8007 45.5943C16.4524 43.3391 17.2973 40.6002 17.2011 37.8131C17.0657 35.7517 17.2003 33.6815 17.6012 31.6544C16.2677 33.7073 14.4507 35.6278 12.3003 35.6278C12.1353 35.6235 11.9785 35.5553 11.8633 35.4378C11.7481 35.3203 11.6835 35.1627 11.6836 34.9987C11.6836 34.8362 11.7486 34.6804 11.8643 34.5655C11.9799 34.4506 12.1368 34.3861 12.3003 34.3861C15.3341 34.3861 18.0513 28.5751 18.8514 26.3401C18.8757 26.2626 18.9155 26.191 18.9687 26.1294C19.0218 26.0678 19.0871 26.0177 19.1605 25.9821C19.2338 25.9464 19.3137 25.926 19.3953 25.9221C19.4768 25.9182 19.5583 25.9308 19.6348 25.9593C19.7887 26.0088 19.917 26.1163 19.9918 26.2587C20.0666 26.4012 20.082 26.5672 20.0348 26.7208C20.0348 26.7208 18.0012 33.5087 18.3679 37.6807C18.5035 40.7825 17.5685 43.8373 15.7176 46.3393C15.668 46.4059 15.6057 46.4621 15.5341 46.5047C15.4626 46.5474 15.3834 46.5755 15.3009 46.5876Z" fill="#03336E"/>
<path d="M35.7726 24.2044H35.5726C33.2056 23.3766 32.6722 20.8932 32.2388 18.8072C31.8054 16.7212 31.4554 15.4961 30.3885 15.314C29.3217 15.1319 28.7216 14.6186 28.4716 13.9067C28.1882 12.6485 29.7551 11.3737 30.1385 11.142C30.2689 11.0432 30.4335 10.9999 30.5961 11.0216C30.7586 11.0433 30.9058 11.1283 31.0053 11.2579C31.1048 11.3874 31.1483 11.5508 31.1265 11.7123C31.1046 11.8737 31.019 12.02 30.8886 12.1188C30.2885 12.5823 29.6718 13.3273 29.7551 13.6419C29.8385 13.9564 30.0385 13.973 30.6886 14.1054C32.6389 14.5193 33.0889 16.5722 33.5057 18.5423C33.9224 20.5125 34.3557 22.4495 36.0727 23.0455C36.1497 23.0731 36.2205 23.1157 36.2808 23.1708C36.3411 23.2259 36.3897 23.2924 36.4239 23.3664C36.458 23.4404 36.477 23.5204 36.4796 23.6017C36.4823 23.6831 36.4687 23.7641 36.4394 23.8401C36.3853 23.9662 36.2902 24.0705 36.1693 24.1366C36.0484 24.2026 35.9088 24.2265 35.7726 24.2044Z" fill="#03336E"/>
<path d="M48.4223 16.655C48.2909 16.6551 48.1627 16.6146 48.0555 16.5391C47.9895 16.4916 47.9336 16.4315 47.8911 16.3624C47.8486 16.2932 47.8204 16.2164 47.808 16.1363C47.7956 16.0563 47.7992 15.9746 47.8188 15.8959C47.8385 15.8173 47.8736 15.7433 47.9222 15.6782C48.5658 14.8963 48.9602 13.9417 49.0552 12.9362C49.1502 11.9307 48.9414 10.9199 48.4555 10.0328C48.0221 8.90697 47.5054 7.61563 48.6722 6.45673C50.1457 4.97167 52.1412 4.11128 54.2398 4.05616H54.7899C54.9555 4.03744 55.1217 4.0843 55.2528 4.18657C55.3838 4.28883 55.4691 4.43827 55.4899 4.6025C55.5045 4.76616 55.4557 4.92919 55.3535 5.05838C55.2513 5.18757 55.1034 5.2732 54.9398 5.29784H54.3731C52.5592 5.31642 50.8268 6.04876 49.5558 7.3342C49.0223 7.86398 49.139 8.34408 49.5558 9.5692C50.1223 10.6489 50.3593 11.8693 50.2379 13.0809C50.1165 14.2924 49.6419 15.4425 48.8723 16.3901C48.8214 16.4643 48.7547 16.5265 48.6769 16.5723C48.5991 16.6181 48.5123 16.6463 48.4223 16.655Z" fill="#03336E"/>
</g>
<defs>
<clipPath id="clip0_2_165">
<rect width="115" height="87" fill="white"/>
</clipPath>
</defs>
</svg>
