<svg width="125" height="170" viewBox="0 0 125 170" fill="none" xmlns="http://www.w3.org/2000/svg">
<g clip-path="url(#clip0_2_263)">
<path d="M54.529 169.023L13.0042 144.952C10.5081 143.536 10.8202 140.987 13.6991 139.288L50.1468 125.298C51.6271 124.471 53.2814 124.003 54.9764 123.931C56.6713 123.86 58.3592 124.188 59.904 124.888L87.8141 141.214C90.3243 142.629 90.0124 145.178 87.1192 146.877L64.2862 168.626C62.8037 169.448 61.1491 169.912 59.4548 169.981C57.7604 170.05 56.0735 169.722 54.529 169.023Z" fill="#D1EBFF"/>
<path d="M52.5441 165.88L15.8978 144.64C15.4863 144.459 15.1304 144.173 14.8662 143.81C14.6021 143.446 14.4393 143.02 14.3945 142.573V138.325C14.3945 137.362 15.1178 139.033 16.4935 138.24L48.6582 125.893C49.9648 125.164 51.4248 124.752 52.9202 124.691C54.4156 124.629 55.9045 124.92 57.2667 125.539L81.9008 139.939C82.6383 140.364 83.163 138.523 83.319 139.146C83.319 139.33 83.319 143.394 83.319 143.592C83.2501 144.209 83.0181 144.797 82.6467 145.294C82.2754 145.792 81.778 146.182 81.2058 146.424L61.1951 165.526C59.8831 166.261 58.4155 166.677 56.9121 166.738C55.4086 166.8 53.9119 166.506 52.5441 165.88Z" fill="#D1EBFF"/>
<path d="M56.2752 167.267C54.8856 167.303 53.5095 166.987 52.2759 166.347L15.6296 145.107C15.1373 144.868 14.7162 144.504 14.4078 144.052C14.0994 143.6 13.9144 143.076 13.8711 142.53V138.183C13.8711 137.433 14.3816 137.376 14.5376 137.376C14.7406 137.393 14.9359 137.461 15.1049 137.575C15.265 137.703 15.4596 137.781 15.6642 137.799C15.8687 137.816 16.0739 137.773 16.2537 137.674L48.4326 125.284C49.8239 124.561 51.3592 124.156 52.9269 124.1C54.4946 124.043 56.0551 124.337 57.4949 124.958L82.129 139.373L82.4693 138.934C82.6679 138.651 82.8664 138.382 83.221 138.382C83.3616 138.384 83.4975 138.432 83.6078 138.519C83.7181 138.606 83.7965 138.727 83.8308 138.863C83.9325 140.197 83.9325 141.536 83.8308 142.87C83.8308 143.196 83.8308 143.422 83.8308 143.465C83.7694 144.18 83.5174 144.866 83.101 145.451C82.6845 146.036 82.1187 146.499 81.4624 146.792L61.4233 165.908C59.8531 166.796 58.0798 167.264 56.2752 167.267ZM14.9347 138.707V142.573C14.9746 142.935 15.1097 143.281 15.3264 143.574C15.5431 143.868 15.8336 144.099 16.1686 144.244L52.8148 165.483C54.1023 166.026 55.4951 166.275 56.8914 166.211C58.2876 166.148 59.6519 165.773 60.8844 165.115L80.9235 145.999C82.2141 145.235 82.8948 144.371 82.8664 143.55C82.8664 143.55 82.8664 143.267 82.8664 142.913V140.18C82.7026 140.33 82.4967 140.427 82.2762 140.458C82.0557 140.488 81.8311 140.45 81.6326 140.35L56.9985 125.935C55.711 125.392 54.3182 125.143 52.922 125.207C51.5257 125.271 50.1615 125.645 48.929 126.303L16.6933 138.679C16.4186 138.807 16.1201 138.875 15.817 138.88C15.514 138.885 15.2134 138.826 14.9347 138.707Z" fill="#03336E"/>
<path d="M52.5449 161.632L15.8987 140.392C13.6863 139.132 13.9699 136.909 16.5085 135.436L48.6733 123.089C49.9802 122.363 51.4392 121.951 52.9338 121.887C54.4284 121.823 55.9173 122.109 57.2817 122.721L81.9158 137.136C84.114 138.41 83.8446 140.633 81.2918 142.091L61.1959 161.278C59.884 162.013 58.4164 162.429 56.913 162.49C55.4095 162.552 53.9128 162.258 52.5449 161.632Z" fill="white"/>
<path d="M56.2894 163.019C54.8951 163.057 53.5139 162.741 52.2759 162.099L15.6296 140.86C15.1268 140.622 14.6978 140.254 14.3881 139.792C14.0785 139.331 13.8998 138.795 13.8711 138.24C13.9477 137.535 14.2079 136.862 14.6259 136.288C15.0439 135.714 15.6051 135.259 16.2537 134.969L48.4326 122.58C49.8217 121.849 51.3577 121.441 52.9265 121.384C54.4954 121.328 56.0568 121.625 57.4949 122.254L82.129 136.668C82.629 136.904 83.0555 137.271 83.3627 137.73C83.67 138.189 83.8465 138.722 83.8733 139.274C83.7968 139.977 83.5381 140.649 83.1229 141.222C82.7076 141.796 82.1501 142.251 81.505 142.545L61.4658 161.66C59.8875 162.553 58.1037 163.022 56.2894 163.019ZM53.5381 122.381C51.9341 122.371 50.3535 122.765 48.9431 123.528L16.7075 135.918C16.2418 136.123 15.8354 136.442 15.5256 136.846C15.2158 137.249 15.0126 137.724 14.9347 138.226C14.9726 138.592 15.1066 138.943 15.3233 139.241C15.5399 139.539 15.8314 139.775 16.1686 139.925L52.8148 161.164C54.1023 161.708 55.4951 161.956 56.8913 161.893C58.2876 161.829 59.6519 161.454 60.8844 160.796L80.9235 141.681C82.1999 140.93 82.8664 140.081 82.8664 139.26C82.8285 138.895 82.6961 138.547 82.4822 138.249C82.2683 137.951 81.9804 137.713 81.6468 137.56L57.0127 123.174C55.941 122.619 54.745 122.346 53.5381 122.381Z" fill="#03336E"/>
<path d="M79.7023 137.985L56.5574 124.449C55.2749 123.869 53.8743 123.599 52.4679 123.658C51.0616 123.717 49.6887 124.104 48.4594 124.788L33.2422 130.636C33.39 130.756 33.5464 130.865 33.7102 130.962L68.144 150.927C68.6595 151.21 69.2138 151.415 69.7891 151.536L79.1209 142.658C81.5177 141.27 81.7729 139.189 79.7023 137.985Z" fill="#D1EBFF"/>
<path d="M109.414 162.807L9.78522 105.319C4.67971 102.388 0.552734 94.5011 0.552734 87.7187V11.6392C0.552734 4.85677 4.67971 1.72751 9.78522 4.6727L109.414 62.1606C114.519 65.1058 118.646 72.9785 118.646 79.761V155.84C118.618 162.623 114.491 165.738 109.414 162.807Z" fill="white"/>
<path d="M113.059 164.435C111.667 164.404 110.31 163.998 109.13 163.26L9.48775 105.758C4.2546 102.742 0 94.6427 0 87.6903V11.6392C0 6.41428 2.38259 3.04431 6.08408 3.04431C7.47456 3.0826 8.83002 3.4881 10.0125 4.21954L109.655 61.7075C114.888 64.7235 119.143 72.8227 119.143 79.7609V155.84C119.143 161.065 116.76 164.435 113.059 164.435ZM6.08408 4.10628C3.03496 4.10628 1.06365 7.06562 1.06365 11.6392V87.7186C1.06365 94.3311 5.07715 102.02 10.0125 104.866L109.655 162.396C110.678 163.036 111.853 163.393 113.059 163.43C116.108 163.43 118.079 160.485 118.079 155.897V79.7609C118.079 73.1626 114.066 65.4739 109.13 62.6278L9.48775 5.13992C8.46502 4.50023 7.29035 4.1435 6.08408 4.10628Z" fill="#03336E"/>
<path d="M110.578 157.511L12.3397 100.873C10.2427 99.3937 8.54114 97.4236 7.384 95.1352C6.22686 92.8468 5.6495 90.3099 5.70257 87.747V11.1436C5.69931 10.8541 5.77339 10.569 5.9172 10.3177C6.06101 10.0663 6.26935 9.85775 6.52074 9.7135C6.77212 9.56925 7.05749 9.49452 7.34743 9.49701C7.63736 9.4995 7.92136 9.57909 8.17022 9.72763L8.45388 9.88339L106.806 66.6209C111.685 69.4528 113.443 74.4228 113.443 79.7468V156.081C113.444 156.392 113.364 156.697 113.209 156.967C113.055 157.236 112.832 157.46 112.563 157.617C112.294 157.773 111.989 157.856 111.678 157.858C111.367 157.859 111.061 157.779 110.791 157.625L110.578 157.511Z" fill="#0566A1"/>
<path d="M111.668 158.389C111.27 158.392 110.879 158.289 110.533 158.092L110.377 158.007L12.0819 101.368C9.90216 99.8455 8.13179 97.81 6.92719 95.4416C5.72259 93.0733 5.12088 90.4451 5.17526 87.7894V11.1436C5.17898 10.5702 5.40877 10.0213 5.81489 9.61582C6.22102 9.21034 6.77077 8.98089 7.3451 8.97717C7.72923 8.97671 8.10639 9.07943 8.4371 9.27454L8.72076 9.44444L107.059 66.1819C111.583 68.7731 113.965 73.4741 113.965 79.761V156.095C113.965 156.396 113.906 156.695 113.79 156.973C113.675 157.251 113.506 157.504 113.292 157.717C113.079 157.93 112.826 158.099 112.547 158.215C112.268 158.33 111.969 158.389 111.668 158.389ZM7.30256 10.0391C7.00918 10.0391 6.72781 10.1555 6.52036 10.3626C6.31291 10.5698 6.19636 10.8507 6.19636 11.1436V87.7186C6.13074 90.2026 6.67861 92.6645 7.79162 94.887C8.90463 97.1095 10.5486 99.0243 12.5783 100.462L111.015 157.242C111.204 157.345 111.416 157.397 111.631 157.393C111.845 157.39 112.056 157.331 112.241 157.223C112.426 157.115 112.581 156.961 112.689 156.776C112.797 156.59 112.856 156.38 112.859 156.166V79.761C112.859 75.6547 111.753 70.1324 106.491 67.1023L8.01166 10.2516C7.80011 10.1153 7.55427 10.0417 7.30256 10.0391Z" fill="#03336E"/>
<path d="M115.242 59.1163L15.5998 1.62842C14.8201 1.09806 13.93 0.751158 12.9965 0.613815C12.0631 0.476471 11.1105 0.552249 10.2107 0.835469C10.0121 0.920426 4.19753 3.93643 4.02734 4.03555C4.96092 3.65343 5.97531 3.51027 6.97839 3.61908C7.98147 3.72788 8.94142 4.08521 9.77103 4.65857L109.414 62.1607C114.519 65.1059 118.646 72.9786 118.646 79.761V155.84C118.646 160.088 117.029 162.92 114.59 163.671C114.881 163.666 115.163 163.572 115.398 163.402C115.512 163.402 121.539 160.103 121.653 160.018C123.397 158.8 124.489 156.279 124.489 152.796V76.7167C124.461 69.9343 120.334 62.0474 115.242 59.1163Z" fill="#D1EBFF"/>
<path d="M114.59 164.209C114.465 164.203 114.346 164.152 114.255 164.067C114.164 163.981 114.107 163.866 114.093 163.742C114.074 163.62 114.1 163.496 114.165 163.392C114.23 163.288 114.33 163.211 114.448 163.175C116.76 162.425 118.135 159.678 118.135 155.84V79.761C118.135 73.1626 114.122 65.4739 109.186 62.6279L9.5438 5.13996C8.78997 4.60835 7.91464 4.27404 6.9979 4.16767C6.08116 4.0613 5.15234 4.18625 4.29649 4.53108C4.17125 4.57633 4.03365 4.57368 3.91026 4.52363C3.78687 4.47358 3.68644 4.37967 3.62829 4.26004C3.57014 4.14041 3.55843 4.00353 3.5954 3.87578C3.63237 3.74803 3.71537 3.63847 3.82846 3.56824C3.82846 3.56824 9.79911 0.453132 10.0686 0.339856C11.045 0.0311358 12.0786 -0.054078 13.0926 0.090546C14.1066 0.23517 15.0749 0.605914 15.9257 1.17527L115.568 58.649C120.801 61.665 125.056 69.7643 125.056 76.7167V152.796C125.056 156.35 123.964 159.069 121.979 160.456C121.908 160.456 121.44 160.768 117.185 163.062L115.682 163.869C115.355 164.078 114.978 164.196 114.59 164.209ZM6.94852 3.11512C8.0339 3.27272 9.07601 3.64844 10.0118 4.21957L109.654 61.7075C114.888 64.7235 119.142 72.8228 119.142 79.761V155.84C119.205 157.78 118.776 159.704 117.894 161.433L121.34 159.579C122.986 158.432 123.936 155.954 123.936 152.796V76.7167C123.936 70.1041 119.922 62.4155 114.973 59.5694L15.3301 2.09563C14.6204 1.60065 13.8067 1.27442 12.9512 1.14189C12.0958 1.00935 11.2213 1.07404 10.3947 1.33102L6.94852 3.11512Z" fill="#03336E"/>
</g>
<defs>
<clipPath id="clip0_2_263">
<rect width="125" height="170" fill="white"/>
</clipPath>
</defs>
</svg>
