<svg width="75" height="91" viewBox="0 0 75 91" fill="none" xmlns="http://www.w3.org/2000/svg">
<g clip-path="url(#clip0_2_200)">
<path d="M14.8208 19.9492L1.0293 27.8857L14.8208 35.8223L28.6124 27.8857L14.8208 19.9492Z" fill="white"/>
<path d="M14.8219 36.8211C14.6526 36.8613 14.4763 36.8613 14.3071 36.8211L0.515606 28.8846C0.357255 28.7987 0.225026 28.6719 0.132923 28.5175C0.0408205 28.3631 -0.0078125 28.1869 -0.0078125 28.0072C-0.0078125 27.8276 0.0408205 27.6514 0.132923 27.497C0.225026 27.3426 0.357255 27.2157 0.515606 27.1299L14.3071 19.1934C14.4626 19.1006 14.6406 19.0516 14.8219 19.0516C15.0032 19.0516 15.1811 19.1006 15.3367 19.1934L29.1012 27.1299C29.256 27.2157 29.3852 27.3409 29.4756 27.4926C29.566 27.6444 29.6144 27.8173 29.616 27.9937C29.6193 28.1748 29.5731 28.3533 29.4824 28.5102C29.3917 28.6671 29.26 28.7965 29.1012 28.8846L15.3367 36.8211C15.167 36.8576 14.9915 36.8576 14.8219 36.8211ZM3.06258 27.8858L14.8219 34.6345L26.5813 27.8588L14.8219 21.11L3.06258 27.8858Z" fill="#037AB4"/>
<path d="M1.0293 57.6072L14.8208 65.5167V35.8223L1.0293 27.8857V57.6072Z" fill="white"/>
<path d="M14.8211 66.5426C14.6519 66.5827 14.4755 66.5827 14.3063 66.5426L0.514834 58.6061C0.359758 58.5138 0.231043 58.3834 0.140916 58.2275C0.0507897 58.0715 0.00225284 57.8952 1.52588e-05 57.7152V28.0208C0.00158194 27.8443 0.0499909 27.6714 0.14042 27.5197C0.23085 27.3679 0.360078 27.2428 0.514834 27.1569C0.665253 27.0636 0.838897 27.0142 1.01609 27.0142C1.19329 27.0142 1.36693 27.0636 1.51735 27.1569L15.309 35.0935C15.4637 35.1793 15.5928 35.3044 15.6832 35.4562C15.7736 35.6079 15.8221 35.7808 15.8236 35.9573V65.6517C15.8214 65.8317 15.773 66.0081 15.6829 66.164C15.5928 66.32 15.464 66.4503 15.309 66.5426C15.1489 66.5826 14.9812 66.5826 14.8211 66.5426ZM2.03217 56.9864L13.7915 63.7621V36.3892L2.03217 29.6135V56.9864Z" fill="#037AB4"/>
<path d="M14.793 65.5167L28.6116 57.6072V27.8857L14.793 35.8223V65.5167Z" fill="#D1EBFF"/>
<path d="M14.8207 66.5427C14.6514 66.5828 14.4751 66.5828 14.3058 66.5427C14.1508 66.4504 14.022 66.3201 13.9319 66.1641C13.8418 66.0082 13.7933 65.8318 13.791 65.6519V35.9574C13.7926 35.7809 13.8412 35.608 13.9316 35.4563C14.022 35.3046 14.1511 35.1794 14.3058 35.0936L28.0975 26.9951C28.2479 26.9018 28.4215 26.8523 28.5987 26.8523C28.7759 26.8523 28.9495 26.9018 29.1 26.9951C29.2547 27.0809 29.384 27.2061 29.4744 27.3578C29.5648 27.5095 29.6132 27.6825 29.6148 27.8589V57.5534C29.6125 57.7333 29.564 57.9097 29.4739 58.0656C29.3838 58.2216 29.255 58.3519 29.1 58.4442L15.3085 66.3807C15.1628 66.476 14.9946 66.5318 14.8207 66.5427ZM15.8232 36.3893V63.7622L27.5826 56.9865V29.6136L15.8232 36.3893Z" fill="#037AB4"/>
<path d="M14.8208 35.0664L1.0293 27.8857L14.8208 35.8223L28.6124 27.8857L14.8208 35.0664Z" fill="white"/>
<path d="M14.8204 36.8211C14.6511 36.8613 14.4748 36.8613 14.3056 36.8211L0.514104 28.8846C0.285682 28.7543 0.117887 28.5397 0.0469143 28.2871C-0.0240587 28.0346 0.0074446 27.7644 0.134729 27.5348C0.261406 27.303 0.472969 27.1288 0.725291 27.0483C0.977613 26.9679 1.25127 26.9874 1.4895 27.1029L14.8204 34.0676L28.1243 27.1029C28.3561 27.018 28.6107 27.0189 28.8419 27.1055C29.073 27.1921 29.2652 27.3585 29.3835 27.5745C29.5017 27.7905 29.5381 28.0416 29.486 28.2821C29.4339 28.5226 29.2968 28.7364 29.0997 28.8846L15.3352 36.8211C15.1655 36.8576 14.99 36.8576 14.8204 36.8211Z" fill="#037AB4"/>
<path d="M37.5259 9.28638L23.7344 17.2229L37.5259 25.1594L51.2904 17.2229L37.5259 9.28638Z" fill="white"/>
<path d="M37.5263 26.1582C37.3571 26.1983 37.1808 26.1983 37.0115 26.1582L23.2201 18.2217C23.0613 18.1336 22.9294 18.0042 22.8387 17.8473C22.748 17.6904 22.702 17.5119 22.7052 17.3308C22.7039 17.1538 22.7511 16.9797 22.8418 16.8275C22.9326 16.6752 23.0634 16.5506 23.2201 16.467L37.0115 8.53046C37.1619 8.43715 37.3356 8.3877 37.5128 8.3877C37.69 8.3877 37.8636 8.43715 38.014 8.53046L51.8057 16.467C51.9623 16.5506 52.0931 16.6752 52.1839 16.8275C52.2746 16.9797 52.3218 17.1538 52.3205 17.3308C52.3182 17.5108 52.2697 17.6871 52.1796 17.8431C52.0894 17.9991 51.9607 18.1294 51.8057 18.2217L38.014 26.1582C37.8539 26.1982 37.6864 26.1982 37.5263 26.1582ZM25.767 17.1958L37.5263 23.9716L49.2858 17.1958L37.5263 10.4201L25.767 17.1958Z" fill="#037AB4"/>
<path d="M23.709 69.6471L37.5276 77.5836V25.1324L23.709 17.2229V69.6471Z" fill="white"/>
<path d="M37.5281 78.5824C37.3589 78.6225 37.1826 78.6225 37.0133 78.5824L23.2219 70.6458C23.0671 70.56 22.9379 70.4348 22.8475 70.2831C22.757 70.1314 22.7086 69.9584 22.7071 69.782V17.1958C22.7057 17.0188 22.7529 16.8447 22.8437 16.6925C22.9344 16.5402 23.0652 16.4156 23.2219 16.332C23.3723 16.2387 23.5459 16.1892 23.7231 16.1892C23.9003 16.1892 24.074 16.2387 24.2244 16.332L38.0158 24.2685C38.1725 24.3521 38.3033 24.4768 38.3941 24.629C38.4848 24.7812 38.532 24.9553 38.5307 25.1323V77.5565C38.5308 77.824 38.426 78.0809 38.2388 78.2725C38.0515 78.4641 37.7965 78.5753 37.5281 78.5824ZM24.7392 69.0531L36.4985 75.8289V25.7262L24.7392 18.9505V69.0531Z" fill="#037AB4"/>
<path d="M37.5 77.5836L51.2915 69.6471V17.2229L37.5 25.1324V77.5836Z" fill="#D1EBFF"/>
<path d="M37.5006 78.5824C37.2322 78.5753 36.9774 78.4641 36.7901 78.2725C36.6029 78.0809 36.498 77.824 36.4981 77.5565V25.1323C36.4968 24.9553 36.5441 24.7812 36.6348 24.629C36.7256 24.4768 36.8562 24.3521 37.0129 24.2685L50.8045 16.332C50.9549 16.2387 51.1286 16.1892 51.3058 16.1892C51.483 16.1892 51.6566 16.2387 51.807 16.332C51.9637 16.4156 52.0945 16.5402 52.1852 16.6925C52.276 16.8447 52.3232 17.0188 52.3218 17.1958V69.647C52.3203 69.8235 52.2719 69.9964 52.1814 70.1481C52.091 70.2999 51.9618 70.425 51.807 70.5109L38.0154 78.4474C37.8573 78.5333 37.6806 78.5796 37.5006 78.5824ZM38.5302 25.7262V75.8289L50.2897 69.0531V18.9505L38.5302 25.7262Z" fill="#037AB4"/>
<path d="M60.1783 1.02576L46.3867 8.96227L60.1783 16.8988L73.9698 8.93528L60.1783 1.02576Z" fill="white"/>
<path d="M60.1791 17.8977C60.0076 17.895 59.8395 17.8485 59.6912 17.7627L45.8997 9.82623C45.741 9.73817 45.6091 9.60875 45.5184 9.45184C45.4277 9.29493 45.3816 9.11642 45.3849 8.93539C45.3836 8.75834 45.4308 8.5843 45.5215 8.43205C45.6123 8.27981 45.7431 8.15515 45.8997 8.07155L59.6642 0.135025C59.8198 0.0422631 59.9978 -0.00671387 60.1791 -0.00671387C60.3604 -0.00671387 60.5383 0.0422631 60.6939 0.135025L74.4853 8.04455C74.6371 8.14048 74.7631 8.27166 74.8528 8.42682C74.9425 8.58198 74.9931 8.75649 75.0002 8.93539C74.9959 9.11127 74.9463 9.28312 74.8561 9.4344C74.766 9.58568 74.6383 9.71131 74.4853 9.79922L60.6125 17.7627C60.4789 17.837 60.3314 17.8829 60.1791 17.8977ZM48.4196 8.93539L60.1791 15.7111L71.9384 8.93539L60.1791 2.15965L48.4196 8.93539Z" fill="#037AB4"/>
<path d="M37.5259 24.4036L23.7344 17.2229L37.5259 25.1594L51.2904 17.2229L37.5259 24.4036Z" fill="white"/>
<path d="M37.5283 26.1582C37.359 26.1984 37.1827 26.1984 37.0134 26.1582L23.222 18.2217C23.0249 18.0735 22.8878 17.8597 22.8357 17.6192C22.7836 17.3787 22.82 17.1276 22.9382 16.9116C23.0565 16.6956 23.2487 16.5292 23.4798 16.4426C23.711 16.3561 23.9656 16.3551 24.1974 16.44L37.5283 23.3777L50.8322 16.44C50.947 16.3746 51.074 16.3331 51.2054 16.3181C51.3369 16.3031 51.47 16.3149 51.5967 16.3527C51.7235 16.3906 51.8412 16.4538 51.9427 16.5384C52.0441 16.623 52.1272 16.7273 52.187 16.845C52.3156 17.0786 52.3479 17.3529 52.2771 17.6099C52.2063 17.8668 52.0379 18.0863 51.8076 18.2217L38.016 26.1582C37.8559 26.1982 37.6884 26.1982 37.5283 26.1582Z" fill="#037AB4"/>
<path d="M60.1783 16.143L46.3867 8.9623L60.1783 16.8988L73.9698 8.9353L60.1783 16.143Z" fill="white"/>
<path d="M60.1801 17.8977C60.0086 17.895 59.8405 17.8485 59.6922 17.7627L45.9008 9.8262C45.6705 9.69075 45.5021 9.47131 45.4313 9.21435C45.3605 8.95739 45.3928 8.68308 45.5214 8.44945C45.5811 8.33182 45.6642 8.22753 45.7657 8.14291C45.8671 8.05829 45.9849 7.99512 46.1116 7.95724C46.2384 7.91936 46.3715 7.90757 46.5029 7.92258C46.6344 7.93758 46.7613 7.97907 46.8762 8.04452L60.1801 14.9822L73.511 8.04452C73.7446 7.91988 74.0183 7.8925 74.2722 7.96838C74.5261 8.04426 74.7395 8.21723 74.8657 8.44945C74.993 8.679 75.0245 8.94921 74.9535 9.20174C74.8826 9.45428 74.7148 9.66888 74.4864 9.7992L60.6135 17.7627C60.4799 17.837 60.3324 17.8829 60.1801 17.8977Z" fill="#037AB4"/>
<path d="M46.3867 82.0377L60.1783 89.9742V16.8718L46.3867 8.9353V82.0377Z" fill="white"/>
<path d="M60.1789 90.973C59.9977 90.9795 59.8186 90.9325 59.6641 90.8381L45.8725 82.9015C45.7228 82.8123 45.599 82.6857 45.5135 82.5341C45.4279 82.3827 45.3836 82.2115 45.3848 82.0377V8.93536C45.3866 8.75843 45.432 8.58465 45.5171 8.42931C45.6021 8.27397 45.7242 8.14183 45.8725 8.04452C46.032 7.96389 46.2084 7.92188 46.3873 7.92188C46.5662 7.92188 46.7426 7.96389 46.9021 8.04452L60.6937 15.981C60.8471 16.0752 60.9745 16.206 61.0643 16.3615C61.1542 16.517 61.2037 16.6925 61.2084 16.8719V89.9742C61.2041 90.1501 61.1547 90.322 61.0645 90.4732C60.9744 90.6245 60.8467 90.7501 60.6937 90.8381C60.5406 90.9357 60.3605 90.9829 60.1789 90.973ZM47.3898 81.5248L59.1762 88.3005V17.4658L47.3898 10.69V81.5248Z" fill="#037AB4"/>
<path d="M60.1797 89.9742L73.9712 82.0377V8.9353L60.1797 16.8718V89.9742Z" fill="#D1EBFF"/>
<path d="M60.1781 90.973C59.9969 90.9795 59.8178 90.9325 59.6633 90.8381C59.5103 90.7501 59.3825 90.6245 59.2923 90.4732C59.2022 90.322 59.1527 90.1501 59.1484 89.9742V16.8719C59.1532 16.6925 59.2026 16.517 59.2925 16.3615C59.3824 16.206 59.5099 16.0752 59.6633 15.981L73.4547 8.04452C73.6142 7.96389 73.7906 7.92188 73.9695 7.92188C74.1484 7.92188 74.3248 7.96389 74.4843 8.04452C74.6394 8.13679 74.7681 8.26713 74.8583 8.42309C74.9484 8.57904 74.9969 8.75542 74.9992 8.93536V82.0377C75.0005 82.2148 74.9533 82.3888 74.8626 82.541C74.7718 82.6933 74.641 82.8179 74.4843 82.9015L60.6115 90.8381C60.4806 90.9184 60.3316 90.9648 60.1781 90.973ZM61.1806 17.4658V88.2195L72.967 81.4438V10.69L61.1806 17.4658Z" fill="#037AB4"/>
</g>
<defs>
<clipPath id="clip0_2_200">
<rect width="75" height="91" fill="white"/>
</clipPath>
</defs>
</svg>
