<svg width="86" height="97" viewBox="0 0 86 97" fill="none" xmlns="http://www.w3.org/2000/svg">
<g clip-path="url(#clip0_2_190)">
<path d="M85.4521 62.4636C85.4521 55.2937 80.3716 46.5601 74.1243 42.9456C72.7266 42.1088 71.1552 41.604 69.5312 41.4703C69.5312 41.3671 69.5312 41.2785 69.5312 41.1753C69.5312 27.3076 59.7245 10.4008 47.6139 3.40797C40.8202 -0.50154 34.8978 0.0148104 30.7329 2.8031L23.7324 6.78637C19.7891 4.73572 16.2593 4.75048 13.7633 6.46181L5.43359 11.345C7.97387 10.2385 11.3412 10.5926 14.9891 12.717C15.789 13.1769 16.5542 13.6946 17.2784 14.2661C20.1436 5.84219 28.3847 3.31945 38.1174 8.92553C50.228 15.9184 60.0346 32.8252 60.0346 46.6928V46.9879C61.6543 47.1202 63.2213 47.6251 64.6131 48.4632C67.9129 50.6006 70.6603 53.4868 72.6315 56.8864C74.6026 60.2859 75.7416 64.1027 75.9557 68.0255C76.0444 69.2392 75.8729 70.4578 75.4527 71.6001C75.0324 72.7424 74.3731 73.782 73.5187 74.6495L81.7747 69.9728C84.0343 68.8369 85.4521 66.2551 85.4521 62.4636Z" fill="#D1EBFF"/>
<path d="M73.5199 75.1511C73.4321 75.1526 73.3453 75.1317 73.2678 75.0904C73.1903 75.0491 73.1246 74.9887 73.0769 74.915C72.9967 74.8059 72.9612 74.6704 72.9776 74.536C72.9941 74.4017 73.0613 74.2787 73.1655 74.1921C73.9501 73.3784 74.5542 72.4087 74.9384 71.3462C75.3227 70.2837 75.4785 69.1522 75.3956 68.0254C75.1797 64.2133 74.0685 60.5054 72.1518 57.2017C70.2352 53.8981 67.5671 51.0915 64.3632 49.009C63.042 48.1929 61.552 47.6884 60.0063 47.5337C59.864 47.5261 59.7303 47.4632 59.6337 47.3585C59.5371 47.2537 59.4853 47.1155 59.4894 46.9731V46.8109C59.4894 33.0169 49.7862 16.2872 37.8528 9.41237C34.9888 7.60533 31.6972 6.58736 28.312 6.4618C23.2905 6.4618 19.5688 9.29434 17.826 14.4283C17.7972 14.5109 17.7484 14.585 17.684 14.6442C17.6196 14.7034 17.5416 14.7458 17.4568 14.7677C17.3751 14.7978 17.2867 14.8054 17.201 14.7899C17.1153 14.7743 17.0353 14.7361 16.9694 14.6791C16.2517 14.1425 15.502 13.6498 14.7245 13.2039C11.3571 11.2565 8.1375 10.7844 5.67107 11.8613C5.54108 11.9189 5.39408 11.925 5.25975 11.8784C5.12542 11.8319 5.01379 11.7361 4.9474 11.6105C4.88379 11.4848 4.87132 11.3393 4.91261 11.2046C4.9539 11.0699 5.04578 10.9563 5.16897 10.8877L13.4987 6.00446C16.0981 4.20461 19.8346 4.23412 23.7336 6.16674L30.4683 2.331C32.7481 0.834038 35.42 0.0436098 38.1482 0.0590601C41.6058 0.166097 44.9735 1.18399 47.9105 3.00963C60.0802 10.032 70.064 27.0568 70.064 41.0425C71.6175 41.2176 73.1195 41.7043 74.48 42.4735C80.875 46.1617 86.0736 55.1315 86.0736 62.4636C86.0736 66.2404 84.6706 69.1024 82.2189 70.3416L82.1303 70.4154L73.8745 75.0773C73.8232 75.1123 73.7654 75.1368 73.7046 75.1494C73.6437 75.1621 73.581 75.1627 73.5199 75.1511ZM60.6118 46.442C62.1284 46.6435 63.5895 47.145 64.9097 47.9173C71.3047 51.6055 76.5033 60.5753 76.5033 67.8927C76.5487 69.568 76.2156 71.2321 75.5286 72.7611L81.4362 69.4417L81.5839 69.3384C83.7254 68.3205 84.9512 65.7978 84.9512 62.3899C84.7383 58.5733 83.6268 54.8607 81.7073 51.5539C79.7877 48.247 77.1142 45.4392 73.904 43.3587C72.5854 42.5484 71.1015 42.0442 69.5619 41.8834C69.4221 41.8758 69.2906 41.815 69.1944 41.7134C69.0983 41.6119 69.0448 41.4773 69.045 41.3375V41.1605C69.045 27.3666 59.3417 10.6369 47.4083 3.76202C41.5007 0.324609 35.5931 0.132822 31.1624 3.12765L27.2191 5.37008C31.1529 5.23875 35.0345 6.2981 38.3549 8.40917C50.5837 15.4315 60.5085 32.4563 60.6118 46.442ZM8.53626 10.1353C10.9268 10.2181 13.2539 10.9251 15.2857 12.1859C15.8322 12.5105 16.4081 12.8793 17.0284 13.3219C18.0188 10.5543 19.9606 8.22786 22.5078 6.75686C19.2734 5.28157 16.2605 5.38484 14.0894 6.87488L8.53626 10.1353Z" fill="#03336E"/>
<path d="M64.6286 48.4631C63.2368 47.625 61.6698 47.1201 60.0501 46.9878V46.6927C60.0501 32.8251 50.2435 15.9183 38.1329 8.92545C28.4002 3.31936 20.1591 5.8421 17.2939 14.266C16.5697 13.6945 15.8045 13.1768 15.0046 12.7169C7.02933 8.11404 0.560547 11.7875 0.560547 20.949C0.560547 30.1105 7.02933 41.2489 15.0046 45.8518L64.6286 74.4724C70.8906 78.0721 75.9564 75.1805 75.9564 68.0254C75.744 64.1039 74.6073 60.288 72.6387 56.8885C70.6702 53.4891 67.9257 50.6022 64.6286 48.4631Z" fill="white"/>
<path d="M69.7112 76.5231C67.8171 76.4616 65.9729 75.9018 64.3648 74.9003L14.7261 46.2798C6.60309 41.6031 -0.0429688 30.2139 -0.0429688 20.9049C-0.0429688 14.3546 3.29486 10.1353 8.47878 10.1353C10.8742 10.2162 13.2066 10.9233 15.243 12.1859C15.7895 12.5105 16.3655 12.8793 16.9858 13.3219C17.7748 10.9662 19.2931 8.92198 21.3214 7.48467C23.3496 6.04736 25.7827 5.29134 28.2693 5.32584C31.8496 5.44758 35.3343 6.51119 38.3713 8.40918C50.5409 15.4315 60.5248 32.4416 60.5248 46.442C62.0413 46.6435 63.5025 47.145 64.8226 47.9173C71.2176 51.6055 76.4163 60.5753 76.4163 67.8927C76.5259 70.1262 75.8752 72.331 74.5702 74.1479C73.9961 74.8888 73.2596 75.4882 72.4172 75.9C71.5748 76.3117 70.649 76.5249 69.7112 76.5231ZM8.52314 11.2417C3.94474 11.2417 1.13863 14.9447 1.13863 20.9049C1.13863 29.8598 7.50404 40.8212 15.3168 45.3208L64.9112 73.9266C66.3559 74.8262 68.0101 75.3346 69.7112 75.4019C70.4909 75.4261 71.2655 75.268 71.9732 74.9401C72.6809 74.6123 73.3022 74.1237 73.7874 73.5135C74.9244 71.916 75.4912 69.9833 75.3972 68.0255C75.1813 64.2133 74.07 60.5054 72.1534 57.2017C70.2368 53.8981 67.5687 51.0915 64.3648 49.009C63.0436 48.1929 61.5536 47.6884 60.0079 47.5337C59.8656 47.5261 59.7318 47.4632 59.6353 47.3585C59.5387 47.2537 59.4869 47.1155 59.4909 46.9731V46.8109C59.4909 33.0169 49.7878 16.2872 37.8544 9.41238C34.9904 7.60534 31.6987 6.58737 28.3136 6.46181C23.2921 6.46181 19.5703 9.29435 17.8276 14.4283C17.7988 14.5109 17.7499 14.585 17.6855 14.6442C17.6211 14.7034 17.5431 14.7458 17.4584 14.7677C17.3766 14.7978 17.2883 14.8054 17.2025 14.7899C17.1168 14.7743 17.0369 14.7361 16.971 14.6791C16.2532 14.1425 15.5035 13.6498 14.7261 13.2039C12.8678 12.0147 10.7279 11.3378 8.52314 11.2417Z" fill="#03336E"/>
<path d="M49.9491 95.6279L16.2905 76.1984C12.7902 74.1773 13.2333 70.6514 17.2801 68.3057C21.3268 65.9747 27.4412 65.7239 30.9562 67.745L64.6 87.2041C68.1002 89.2252 67.672 92.7511 63.6253 95.0821C59.5638 97.3983 53.4494 97.6491 49.9491 95.6279Z" fill="#D1EBFF"/>
</g>
<defs>
<clipPath id="clip0_2_190">
<rect width="86" height="97" fill="white"/>
</clipPath>
</defs>
</svg>
