<svg width="75" height="92" viewBox="0 0 75 92" fill="none" xmlns="http://www.w3.org/2000/svg">
<g clip-path="url(#clip0_2_229)">
<path d="M40.3695 15.3911V20.4686L8.58956 0.750162C8.3332 0.589632 8.04182 0.504848 7.745 0.504396C7.44818 0.503944 7.1565 0.58786 6.89971 0.747609C6.64293 0.907357 6.43021 1.13723 6.2831 1.41386C6.13599 1.69048 6.05975 2.00396 6.06222 2.32244V52.9527L66.7048 90.774C67.3996 91.2129 68.1935 91.4383 68.9996 91.4255C69.8058 91.4128 70.5931 91.1625 71.2755 90.7019L72.6199 89.8508C73.2074 89.4602 73.6916 88.9141 74.0259 88.265C74.3602 87.6158 74.5334 86.8854 74.5288 86.1437V36.2346C74.5406 35.3605 74.3351 34.4988 73.9334 33.7382C73.5318 32.9776 72.9484 32.3456 72.2434 31.9073L42.9371 13.7467C42.675 13.5709 42.3728 13.4761 42.0637 13.4727C41.7546 13.4692 41.4506 13.5574 41.1852 13.7274C40.9198 13.8974 40.7032 14.1426 40.5592 14.4362C40.4153 14.7297 40.3497 15.0601 40.3695 15.3911Z" fill="#037AB4" fill-opacity="0.2"/>
<path d="M68.938 91.9856C69.8593 91.9876 70.7627 91.7128 71.546 91.1922L72.8903 90.3267C73.5536 89.8925 74.1013 89.282 74.4805 88.5543C74.8596 87.8266 75.0574 87.0062 75.0547 86.1725V36.2345C75.0508 35.277 74.8145 34.3371 74.3689 33.5074C73.9234 32.6778 73.284 31.987 72.5139 31.5033L43.2076 13.3571C42.874 13.1454 42.4928 13.0357 42.1052 13.0398C41.5252 13.0436 40.9699 13.2925 40.5597 13.7326C40.1495 14.1727 39.9175 14.7686 39.914 15.391V19.502L8.83315 0.31733C8.50513 0.103984 8.12773 -0.00599151 7.7442 -1.27167e-05C7.16305 -1.27167e-05 6.60568 0.247705 6.19475 0.688642C5.78381 1.12958 5.55294 1.72758 5.55294 2.35116V52.9815C5.55131 53.0782 5.57425 53.1736 5.61924 53.2574C5.66423 53.3413 5.72958 53.4104 5.80836 53.4575L66.5048 91.2643C67.2431 91.7289 68.0821 91.9776 68.938 91.9856ZM42.0514 14.0928C42.2595 14.0923 42.4639 14.1521 42.643 14.2659L71.8821 32.4841C72.5065 32.8641 73.0251 33.4161 73.3843 34.083C73.7435 34.7499 73.9303 35.5076 73.9254 36.2778V86.2157C73.9254 86.8653 73.7712 87.5042 73.4771 88.0721C73.1831 88.64 72.7591 89.1181 72.245 89.4613L70.9007 90.3123C70.2935 90.7031 69.6012 90.9156 68.8932 90.9282C68.1853 90.9409 67.4867 90.7533 66.8677 90.3845L6.56119 52.6786V2.35116C6.56168 2.1286 6.61674 1.91012 6.72078 1.71757C6.82481 1.52503 6.97417 1.36522 7.15392 1.25417C7.33368 1.14312 7.53751 1.08469 7.74494 1.08482C7.95236 1.08496 8.15607 1.14364 8.33571 1.25492L40.1156 20.9445C40.1948 20.9876 40.2823 21.01 40.371 21.01C40.4598 21.01 40.5473 20.9876 40.6265 20.9445C40.7001 20.8925 40.7606 20.8219 40.8028 20.7389C40.845 20.6558 40.8675 20.563 40.8684 20.4685V15.391C40.8684 15.2243 40.899 15.0592 40.9585 14.9052C41.0179 14.7512 41.1051 14.6113 41.2149 14.4934C41.3248 14.3755 41.4552 14.282 41.5987 14.2183C41.7423 14.1545 41.8961 14.1216 42.0514 14.1216V14.0928Z" fill="#03336E"/>
<path d="M2.94486 47.3992L71.3711 89.7931V46.1732L2.94486 3.7793V47.3992Z" fill="white"/>
<path d="M71.37 90.3266C71.4601 90.3319 71.5494 90.3067 71.6254 90.2545C71.7013 90.2075 71.7647 90.1404 71.8094 90.0596C71.8542 89.9787 71.8787 89.8869 71.8809 89.7929V46.173C71.8785 46.0771 71.8539 45.9834 71.8093 45.9003C71.7647 45.8171 71.7015 45.7473 71.6254 45.697L3.18579 3.30309C3.11116 3.25323 3.02501 3.22681 2.9371 3.22681C2.84917 3.22681 2.76302 3.25323 2.68839 3.30309C2.61161 3.34896 2.5475 3.41588 2.50263 3.49696C2.45776 3.57804 2.43375 3.6704 2.43297 3.76469V47.3991C2.43232 47.4937 2.45573 47.5867 2.50075 47.668C2.54576 47.7494 2.61067 47.816 2.68839 47.8607L71.1146 90.2545C71.1913 90.305 71.2801 90.3301 71.37 90.3266ZM70.8726 46.4759V88.8553L3.44122 47.024V4.70228L70.8726 46.4759Z" fill="#03336E"/>
<path d="M3.4677 51.5103L66.8124 90.7596C67.4629 91.1609 68.1977 91.3781 68.9479 91.3907C69.6981 91.4033 70.439 91.211 71.1008 90.8317L71.5176 90.5865L71.0874 90.7596C70.8487 90.8608 70.5905 90.8978 70.3353 90.8673C70.0802 90.8369 69.8359 90.7399 69.6238 90.5848C69.4116 90.4297 69.2381 90.2213 69.1183 89.9777C68.9985 89.7341 68.936 89.4627 68.9365 89.1873V54.5683C68.9455 53.6947 68.7388 52.8341 68.3374 52.074C67.936 51.314 67.3542 50.6815 66.6511 50.2409L3.02414 10.8329C2.76712 10.677 2.47654 10.5959 2.1813 10.5977C1.88608 10.5994 1.59644 10.6839 1.34102 10.8428C1.08561 11.0017 0.873314 11.2295 0.725227 11.5035C0.577141 11.7776 0.498413 12.0884 0.496796 12.4052V45.8847C0.478157 47.0217 0.743919 48.1433 1.26643 49.1327C1.78896 50.1221 2.54906 50.9431 3.4677 51.5103Z" fill="#D1EBFF"/>
<path d="M69.0181 91.9278C69.8287 91.9263 70.6268 91.7135 71.3438 91.3075L71.747 91.0623C71.8071 91.0329 71.8611 90.9912 71.9061 90.9394C71.9511 90.8876 71.9861 90.8269 72.0092 90.7606C72.0323 90.6943 72.043 90.6237 72.0407 90.553C72.0384 90.4822 72.0231 90.4127 71.9957 90.3483C71.9684 90.2839 71.9295 90.2259 71.8812 90.1776C71.833 90.1293 71.7763 90.0918 71.7146 90.067C71.6528 90.0422 71.587 90.0307 71.5211 90.0332C71.4552 90.0357 71.3903 90.0521 71.3303 90.0814L70.9001 90.2545C70.7384 90.3159 70.5654 90.3355 70.3953 90.3116C70.2252 90.2877 70.0627 90.221 69.9212 90.117C69.7797 90.0129 69.6631 89.8744 69.5809 89.7128C69.4987 89.5512 69.4532 89.3711 69.4483 89.1871V54.5681C69.447 53.6083 69.2103 52.6657 68.762 51.8352C68.3136 51.0047 67.6694 50.3155 66.894 49.8368L3.32082 10.4866C2.99142 10.2767 2.615 10.167 2.23192 10.1692C1.65076 10.1692 1.0934 10.4169 0.682465 10.8579C0.271523 11.2988 0.040657 11.8969 0.040657 12.5204V46.0143C0.0432739 47.2242 0.341263 48.4121 0.904984 49.4599C1.4687 50.5077 2.27851 51.3786 3.25362 51.9861L66.5042 91.221C67.2687 91.6921 68.1365 91.9361 69.0181 91.9278ZM69.1256 90.8459C68.4055 90.8588 67.6953 90.6646 67.0688 90.2834L3.7241 51.0485C2.90151 50.5389 2.21942 49.8047 1.74716 48.9204C1.27489 48.0362 1.0293 47.0335 1.03545 46.0143V12.5204C1.03594 12.2979 1.091 12.0794 1.19504 11.8868C1.29906 11.6943 1.44843 11.5345 1.62818 11.4234C1.80794 11.3124 2.01178 11.254 2.2192 11.2541C2.42662 11.2542 2.63033 11.3129 2.80997 11.4242L66.4235 50.8321C67.0424 51.2189 67.5565 51.7723 67.9149 52.4377C68.2733 53.1031 68.4635 53.8573 68.4669 54.6258V89.2448C68.4714 89.5454 68.5321 89.8419 68.6452 90.1169C68.7584 90.3919 68.9217 90.6398 69.1256 90.8459Z" fill="#03336E"/>
</g>
<defs>
<clipPath id="clip0_2_229">
<rect width="75" height="92" fill="white" transform="matrix(-1 0 0 1 75 0)"/>
</clipPath>
</defs>
</svg>
